<svg width="31" height="32" viewBox="0 0 31 32" fill="none" xmlns="http://www.w3.org/2000/svg">
<path fill-rule="evenodd" clip-rule="evenodd" d="M11.8832 27.9487C11.373 29.2848 9.19055 28.6947 9.76743 27.2009C10.3243 25.7591 12.3918 26.6168 11.8832 27.9487ZM25.7208 28.045C25.1691 29.2726 22.9347 28.6492 23.6962 27.0724C24.3437 25.7318 26.3147 26.7239 25.7208 28.045ZM21.2495 28.045C21.4486 29.787 23.0917 31.2315 25.143 31.0082C26.8484 30.8225 28.3697 29.1178 28.1077 27.0972C27.8942 25.451 26.1977 23.8854 24.2202 24.1464C22.5144 24.3716 21.0163 26.0048 21.2495 28.045ZM24.5729 21.7998C28.7439 21.8009 27.7216 22.8952 29.2834 13.8928C29.5994 12.0713 29.8701 10.2763 30.1947 8.43265C30.7441 5.31141 30.1569 5.61343 27.1728 5.61313C22.9682 5.61272 18.7632 5.60644 14.5587 5.61267C13.4994 5.61425 12.4391 5.6155 11.3799 5.6116C10.3169 5.60767 9.41579 5.84708 9.76669 7.1277C10.0347 8.1059 11.0338 7.92259 12.1514 7.92428L27.9305 7.93203L26.0074 19.4873L11.5729 19.4691C11.3059 18.4905 10.7633 17.2785 10.4078 16.3126C9.99938 15.2029 9.62542 14.2408 9.22036 13.154C8.45408 11.0981 7.6572 8.98387 6.88901 6.92938C6.48373 5.84546 6.11678 4.88015 5.70168 3.77244C5.35672 2.85194 5.03538 1.23427 4.12637 1.02672C3.70141 0.929688 2.45076 0.984251 1.94124 0.984551C1.14365 0.984988 0.760895 1.13224 0.522282 1.68126C-0.331069 3.64459 2.90336 3.29971 2.90751 3.30061C3.19449 3.36427 3.58716 4.72413 3.77776 5.22472C4.5019 7.12656 8.93125 18.7709 9.09322 19.4828C7.93332 19.5051 7.16783 19.6129 6.43618 20.2114C4.96886 21.4115 4.51309 23.3115 5.66226 24.9048C6.24905 25.7183 6.57481 25.7919 7.57957 26.3118C7.34715 27.7294 7.13617 28.4217 7.98594 29.611C8.45689 30.2702 9.45433 30.9645 10.7092 31.0251C12.1076 31.0926 13.0452 30.3462 13.5535 29.6396C14.3719 28.5017 14.2819 27.9055 14.1068 26.4452C15.8807 26.2971 19.6585 27.0748 18.7408 24.8263C18.3705 23.9189 17.3427 24.1112 16.2919 24.1129L9.93674 24.1133C8.87606 24.1123 7.8029 24.3049 7.44113 23.4234C7.05993 22.4947 7.87305 21.8055 8.77602 21.796L24.5729 21.7998Z" fill="currentColor"/>
</svg>
