<svg width="31" height="22" viewBox="0 0 31 22" fill="none" xmlns="http://www.w3.org/2000/svg">
<path fill-rule="evenodd" clip-rule="evenodd" d="M8.7436 12.1969C7.13886 12.2208 5.51868 12.2023 3.91236 12.2014C0.0941701 12.1992 0.651656 11.6325 0.648227 18.538C0.647192 20.5951 0.325106 21.4287 2.56782 21.4196L26.668 21.4184C27.4687 21.4194 28.2716 21.4242 29.0719 21.4211C29.9093 21.418 30.4583 21.2496 30.5228 20.4568C30.6679 18.6731 28.5215 19.1161 27.0521 19.1142C25.4519 19.1122 23.8515 19.1132 22.2513 19.1137C15.871 19.1158 9.3172 19.2599 2.95822 19.1081L2.95258 14.5114C4.57273 14.4721 7.849 14.5056 7.849 14.5056C12.3496 14.5108 10.7391 15.1117 11.0615 3.0275L20.2655 2.9824C20.3039 4.21811 20.2729 5.49284 20.2726 6.72811C20.2719 10.988 19.9948 9.68902 28.2939 9.903C28.3176 11.0072 28.1156 15.6341 28.4658 16.2607C28.891 17.0215 30.2748 16.8414 30.5463 15.9889C30.672 15.5942 30.6012 10.3038 30.6061 9.41593C30.613 8.16131 30.4587 7.61384 29.1692 7.5894C28.0897 7.56895 26.9827 7.59269 25.8999 7.59266C25.0648 7.59263 23.3083 7.68621 22.5826 7.54898L22.5774 3.55959C22.5784 -0.24962 22.7918 0.675596 13.3219 0.678698C7.03396 0.680794 9.14407 -0.629406 8.7436 12.1969Z" fill="currentColor"/>
</svg>
