<svg width="12" height="13" viewBox="0 0 12 13" fill="none" xmlns="http://www.w3.org/2000/svg">
<path d="M5.5334 9.68333C5.76674 9.975 6.2334 9.975 6.46674 9.68333L9.96674 6.00833C10.2584 5.71667 9.96674 5.25 9.50007 5.25H7.16674C7.16674 5.25 7.2834 2.56667 7.16674 1.16667C7.1084 0.525 6.64174 0 6.00007 0C5.3584 0 4.89174 0.525 4.8334 1.16667C4.71674 2.50833 4.8334 5.25 4.8334 5.25H2.50007C2.0334 5.25 1.74174 5.71667 2.0334 6.06667L5.5334 9.68333Z" fill="currentColor"/>
<path d="M10.0833 11.0835H1.91667C1.275 11.0835 0.75 11.6085 0.75 12.2502C0.75 12.6002 0.983333 12.8335 1.33333 12.8335H10.6667C11.0167 12.8335 11.25 12.6002 11.25 12.2502C11.25 11.6085 10.725 11.0835 10.0833 11.0835Z" fill="currentColor"/>
</svg>
