<svg width="30" height="28" viewBox="0 0 30 28" fill="none" xmlns="http://www.w3.org/2000/svg">
<path fill-rule="evenodd" clip-rule="evenodd" d="M3.34916 2.40213C4.47506 2.18667 8.20845 2.31448 9.60724 2.31448L25.477 2.37105C26.5569 2.3773 27.4582 2.31882 27.6599 3.33032C27.9129 4.59878 27.7226 19.5905 27.7085 22.1581C27.7027 23.216 27.6988 24.2742 27.6948 25.3321C27.6909 26.3885 27.5751 27.4484 28.502 27.6804C29.5649 27.9464 30.0018 27.0356 30 26.1042C29.998 25.0453 29.9969 23.9865 29.9976 22.9276L29.9991 3.88314C29.9966 1.94809 28.9514 0.588534 27.3545 0.182852C26.1778 -0.116093 10.368 0.0425813 8.45309 0.0480067C4.02232 0.0606025 0.00501182 -0.800081 0.0062932 4.26835C0.00732922 8.50134 -0.00801998 12.732 0.00580265 16.9655C0.0122914 18.952 1.01425 20.2613 2.59096 20.7027C4.71272 21.2968 17.6166 20.1519 21.0358 21.3032C21.8638 21.582 22.4957 22.0005 23.0562 22.4631C23.3345 22.6927 23.587 23.0304 24.054 23.105C25.4662 23.3308 26.621 21.1316 22.3542 19.4172C19.2978 18.1891 14.1763 18.5263 10.569 18.5298C8.45314 18.5319 6.33678 18.519 4.22102 18.5239C3.06205 18.5266 2.37228 18.4225 2.31298 17.2542C2.14706 13.9848 2.28951 8.12775 2.30933 4.55721C2.31543 3.45595 2.228 2.61667 3.34916 2.40213Z" fill="currentColor"/>
<path fill-rule="evenodd" clip-rule="evenodd" d="M23.0132 8.50062C23.2719 7.81055 22.8465 7.18306 22.3142 7.05036C21.7416 6.90769 12.173 6.9885 10.8577 6.99079C9.67339 6.99284 7.44217 6.61033 7.0683 7.68822C6.81129 8.4293 7.16754 9.08166 7.71603 9.23772C8.20977 9.37821 17.9658 9.29822 19.2253 9.2971C20.9702 9.29554 22.5952 9.61578 23.0132 8.50062Z" fill="currentColor"/>
<path fill-rule="evenodd" clip-rule="evenodd" d="M7.12594 13.1173C7.48211 14.1711 8.58843 13.9097 9.79956 13.9107L16.5322 13.9106C17.5993 13.9147 18.7329 13.8213 18.286 12.4175C17.9475 11.3544 16.8604 11.6062 15.6665 11.6043L8.93362 11.6046C7.86246 11.6023 6.63759 11.6725 7.12594 13.1173Z" fill="currentColor"/>
</svg>
