<svg width="31" height="30" viewBox="0 0 31 30" fill="none" xmlns="http://www.w3.org/2000/svg">
<path fill-rule="evenodd" clip-rule="evenodd" d="M5.49307 13.1197C6.84571 13.0337 8.42088 13.1032 9.79733 13.104C11.2481 13.1049 12.8779 13.4404 13.3534 12.3017C13.8105 11.2071 15.1903 6.32446 15.4802 5.89869C15.6824 6.18142 16.3816 8.54912 16.5624 9.10109C18.0226 13.5569 17.2167 13.1003 21.2595 13.1039C22.6175 13.1051 24.1337 13.0398 25.4719 13.1178L20.8609 16.5294C20.3758 16.8786 19.7028 17.2176 19.5814 17.846C19.426 18.6501 20.1181 19.225 20.7811 19.2548C21.412 19.2832 22.0607 18.6482 22.483 18.3436C23.5297 17.5888 24.5075 16.8628 25.5536 16.1164C26.5989 15.3707 27.6391 14.5886 28.677 13.8457C28.9816 13.6277 30.0586 12.8943 30.2229 12.6954C30.7076 12.1086 30.5173 11.2805 29.9636 10.9199C29.2079 10.4277 21.5472 10.7697 19.6228 10.6608L16.9994 2.60586C16.7128 1.73961 16.5588 0.652574 15.4805 0.656014C14.3808 0.659509 14.219 1.80347 13.9381 2.68185L11.3422 10.6638C9.12582 10.7572 6.7351 10.6775 4.49969 10.6774C3.81841 10.6773 1.70864 10.5736 1.23086 10.7709C0.384315 11.1204 0.252166 12.2916 0.947367 12.8719L8.73156 18.5658C8.67114 19.133 7.25155 23.2404 6.9523 24.1944C6.71031 24.9659 5.62153 27.7404 5.79895 28.4343C5.90623 28.8539 6.3294 29.2579 6.74179 29.3322C7.48475 29.4662 8.59332 28.4275 9.09104 28.0702C9.82465 27.5434 10.4737 27.0614 11.2124 26.5307C11.9535 25.9982 14.9782 23.7271 15.4802 23.4733C15.9384 23.6918 16.3391 24.045 16.7376 24.3397L20.2472 26.8976C20.7974 27.3045 23.3245 29.3349 23.9596 29.3393C24.567 29.3435 24.984 28.9028 25.1248 28.5097C25.3848 27.7837 23.6999 23.2402 23.3796 22.2294C22.7949 20.3843 21.4157 21.0528 21.0424 21.7211C20.6239 22.4705 21.4915 24.0198 21.6523 24.8538C20.6884 24.4685 16.4271 20.7407 15.48 20.7356C14.8085 20.732 12.8769 22.3319 12.3234 22.7296C11.7929 23.1107 9.71099 24.7023 9.31119 24.8549C9.52699 23.7711 10.1592 22.1478 10.5245 21.0283C11.8878 16.8511 11.89 17.8887 8.26194 15.1886C7.56237 14.6679 6.00646 13.6826 5.49307 13.1197Z" fill="currentColor"/>
</svg>
