<svg width="26" height="28" viewBox="0 0 26 28" xmlns="http://www.w3.org/2000/svg">
<path d="M22.9087 5.09078C22.9087 4.38462 22.6254 3.74821 22.1684 3.29123L22.1631 3.28594C21.7062 2.82896 21.0698 2.54563 20.3636 2.54563C19.6574 2.54563 19.021 2.82896 18.5641 3.28594V3.29123C18.1042 3.7511 17.8184 4.38799 17.8184 5.09078C17.8184 5.53958 17.9349 5.96193 18.1393 6.32848L18.1658 6.37129L18.1922 6.41843C18.2976 6.59016 18.4226 6.7489 18.5641 6.89033C19.0239 7.35019 19.6613 7.63593 20.3636 7.63593C21.0664 7.63593 21.7033 7.35019 22.1631 6.89033L22.2213 6.83597C22.6471 6.38332 22.9087 5.76952 22.9087 5.09078ZM16.7462 8.67255L9.99059 12.6156C10.1152 13.0562 10.1816 13.5199 10.1816 14C10.1816 14.4806 10.1147 14.9457 9.99011 15.3863L16.7491 19.325L16.764 19.3096C17.6847 18.389 18.9585 17.8184 20.3636 17.8184C21.7692 17.8184 23.0425 18.389 23.9617 19.3111C24.8834 20.2361 25.4544 21.5089 25.4544 22.9092C25.4544 24.3076 24.8858 25.577 23.9661 26.5006L23.9603 26.5059C23.0343 27.43 21.7634 28 20.3636 28C19.0037 28 17.7641 27.4617 16.8477 26.5853L16.764 26.5088C15.8433 25.5881 15.2728 24.3148 15.2728 22.9092C15.2728 22.4263 15.3402 21.9592 15.4662 21.5166L8.71007 17.5794L8.69035 17.5996C7.76388 18.5198 6.49107 19.0908 5.09078 19.0908C3.69241 19.0908 2.42297 18.5222 1.49938 17.6025L1.49409 17.5967C0.570025 16.6707 0 15.3998 0 14C0 12.6016 0.568581 11.3322 1.48832 10.4086L1.49409 10.4033C2.42008 9.47925 3.69097 8.90922 5.09078 8.90922C6.45066 8.90922 7.69028 9.4475 8.60665 10.3239L8.69035 10.4004L8.70815 10.4182L15.4638 6.47519C15.3392 6.03505 15.2728 5.57037 15.2728 5.09078C15.2728 3.6852 15.8433 2.4119 16.764 1.4912C17.6905 0.570987 18.9633 0 20.3636 0C21.762 0 23.0314 0.568581 23.9564 1.48976L23.9632 1.4965C24.8843 2.42008 25.4544 3.69097 25.4544 5.09078C25.4544 6.45066 24.9161 7.69028 24.0397 8.60665L23.9632 8.69035C23.0425 9.61105 21.7692 10.1816 20.3636 10.1816C18.9585 10.1816 17.6847 9.61105 16.764 8.69035L16.7462 8.67255ZM7.31508 12.7623L7.28862 12.7195L7.26217 12.6723C7.15682 12.5006 7.03175 12.3419 6.89033 12.2005L6.83597 12.1423C6.38332 11.7165 5.76952 11.4549 5.09078 11.4549C4.38462 11.4549 3.74821 11.7382 3.29123 12.1952L3.28594 12.2005C2.82896 12.6574 2.54563 13.2938 2.54563 14C2.54563 14.7062 2.82896 15.3426 3.28594 15.7995L3.29123 15.8048C3.74821 16.2618 4.38462 16.5451 5.09078 16.5451C5.79694 16.5451 6.43334 16.2618 6.89033 15.8048V15.7995C7.35019 15.3397 7.63593 14.7028 7.63593 14C7.63593 13.5507 7.51952 13.1288 7.31508 12.7623ZM18.236 21.5123C18.2187 21.5503 18.1999 21.5873 18.1787 21.6239C18.1552 21.6643 18.1297 21.7033 18.1027 21.7403C17.9214 22.0905 17.8184 22.4878 17.8184 22.9092C17.8184 23.612 18.1042 24.2489 18.5641 24.7088L18.6184 24.767C19.0711 25.1927 19.6849 25.4544 20.3636 25.4544C21.0698 25.4544 21.7062 25.171 22.1631 24.7141L22.1684 24.7088C22.6254 24.2518 22.9087 23.6154 22.9087 22.9092C22.9087 22.2031 22.6254 21.5667 22.1684 21.1097H22.1631C21.7033 20.6498 21.0664 20.3641 20.3636 20.3641C19.6613 20.3641 19.0239 20.6498 18.5641 21.1097C18.4419 21.2319 18.3317 21.367 18.236 21.5123Z" fill="currentColor"/>
</svg>
