<svg width="24" height="25" viewBox="0 0 24 25" fill="none" xmlns="http://www.w3.org/2000/svg">
<path d="M17.2297 16.0215L23.7159 22.52C23.9115 22.7516 24.0126 23.0485 23.9988 23.3514C23.985 23.6542 23.8574 23.9407 23.6415 24.1535C23.4256 24.3664 23.1373 24.4899 22.8343 24.4994C22.5313 24.5089 22.2359 24.4037 22.0071 24.2048L15.5329 17.7304C13.5988 19.2329 11.1646 19.9418 8.72617 19.7126C6.28772 19.4834 4.0283 18.3334 2.40796 16.4967C0.787622 14.66 -0.0717947 12.2748 0.00470125 9.82672C0.0811972 7.37862 1.08785 5.05172 2.8197 3.31981C4.55154 1.5879 6.87836 0.5812 9.32636 0.504701C11.7744 0.428203 14.1595 1.28765 15.9961 2.90805C17.8327 4.52845 18.9827 6.78796 19.2118 9.22651C19.441 11.6651 18.7322 14.0993 17.2297 16.0335V16.0215ZM9.62434 17.3453C11.5393 17.3453 13.3758 16.5845 14.7298 15.2304C16.0839 13.8763 16.8446 12.0397 16.8446 10.1247C16.8446 8.2097 16.0839 6.37312 14.7298 5.019C13.3758 3.66489 11.5393 2.90415 9.62434 2.90415C7.7094 2.90415 5.87289 3.66489 4.51883 5.019C3.16476 6.37312 2.40406 8.2097 2.40406 10.1247C2.40406 12.0397 3.16476 13.8763 4.51883 15.2304C5.87289 16.5845 7.7094 17.3453 9.62434 17.3453Z" fill="currentColor"/>
</svg>
