<svg width="24" height="24" viewBox="0 0 24 24" fill="none" xmlns="http://www.w3.org/2000/svg">
<path d="M23.2103 5.04516C22.4045 5.41121 21.5457 5.65379 20.6507 5.77135C21.5717 5.20229 22.2744 4.30773 22.6048 3.22979C21.7461 3.75976 20.7984 4.13415 19.7881 4.34293C18.9726 3.44415 17.8108 2.8877 16.5433 2.8877C14.0839 2.8877 12.1041 4.95418 12.1041 7.48735C12.1041 7.85185 12.1339 8.2021 12.2071 8.53604C8.51392 8.34938 5.24614 6.51737 3.0509 3.72615C2.66753 4.41427 2.44277 5.20229 2.44277 6.05035C2.44277 7.64284 3.23497 9.05457 4.41603 9.87165C3.70234 9.85787 3.00208 9.64346 2.40895 9.30573V9.35607C2.40895 11.5905 3.94884 13.4465 5.96782 13.8739C5.60621 13.9765 5.21227 14.0254 4.8032 14.0254C4.51905 14.0254 4.23172 14.0085 3.96224 13.947C4.53799 15.7681 6.1711 17.1068 8.11307 17.1501C6.60169 18.3739 4.6827 19.1113 2.60537 19.1113C2.24117 19.1113 1.89173 19.0947 1.54224 19.0484C3.50995 20.3619 5.84205 21.1118 8.35699 21.1118C16.531 21.1118 21.0002 14.1026 21.0002 8.02712C21.0002 7.82377 20.9931 7.62741 20.9838 7.4327C21.8655 6.78498 22.6063 5.9762 23.2103 5.04516Z" fill="#03ACF8"/>
</svg>
