<svg width="22" height="22" viewBox="0 0 22 22" fill="none" xmlns="http://www.w3.org/2000/svg">
<path d="M0 10.56C0 5.58195 0 3.09295 1.54648 1.54648C3.09295 0 5.58195 0 10.56 0H11.44C16.4181 0 18.907 0 20.4535 1.54648C22 3.09295 22 5.58195 22 10.56V11.44C22 16.4181 22 18.907 20.4535 20.4535C18.907 22 16.4181 22 11.44 22H10.56C5.58195 22 3.09295 22 1.54648 20.4535C0 18.907 0 16.4181 0 11.44V10.56Z" fill="#0077FF"/>
<path d="M11.7058 15.8494C6.69165 15.8494 3.83169 12.4119 3.71252 6.69189H6.22419C6.30669 10.8902 8.15831 12.6686 9.62498 13.0352V6.69189H11.9901V10.3127C13.4384 10.1569 14.9599 8.50689 15.4732 6.69189H17.8383C17.4441 8.92856 15.7941 10.5786 14.6208 11.2569C15.7941 11.8069 17.6734 13.2461 18.3884 15.8494H15.7849C15.2258 14.1077 13.8326 12.7602 11.9901 12.5769V15.8494H11.7058Z" fill="white"/>
</svg>
