<svg width="24" height="24" viewBox="0 0 24 24" fill="none" xmlns="http://www.w3.org/2000/svg">
<g clip-path="url(#clip0_304:1076)">
<path d="M22.1125 5.77549C21.5248 4.69319 20.8867 4.49435 19.5882 4.41855C18.2907 4.32738 15.0282 4.28955 12.2022 4.28955C9.37034 4.28955 6.10656 4.32738 4.8104 4.417C3.5146 4.49435 2.87524 4.69188 2.28228 5.77549C1.67675 6.85643 1.36536 8.71811 1.36536 11.9956V12.0069C1.36536 15.2701 1.67675 17.1458 2.28228 18.2154C2.87524 19.2978 3.51311 19.494 4.80931 19.585C6.10656 19.6636 9.37034 19.71 12.2022 19.71C15.0282 19.71 18.2907 19.6636 19.5894 19.5865C20.8882 19.4956 21.5258 19.299 22.1137 18.2169C22.7244 17.1472 23.0334 15.2717 23.0334 12.0081V11.9969C23.0334 8.71811 22.7244 6.85643 22.1125 5.77549Z" fill="#F84437"/>
<path d="M9.49097 16.2051V7.79395L16.2621 11.9995L9.49097 16.2051Z" fill="#FCFCFC"/>
</g>
<defs>
<clipPath id="clip0_304:1076">
<rect width="23.2479" height="24" fill="white" transform="translate(0.575439)"/>
</clipPath>
</defs>
</svg>
