<svg width="30" height="18" viewBox="0 0 30 18" fill="none" xmlns="http://www.w3.org/2000/svg">
<path d="M30 0.251953H0V17.7539H30V0.251953Z" fill="#50AEC4"/>
<path d="M1.96869 12.5918C1.96869 12.2402 2.28509 12.0645 2.53119 12.0645C2.86517 12.0645 3.04095 12.2637 3.04095 12.5215C3.04095 12.668 3.01166 12.7617 2.9472 12.9023C2.9472 12.9023 2.39642 14.0449 2.18548 14.4844C2.15619 14.5371 2.15033 14.6016 2.15033 14.6953C2.15033 14.8359 2.29095 14.9531 2.43158 14.959C2.56048 14.9648 2.70697 14.8359 2.70697 14.6953C2.70697 14.5195 2.61908 14.4434 2.52533 14.4434C2.40814 14.4434 2.36713 14.4902 2.36713 14.5723C2.36713 14.6309 2.39642 14.6543 2.43158 14.6543C2.53119 14.6543 2.50189 14.5254 2.50189 14.5254C2.54877 14.5371 2.58978 14.584 2.56634 14.6484C2.6015 14.6543 2.63666 14.6777 2.66009 14.707C2.63666 14.7305 2.6015 14.7539 2.56634 14.7598C2.58978 14.8359 2.56048 14.8711 2.49017 14.8887C2.50189 14.8594 2.50189 14.8301 2.50189 14.8066C2.39642 14.8359 2.23822 14.7891 2.23822 14.6074C2.23822 14.4258 2.36127 14.2793 2.59564 14.3145C2.54291 14.2852 2.51361 14.2324 2.50775 14.1738C2.54877 14.1914 2.59564 14.1914 2.59564 14.1914C2.56634 14.1445 2.53119 14.1035 2.53119 14.0098C2.5722 14.0273 2.61322 14.0684 2.67181 14.0449C2.58392 13.875 2.68939 13.6406 2.96478 13.582C2.86517 13.6992 2.8183 13.8223 2.8183 13.9512C2.8183 14.3555 2.92963 14.4258 2.92963 14.707C2.92963 14.8242 2.87103 14.9531 2.74798 15.041V15.0352C2.83002 15.0586 2.87689 15.0938 2.90619 15.1465C2.72455 15.1992 2.46088 15.1992 2.31439 15.1406C2.15033 15.123 2.039 14.9941 2.00384 14.9355C1.96869 14.8711 1.90423 14.6426 2.00384 14.4375C2.11517 14.209 2.62494 13.1309 2.78314 12.791C2.8183 12.7207 2.83588 12.6445 2.83588 12.5625C2.83588 12.3574 2.64252 12.2813 2.53705 12.2813C2.40814 12.2813 2.27338 12.3809 2.27338 12.5039C2.27338 12.5801 2.31439 12.627 2.37884 12.627C2.52533 12.627 2.51361 12.5039 2.48431 12.4219C2.57806 12.4629 2.6308 12.5332 2.61322 12.6152C2.66595 12.6211 2.71283 12.6445 2.7597 12.6973C2.72455 12.7441 2.67767 12.7734 2.61322 12.7793C2.64252 12.8965 2.56048 12.9492 2.48431 12.9785C2.50775 12.8906 2.52533 12.791 2.37884 12.791C2.26752 12.791 2.18548 12.7734 2.13275 12.7031C2.13275 12.7969 2.12103 13.1719 2.12103 13.1719C2.11517 13.3125 2.30853 13.3066 2.43158 13.2656C2.3847 13.4238 2.29095 13.5117 2.0683 13.4941C2.12103 13.5176 2.17963 13.5645 2.17963 13.6641C2.17963 13.793 2.07416 13.9395 2.00384 13.9863L1.96869 12.5918Z" fill="#F5C933"/>
<path d="M2.03906 12.5918C2.03906 12.2402 1.72266 12.0645 1.47656 12.0645C1.14258 12.0645 0.966797 12.2637 0.966797 12.5215C0.966797 12.668 0.996094 12.7617 1.06055 12.9023C1.06055 12.9023 1.61133 14.0449 1.82227 14.4844C1.85156 14.5371 1.85742 14.6016 1.85742 14.6953C1.85742 14.8359 1.7168 14.9531 1.57617 14.959C1.44727 14.9648 1.30078 14.8359 1.30078 14.6953C1.30078 14.5195 1.38867 14.4434 1.48242 14.4434C1.59961 14.4434 1.64062 14.4902 1.64062 14.5723C1.64062 14.6309 1.61133 14.6543 1.57617 14.6543C1.47656 14.6543 1.50586 14.5254 1.50586 14.5254C1.45898 14.5371 1.41797 14.584 1.44141 14.6484C1.40625 14.6543 1.37109 14.6777 1.34766 14.707C1.37109 14.7305 1.40625 14.7539 1.44141 14.7598C1.41797 14.8359 1.44727 14.8711 1.51758 14.8887C1.50586 14.8594 1.50586 14.8301 1.50586 14.8066C1.61133 14.8359 1.76953 14.7891 1.76953 14.6074C1.76953 14.4258 1.64648 14.2793 1.41211 14.3145C1.46484 14.2852 1.49414 14.2324 1.5 14.1738C1.45898 14.1914 1.41211 14.1914 1.41211 14.1914C1.44141 14.1445 1.47656 14.1035 1.47656 14.0098C1.43555 14.0273 1.39453 14.0684 1.33594 14.0449C1.42383 13.875 1.31836 13.6406 1.04297 13.582C1.14258 13.6992 1.18945 13.8223 1.18945 13.9512C1.18945 14.3555 1.07812 14.4258 1.07812 14.707C1.07812 14.8242 1.13672 14.9531 1.25977 15.041V15.0352C1.17773 15.0586 1.13086 15.0938 1.10156 15.1465C1.2832 15.1992 1.54687 15.1992 1.69336 15.1406C1.85742 15.123 1.96875 14.9941 2.00391 14.9355C2.03906 14.8711 2.10352 14.6426 2.00391 14.4375C1.89258 14.209 1.38281 13.1309 1.22461 12.791C1.18945 12.7207 1.17187 12.6445 1.17187 12.5625C1.17187 12.3574 1.36523 12.2813 1.4707 12.2813C1.59961 12.2813 1.73437 12.3809 1.73437 12.5039C1.73437 12.5801 1.69336 12.627 1.62891 12.627C1.48242 12.627 1.49414 12.5039 1.52344 12.4219C1.42969 12.4629 1.37695 12.5332 1.39453 12.6152C1.3418 12.6211 1.29492 12.6445 1.24805 12.6973C1.2832 12.7441 1.33008 12.7734 1.39453 12.7793C1.36523 12.8965 1.44727 12.9492 1.52344 12.9785C1.5 12.8906 1.48242 12.791 1.62891 12.791C1.74023 12.791 1.82227 12.7734 1.875 12.7031C1.875 12.7969 1.88672 13.1719 1.88672 13.1719C1.89258 13.3125 1.69922 13.3066 1.57617 13.2656C1.62305 13.4238 1.7168 13.5117 1.93945 13.4941C1.88672 13.5176 1.82812 13.5645 1.82812 13.6641C1.82812 13.793 1.93359 13.9395 2.00391 13.9863L2.03906 12.5918Z" fill="#F5C933"/>
<path d="M2.00391 16.3768C2.00391 16.3768 2.16797 16.5174 2.22656 16.4471C2.32031 16.3357 1.94531 15.7732 1.94531 15.574C1.94531 15.2518 2.16211 15.1639 2.43164 15.117C2.61328 15.0877 2.90625 15.1287 2.90625 15.1287C2.85352 15.2049 2.8125 15.2225 2.72461 15.2283C2.83008 15.2811 2.93555 15.3982 2.93555 15.5799C2.93555 15.8611 2.81836 15.9725 2.81836 16.2889C2.81836 16.4647 2.95898 16.6873 2.95898 16.6873C2.70703 16.6639 2.57812 16.4295 2.6543 16.242C2.61328 16.2361 2.57813 16.2479 2.54297 16.2772C2.52539 16.2244 2.55469 16.1658 2.5957 16.1131C2.56641 16.0955 2.54297 16.1072 2.49023 16.1189C2.49609 16.0662 2.52539 16.0076 2.60742 15.9549C2.37891 16.0135 2.23828 15.8553 2.23828 15.6912C2.23828 15.5682 2.32617 15.4744 2.41406 15.4744C2.44336 15.4744 2.48437 15.4861 2.50781 15.5037C2.52539 15.4686 2.51367 15.4217 2.49609 15.3865C2.56055 15.4041 2.60156 15.4393 2.57227 15.5154C2.61914 15.5213 2.66016 15.5389 2.68359 15.5682C2.66016 15.6033 2.61914 15.6209 2.57227 15.6209C2.60742 15.6912 2.56641 15.7322 2.51367 15.7674C2.51367 15.7674 2.54883 15.6209 2.45508 15.6209C2.41406 15.6209 2.37305 15.6326 2.37305 15.6971C2.37305 15.7498 2.41992 15.826 2.53125 15.8201C2.63672 15.8143 2.72461 15.7439 2.72461 15.574C2.72461 15.4158 2.5957 15.3338 2.42578 15.3279C2.27344 15.3221 2.15625 15.4041 2.15625 15.5623C2.15625 15.7732 2.46094 16.2479 2.46094 16.4354C2.46094 16.576 2.33203 16.6522 2.20898 16.6522C2.05078 16.6522 1.91602 16.4939 1.91602 16.4939L2.00391 16.3768Z" fill="#F5C933"/>
<path d="M2.00391 16.3768C2.00391 16.3768 1.83984 16.5174 1.78125 16.4471C1.6875 16.3357 2.0625 15.7732 2.0625 15.574C2.0625 15.2518 1.8457 15.1639 1.57617 15.117C1.39453 15.0877 1.10156 15.1287 1.10156 15.1287C1.1543 15.2049 1.19531 15.2225 1.2832 15.2283C1.17773 15.2811 1.07227 15.3982 1.07227 15.5799C1.07227 15.8611 1.18945 15.9725 1.18945 16.2889C1.18945 16.4647 1.04883 16.6873 1.04883 16.6873C1.30078 16.6639 1.42969 16.4295 1.35352 16.242C1.39453 16.2361 1.42969 16.2479 1.46484 16.2772C1.48242 16.2244 1.45312 16.1658 1.41211 16.1131C1.44141 16.0955 1.46484 16.1072 1.51758 16.1189C1.51172 16.0662 1.48242 16.0076 1.40039 15.9549C1.62891 16.0135 1.76953 15.8553 1.76953 15.6912C1.76953 15.5682 1.68164 15.4744 1.59375 15.4744C1.56445 15.4744 1.52344 15.4861 1.5 15.5037C1.48242 15.4686 1.49414 15.4217 1.51172 15.3865C1.44727 15.4041 1.40625 15.4393 1.43555 15.5154C1.38867 15.5213 1.34766 15.5389 1.32422 15.5682C1.34766 15.6033 1.38867 15.6209 1.43555 15.6209C1.40039 15.6912 1.44141 15.7322 1.49414 15.7674C1.49414 15.7674 1.45898 15.6209 1.55273 15.6209C1.59375 15.6209 1.63476 15.6326 1.63476 15.6971C1.63476 15.7498 1.58789 15.826 1.47656 15.8201C1.37109 15.8143 1.2832 15.7439 1.2832 15.574C1.2832 15.4158 1.41211 15.3338 1.58203 15.3279C1.73437 15.3221 1.85156 15.4041 1.85156 15.5623C1.85156 15.7732 1.54687 16.2479 1.54687 16.4354C1.54687 16.576 1.67578 16.6522 1.79883 16.6522C1.95703 16.6522 2.0918 16.4939 2.0918 16.4939L2.00391 16.3768Z" fill="#F5C933"/>
<path d="M1.96869 6.46289C1.96869 6.11133 2.28509 5.93555 2.53119 5.93555C2.86517 5.93555 3.04095 6.13477 3.04095 6.39258C3.04095 6.53906 3.01166 6.63281 2.9472 6.77344C2.9472 6.77344 2.39642 7.91602 2.18548 8.35547C2.15619 8.4082 2.15033 8.47266 2.15033 8.56641C2.15033 8.70703 2.29095 8.82422 2.43158 8.83008C2.56048 8.83594 2.70697 8.70703 2.70697 8.56641C2.70697 8.39063 2.61908 8.31445 2.52533 8.31445C2.40814 8.31445 2.36713 8.36133 2.36713 8.44336C2.36713 8.50195 2.39642 8.52539 2.43158 8.52539C2.53119 8.52539 2.50189 8.39648 2.50189 8.39648C2.54877 8.4082 2.58978 8.45508 2.56634 8.51953C2.6015 8.52539 2.63666 8.54883 2.66009 8.57813C2.63666 8.60156 2.6015 8.625 2.56634 8.63086C2.58978 8.70703 2.56048 8.74219 2.49017 8.75977C2.50189 8.73047 2.50189 8.70703 2.50189 8.67773C2.39642 8.70703 2.23822 8.66016 2.23822 8.47852C2.23822 8.29688 2.36127 8.15039 2.59564 8.18555C2.54291 8.15625 2.51361 8.10352 2.50775 8.04492C2.54877 8.0625 2.59564 8.0625 2.59564 8.0625C2.56634 8.01563 2.53119 7.97461 2.53119 7.88086C2.5722 7.89844 2.61322 7.93945 2.67181 7.91602C2.58392 7.74609 2.68939 7.51172 2.96478 7.45313C2.86517 7.57031 2.8183 7.69336 2.8183 7.82227C2.8183 8.22656 2.92963 8.29688 2.92963 8.57813C2.92963 8.69531 2.87103 8.82422 2.74798 8.91211V8.90625C2.83002 8.92969 2.87689 8.96484 2.90619 9.01758C2.72455 9.07031 2.46088 9.07031 2.31439 9.01172C2.15033 8.99414 2.039 8.86523 2.00384 8.80664C1.96869 8.74219 1.90423 8.51367 2.00384 8.30859C2.11517 8.08008 2.62494 7.00195 2.78314 6.66211C2.8183 6.5918 2.83588 6.51563 2.83588 6.43359C2.83588 6.22852 2.64252 6.15234 2.53705 6.15234C2.40814 6.15234 2.27338 6.25195 2.27338 6.375C2.27338 6.45117 2.31439 6.49805 2.37884 6.49805C2.52533 6.49805 2.51361 6.375 2.48431 6.29297C2.57806 6.33398 2.6308 6.4043 2.61322 6.48633C2.66595 6.49219 2.71283 6.51563 2.7597 6.56836C2.72455 6.61523 2.67767 6.64453 2.61322 6.65039C2.64252 6.76758 2.56048 6.82031 2.48431 6.84961C2.50775 6.76172 2.52533 6.66211 2.37884 6.66211C2.26752 6.66211 2.18548 6.64453 2.13275 6.57422C2.13275 6.66797 2.12103 7.04297 2.12103 7.04297C2.11517 7.18359 2.30853 7.17773 2.43158 7.13672C2.3847 7.29492 2.29095 7.38281 2.0683 7.36524C2.12103 7.38867 2.17963 7.43555 2.17963 7.53516C2.17963 7.66406 2.07416 7.81055 2.00384 7.85156L1.96869 6.46289Z" fill="#F5C933"/>
<path d="M2.03906 6.46289C2.03906 6.11133 1.72266 5.93555 1.47656 5.93555C1.14258 5.93555 0.966797 6.13477 0.966797 6.39258C0.966797 6.53906 0.996094 6.63281 1.06055 6.77344C1.06055 6.77344 1.61133 7.91602 1.82227 8.35547C1.85156 8.4082 1.85742 8.47266 1.85742 8.56641C1.85742 8.70703 1.7168 8.82422 1.57617 8.83008C1.44727 8.83594 1.30078 8.70703 1.30078 8.56641C1.30078 8.39063 1.38867 8.31445 1.48242 8.31445C1.59961 8.31445 1.64062 8.36133 1.64062 8.44336C1.64062 8.50195 1.61133 8.52539 1.57617 8.52539C1.47656 8.52539 1.50586 8.39648 1.50586 8.39648C1.45898 8.4082 1.41797 8.45508 1.44141 8.51953C1.40625 8.52539 1.37109 8.54883 1.34766 8.57813C1.37109 8.60156 1.40625 8.625 1.44141 8.63086C1.41797 8.70703 1.44727 8.74219 1.51758 8.75977C1.50586 8.73047 1.50586 8.70703 1.50586 8.67773C1.61133 8.70703 1.76953 8.66016 1.76953 8.47852C1.76953 8.29688 1.64648 8.15039 1.41211 8.18555C1.46484 8.15625 1.49414 8.10352 1.5 8.04492C1.45898 8.0625 1.41211 8.0625 1.41211 8.0625C1.44141 8.01563 1.47656 7.97461 1.47656 7.88086C1.43555 7.89844 1.39453 7.93945 1.33594 7.91602C1.42383 7.74609 1.31836 7.51172 1.04297 7.45313C1.14258 7.57031 1.18945 7.69336 1.18945 7.82227C1.18945 8.22656 1.07812 8.29688 1.07812 8.57813C1.07812 8.69531 1.13672 8.82422 1.25977 8.91211V8.90625C1.17773 8.92969 1.13086 8.96484 1.10156 9.01758C1.2832 9.07031 1.54687 9.07031 1.69336 9.01172C1.85742 8.99414 1.96875 8.86523 2.00391 8.80664C2.03906 8.74219 2.10352 8.51367 2.00391 8.30859C1.89258 8.08008 1.38281 7.00195 1.22461 6.66211C1.18945 6.5918 1.17187 6.51563 1.17187 6.43359C1.17187 6.22852 1.36523 6.15234 1.4707 6.15234C1.59961 6.15234 1.73437 6.25195 1.73437 6.375C1.73437 6.45117 1.69336 6.49805 1.62891 6.49805C1.48242 6.49805 1.49414 6.375 1.52344 6.29297C1.42969 6.33398 1.37695 6.4043 1.39453 6.48633C1.3418 6.49219 1.29492 6.51563 1.24805 6.56836C1.2832 6.61523 1.33008 6.64453 1.39453 6.65039C1.36523 6.76758 1.44727 6.82031 1.52344 6.84961C1.5 6.76172 1.48242 6.66211 1.62891 6.66211C1.74023 6.66211 1.82227 6.64453 1.875 6.57422C1.875 6.66797 1.88672 7.04297 1.88672 7.04297C1.89258 7.18359 1.69922 7.17773 1.57617 7.13672C1.62305 7.29492 1.7168 7.38281 1.93945 7.36524C1.88672 7.38867 1.82812 7.43555 1.82812 7.53516C1.82812 7.66406 1.93359 7.81055 2.00391 7.85156L2.03906 6.46289Z" fill="#F5C933"/>
<path d="M2.03906 5.40799C2.03906 5.75955 1.72266 5.93533 1.47656 5.93533C1.14258 5.93533 0.966797 5.73611 0.966797 5.4783C0.966797 5.33182 0.996094 5.23807 1.06055 5.09744C1.06055 5.09744 1.61133 3.95486 1.82227 3.51541C1.85156 3.46268 1.85742 3.39822 1.85742 3.30447C1.85742 3.16385 1.7168 3.04666 1.57617 3.0408C1.44727 3.03494 1.30078 3.16385 1.30078 3.30447C1.30078 3.48025 1.38867 3.55643 1.48242 3.55643C1.59961 3.55643 1.64062 3.50955 1.64062 3.42752C1.64062 3.36893 1.61133 3.34549 1.57617 3.34549C1.47656 3.34549 1.50586 3.48025 1.50586 3.48025C1.45898 3.46854 1.41797 3.42166 1.44141 3.35721C1.40625 3.35135 1.37109 3.32791 1.34766 3.29861C1.37109 3.27518 1.40625 3.25174 1.44141 3.24588C1.41797 3.16971 1.44727 3.13455 1.51758 3.11697C1.50586 3.14627 1.50586 3.17557 1.50586 3.199C1.61133 3.16971 1.76953 3.21658 1.76953 3.39822C1.76953 3.57986 1.64648 3.72635 1.41211 3.69119C1.46484 3.72049 1.49414 3.77322 1.5 3.83182C1.45898 3.81424 1.41211 3.81424 1.41211 3.81424C1.44141 3.86111 1.47656 3.90213 1.47656 3.99588C1.43555 3.9783 1.39453 3.93729 1.33594 3.96072C1.42383 4.13064 1.31836 4.36502 1.04297 4.42361C1.14258 4.30643 1.18945 4.18338 1.18945 4.05447C1.18945 3.65018 1.07812 3.57986 1.07812 3.29861C1.07812 3.18143 1.13672 3.05252 1.25977 2.96463V2.97049C1.17773 2.94705 1.13086 2.91189 1.10156 2.85916C1.2832 2.80643 1.54687 2.80643 1.69336 2.86502C1.85742 2.8826 1.96875 3.0115 2.00391 3.0701C2.03906 3.13455 2.10352 3.36307 2.00391 3.56814C1.89258 3.79666 1.38281 4.87479 1.22461 5.21463C1.18945 5.28494 1.17187 5.36111 1.17187 5.44315C1.17187 5.64822 1.36523 5.7244 1.4707 5.7244C1.59961 5.7244 1.73437 5.62479 1.73437 5.50174C1.73437 5.42557 1.69336 5.37869 1.62891 5.37869C1.48242 5.37869 1.49414 5.50174 1.52344 5.58377C1.42969 5.54275 1.37695 5.47244 1.39453 5.39041C1.3418 5.38455 1.29492 5.36111 1.24805 5.30838C1.2832 5.2615 1.33008 5.23221 1.39453 5.22635C1.36523 5.10916 1.44727 5.05643 1.52344 5.02713C1.5 5.11502 1.48242 5.21463 1.62891 5.21463C1.74023 5.21463 1.82227 5.23221 1.875 5.30252C1.875 5.20877 1.88672 4.83377 1.88672 4.83377C1.89258 4.69314 1.69922 4.699 1.57617 4.74002C1.62305 4.57596 1.7168 4.49393 1.93945 4.5115C1.88672 4.48807 1.82812 4.44119 1.82812 4.34158C1.82812 4.21268 1.93359 4.06619 2.00391 4.02518L2.03906 5.40799Z" fill="#F5C933"/>
<path d="M1.96869 5.40799C1.96869 5.75955 2.28509 5.93533 2.53119 5.93533C2.86517 5.93533 3.04095 5.73611 3.04095 5.4783C3.04095 5.33182 3.01166 5.23807 2.9472 5.09744C2.9472 5.09744 2.39642 3.95486 2.18548 3.51541C2.15619 3.46268 2.15033 3.39822 2.15033 3.30447C2.15033 3.16385 2.29095 3.04666 2.43158 3.0408C2.56048 3.03494 2.70697 3.16385 2.70697 3.30447C2.70697 3.48025 2.61908 3.55643 2.52533 3.55643C2.40814 3.55643 2.36713 3.50955 2.36713 3.42752C2.36713 3.36893 2.39642 3.34549 2.43158 3.34549C2.53119 3.34549 2.50189 3.48025 2.50189 3.48025C2.54877 3.46854 2.58978 3.42166 2.56634 3.35721C2.6015 3.35135 2.63666 3.32791 2.66009 3.29861C2.63666 3.27518 2.6015 3.25174 2.56634 3.24588C2.58978 3.16971 2.56048 3.13455 2.49017 3.11697C2.50189 3.14627 2.50189 3.17557 2.50189 3.199C2.39642 3.16971 2.23822 3.21658 2.23822 3.39822C2.23822 3.57986 2.36127 3.72635 2.59564 3.69119C2.54291 3.72049 2.51361 3.77322 2.50775 3.83182C2.54877 3.81424 2.59564 3.81424 2.59564 3.81424C2.56634 3.86111 2.53119 3.90213 2.53119 3.99588C2.5722 3.9783 2.61322 3.93729 2.67181 3.96072C2.58392 4.13064 2.68939 4.36502 2.96478 4.42361C2.86517 4.30643 2.8183 4.18338 2.8183 4.05447C2.8183 3.65018 2.92963 3.57986 2.92963 3.29861C2.92963 3.18143 2.87103 3.05252 2.74798 2.96463V2.97049C2.83002 2.94705 2.87689 2.91189 2.90619 2.85916C2.72455 2.80643 2.46088 2.80643 2.31439 2.86502C2.15033 2.8826 2.039 3.0115 2.00384 3.0701C1.96869 3.13455 1.90423 3.36307 2.00384 3.56814C2.11517 3.79666 2.62494 4.87479 2.78314 5.21463C2.8183 5.28494 2.83588 5.36111 2.83588 5.44315C2.83588 5.64822 2.64252 5.7244 2.53705 5.7244C2.40814 5.7244 2.27338 5.62479 2.27338 5.50174C2.27338 5.42557 2.31439 5.37869 2.37884 5.37869C2.52533 5.37869 2.51361 5.50174 2.48431 5.58377C2.57806 5.54275 2.6308 5.47244 2.61322 5.39041C2.66595 5.38455 2.71283 5.36111 2.7597 5.30838C2.72455 5.2615 2.67767 5.23221 2.61322 5.22635C2.64252 5.10916 2.56048 5.05643 2.48431 5.02713C2.50775 5.11502 2.52533 5.21463 2.37884 5.21463C2.26752 5.21463 2.18548 5.23221 2.13275 5.30252C2.13275 5.20877 2.12103 4.83377 2.12103 4.83377C2.11517 4.69314 2.30853 4.699 2.43158 4.74002C2.3847 4.57596 2.29095 4.49393 2.0683 4.5115C2.12103 4.48807 2.17963 4.44119 2.17963 4.34158C2.17963 4.21268 2.07416 4.06619 2.00384 4.02518L1.96869 5.40799Z" fill="#F5C933"/>
<path d="M2.03906 11.5428C2.03906 11.8943 1.72266 12.0701 1.47656 12.0701C1.14258 12.0701 0.966797 11.8709 0.966797 11.6131C0.966797 11.4666 0.996094 11.3728 1.06055 11.2322C1.06055 11.2322 1.61133 10.0896 1.82227 9.65018C1.85156 9.59744 1.85742 9.53299 1.85742 9.43924C1.85742 9.29861 1.7168 9.18143 1.57617 9.17557C1.44727 9.16971 1.30078 9.29861 1.30078 9.43924C1.30078 9.61502 1.38867 9.69119 1.48242 9.69119C1.59961 9.69119 1.64062 9.64432 1.64062 9.56229C1.64062 9.50955 1.61133 9.48025 1.57617 9.48025C1.47656 9.48025 1.50586 9.61502 1.50586 9.61502C1.45898 9.6033 1.41797 9.55643 1.44141 9.49197C1.40625 9.48611 1.37109 9.46268 1.34766 9.43338C1.37109 9.40994 1.40625 9.3865 1.44141 9.38064C1.41797 9.30447 1.44727 9.26932 1.51758 9.25174C1.50586 9.28103 1.50586 9.31033 1.50586 9.33377C1.61133 9.30447 1.76953 9.35135 1.76953 9.53299C1.76953 9.71463 1.64648 9.86111 1.41211 9.82596C1.46484 9.85525 1.49414 9.90799 1.5 9.96658C1.45898 9.949 1.41211 9.949 1.41211 9.949C1.44141 9.99588 1.47656 10.0369 1.47656 10.1306C1.43555 10.1131 1.39453 10.0721 1.33594 10.0955C1.42383 10.2654 1.31836 10.4998 1.04297 10.5584C1.14258 10.4412 1.18945 10.3181 1.18945 10.1892C1.18945 9.78494 1.07812 9.71463 1.07812 9.43338C1.07812 9.31619 1.13672 9.18729 1.25977 9.0994V9.10525C1.17773 9.08182 1.13086 9.04666 1.10156 8.99393C1.2832 8.94119 1.54687 8.94119 1.69336 8.99978C1.85742 9.01736 1.96875 9.14627 2.00391 9.20486C2.03906 9.26932 2.10352 9.49783 2.00391 9.70291C1.89258 9.93143 1.38281 11.0096 1.22461 11.3494C1.18945 11.4197 1.17187 11.4959 1.17187 11.5779C1.17187 11.783 1.36523 11.8592 1.4707 11.8592C1.59961 11.8592 1.73437 11.7596 1.73437 11.6365C1.73437 11.5603 1.69336 11.5135 1.62891 11.5135C1.48242 11.5135 1.49414 11.6365 1.52344 11.7185C1.42969 11.6775 1.37695 11.6072 1.39453 11.5252C1.3418 11.5193 1.29492 11.4959 1.24805 11.4431C1.2832 11.3963 1.33008 11.367 1.39453 11.3611C1.36523 11.2439 1.44727 11.1912 1.52344 11.1619C1.5 11.2498 1.48242 11.3494 1.62891 11.3494C1.74023 11.3494 1.82227 11.367 1.875 11.4373C1.875 11.3435 1.88672 10.9685 1.88672 10.9685C1.89258 10.8279 1.69922 10.8338 1.57617 10.8748C1.62305 10.7166 1.7168 10.6287 1.93945 10.6463C1.88672 10.6228 1.82812 10.576 1.82812 10.4763C1.82812 10.3474 1.93359 10.201 2.00391 10.1541L2.03906 11.5428Z" fill="#F5C933"/>
<path d="M1.96869 11.5428C1.96869 11.8943 2.28509 12.0701 2.53119 12.0701C2.86517 12.0701 3.04095 11.8709 3.04095 11.6131C3.04095 11.4666 3.01166 11.3728 2.9472 11.2322C2.9472 11.2322 2.39642 10.0896 2.18548 9.65018C2.15619 9.59744 2.15033 9.53299 2.15033 9.43924C2.15033 9.29861 2.29095 9.18143 2.43158 9.17557C2.56048 9.16971 2.70697 9.29861 2.70697 9.43924C2.70697 9.61502 2.61908 9.69119 2.52533 9.69119C2.40814 9.69119 2.36713 9.64432 2.36713 9.56229C2.36713 9.50955 2.39642 9.48025 2.43158 9.48025C2.53119 9.48025 2.50189 9.61502 2.50189 9.61502C2.54877 9.6033 2.58978 9.55643 2.56634 9.49197C2.6015 9.48611 2.63666 9.46268 2.66009 9.43338C2.63666 9.40994 2.6015 9.3865 2.56634 9.38064C2.58978 9.30447 2.56048 9.26932 2.49017 9.25174C2.50189 9.28103 2.50189 9.31033 2.50189 9.33377C2.39642 9.30447 2.23822 9.35135 2.23822 9.53299C2.23822 9.71463 2.36127 9.86111 2.59564 9.82596C2.54291 9.85525 2.51361 9.90799 2.50775 9.96658C2.54877 9.949 2.59564 9.949 2.59564 9.949C2.56634 9.99588 2.53119 10.0369 2.53119 10.1306C2.5722 10.1131 2.61322 10.0721 2.67181 10.0955C2.58392 10.2654 2.68939 10.4998 2.96478 10.5584C2.86517 10.4412 2.8183 10.3181 2.8183 10.1892C2.8183 9.78494 2.92963 9.71463 2.92963 9.43338C2.92963 9.31619 2.87103 9.18729 2.74798 9.0994V9.10525C2.83002 9.08182 2.87689 9.04666 2.90619 8.99393C2.72455 8.94119 2.46088 8.94119 2.31439 8.99978C2.15033 9.01736 2.039 9.14627 2.00384 9.20486C1.96869 9.26932 1.90423 9.49783 2.00384 9.70291C2.11517 9.93143 2.62494 11.0096 2.78314 11.3494C2.8183 11.4197 2.83588 11.4959 2.83588 11.5779C2.83588 11.783 2.64252 11.8592 2.53705 11.8592C2.40814 11.8592 2.27338 11.7596 2.27338 11.6365C2.27338 11.5603 2.31439 11.5135 2.37884 11.5135C2.52533 11.5135 2.51361 11.6365 2.48431 11.7185C2.57806 11.6775 2.6308 11.6072 2.61322 11.5252C2.66595 11.5193 2.71283 11.4959 2.7597 11.4431C2.72455 11.3963 2.67767 11.367 2.61322 11.3611C2.64252 11.2439 2.56048 11.1912 2.48431 11.1619C2.50775 11.2498 2.52533 11.3494 2.37884 11.3494C2.26752 11.3494 2.18548 11.367 2.13275 11.4373C2.13275 11.3435 2.12103 10.9685 2.12103 10.9685C2.11517 10.8279 2.30853 10.8338 2.43158 10.8748C2.3847 10.7166 2.29095 10.6287 2.0683 10.6463C2.12103 10.6228 2.17963 10.576 2.17963 10.4763C2.17963 10.3474 2.07416 10.201 2.00384 10.1541L1.96869 11.5428Z" fill="#F5C933"/>
<path d="M2.00391 1.62305C2.00391 1.62305 2.16797 1.48242 2.22656 1.55273C2.32031 1.66406 1.94531 2.22656 1.94531 2.42578C1.94531 2.74805 2.16211 2.83594 2.43164 2.88281C2.61328 2.91211 2.90625 2.87109 2.90625 2.87109C2.85352 2.79492 2.8125 2.77734 2.72461 2.77148C2.83008 2.71875 2.93555 2.60156 2.93555 2.41992C2.93555 2.13867 2.81836 2.02734 2.81836 1.71094C2.81836 1.53516 2.95898 1.3125 2.95898 1.3125C2.70703 1.33594 2.57812 1.57031 2.6543 1.75781C2.61328 1.76367 2.57813 1.75195 2.54297 1.72266C2.52539 1.77539 2.55469 1.83398 2.5957 1.88672C2.56641 1.9043 2.54297 1.89258 2.49023 1.88086C2.49609 1.93359 2.52539 1.99219 2.60742 2.04492C2.37891 1.98633 2.23828 2.14453 2.23828 2.30859C2.23828 2.43164 2.32617 2.52539 2.41406 2.52539C2.44336 2.52539 2.48437 2.51367 2.50781 2.49609C2.52539 2.53125 2.51367 2.57813 2.49609 2.61328C2.56055 2.5957 2.60156 2.56055 2.57227 2.48438C2.61914 2.47852 2.66016 2.46094 2.68359 2.43164C2.66016 2.39648 2.61914 2.37891 2.57227 2.37891C2.60742 2.30859 2.56641 2.26758 2.51367 2.23242C2.51367 2.23242 2.54883 2.37891 2.45508 2.37891C2.41406 2.37891 2.37305 2.36719 2.37305 2.30273C2.37305 2.25 2.41992 2.17383 2.53125 2.17969C2.63672 2.18555 2.72461 2.25586 2.72461 2.42578C2.72461 2.58398 2.5957 2.66602 2.42578 2.67188C2.27344 2.67773 2.15625 2.5957 2.15625 2.4375C2.15625 2.22656 2.46094 1.75195 2.46094 1.56445C2.46094 1.42383 2.33203 1.34766 2.20898 1.34766C2.05078 1.34766 1.91602 1.50586 1.91602 1.50586L2.00391 1.62305Z" fill="#F5C933"/>
<path d="M2.00391 1.62305C2.00391 1.62305 1.83984 1.48242 1.78125 1.55273C1.6875 1.66406 2.0625 2.22656 2.0625 2.42578C2.0625 2.74805 1.8457 2.83594 1.57617 2.88281C1.39453 2.91211 1.10156 2.87109 1.10156 2.87109C1.1543 2.79492 1.19531 2.77734 1.2832 2.77148C1.17773 2.71875 1.07227 2.60156 1.07227 2.41992C1.07227 2.13867 1.18945 2.02734 1.18945 1.71094C1.18945 1.53516 1.04883 1.3125 1.04883 1.3125C1.30078 1.33594 1.42969 1.57031 1.35352 1.75781C1.39453 1.76367 1.42969 1.75195 1.46484 1.72266C1.48242 1.77539 1.45312 1.83398 1.41211 1.88672C1.44141 1.9043 1.46484 1.89258 1.51758 1.88086C1.51172 1.93359 1.48242 1.99219 1.40039 2.04492C1.62891 1.98633 1.76953 2.14453 1.76953 2.30859C1.76953 2.43164 1.68164 2.52539 1.59375 2.52539C1.56445 2.52539 1.52344 2.51367 1.5 2.49609C1.48242 2.53125 1.49414 2.57813 1.51172 2.61328C1.44727 2.5957 1.40625 2.56055 1.43555 2.48438C1.38867 2.47852 1.34766 2.46094 1.32422 2.43164C1.34766 2.39648 1.38867 2.37891 1.43555 2.37891C1.40039 2.30859 1.44141 2.26758 1.49414 2.23242C1.49414 2.23242 1.45898 2.37891 1.55273 2.37891C1.59375 2.37891 1.63476 2.36719 1.63476 2.30273C1.63476 2.25 1.58789 2.17383 1.47656 2.17969C1.37109 2.18555 1.2832 2.25586 1.2832 2.42578C1.2832 2.58398 1.41211 2.66602 1.58203 2.67188C1.73437 2.67773 1.85156 2.5957 1.85156 2.4375C1.85156 2.22656 1.54687 1.75195 1.54687 1.56445C1.54687 1.42383 1.67578 1.34766 1.79883 1.34766C1.95703 1.34766 2.0918 1.50586 2.0918 1.50586L2.00391 1.62305Z" fill="#F5C933"/>
<path d="M1.68165 11.5131C1.68165 11.4838 1.6172 11.5014 1.57032 11.5131C1.52345 11.5248 1.49415 11.5483 1.50001 11.5717C1.50001 11.601 1.5586 11.5834 1.60548 11.5776C1.65235 11.5658 1.68165 11.5424 1.68165 11.5131Z" fill="#50AEC4"/>
<path d="M1.5292 11.6074H1.51162L1.48233 11.5723C1.47647 11.5371 1.51162 11.5078 1.56436 11.4902C1.59951 11.4844 1.62881 11.4727 1.65225 11.4727H1.66983L1.69912 11.502C1.69912 11.5371 1.66983 11.5723 1.61123 11.584C1.57608 11.6016 1.55264 11.6074 1.5292 11.6074Z" fill="#50AEC4"/>
<path d="M15.6623 12.1401C13.3127 12.1459 11.6604 10.2651 11.5139 8.38422C11.5139 8.38422 11.4201 8.34906 11.4084 8.43109C11.3791 8.63031 11.4611 9.24554 11.4318 9.19867C11.3732 9.1225 10.9455 7.97406 10.8693 8.09711C10.7639 8.26703 11.3498 9.57367 11.3147 9.60883C11.1975 9.74945 10.5236 8.33148 10.4709 8.43695C10.2658 8.83539 11.3029 10.1186 11.2912 10.1713C11.2678 10.3412 10.5061 9.47992 10.4416 9.57367C10.2951 9.78461 11.2619 10.5405 11.3147 10.5991C11.4611 10.7748 10.7873 10.2944 10.7639 10.4584C10.7463 10.5932 11.092 10.8686 11.2971 10.9858C11.5022 11.103 11.5725 11.0678 11.6311 11.1674C11.6779 11.2436 11.2443 11.1205 11.2561 11.2143C11.2795 11.4018 11.7307 11.3608 11.801 11.4487C11.8713 11.5307 11.4904 11.4662 11.508 11.5366C11.5314 11.6596 11.9182 11.6772 11.924 11.7299C11.9299 11.7827 11.6838 11.7475 11.7014 11.8471C11.7131 11.935 12.0881 11.9174 12.1818 11.976C12.2756 12.0346 11.8479 11.9819 12.1818 12.1518C12.5158 12.3159 12.8967 12.5034 13.4182 12.603C13.9397 12.7026 14.2033 12.5913 14.2209 12.5561C14.2385 12.5209 13.9748 12.5854 13.6057 12.5151C13.2365 12.4506 12.7443 12.2162 12.5393 12.0991C12.4748 12.0639 12.7385 11.9877 12.6799 11.9174C12.6272 11.8471 12.4162 11.9291 12.3342 11.8237C12.2814 11.7592 12.4338 11.7592 12.4279 11.7123C12.4221 11.6713 12.1408 11.6069 12.0881 11.5366C12.0354 11.4662 12.217 11.478 12.2229 11.4252C12.2287 11.3901 12.0412 11.3315 12.0295 11.2846C12.0178 11.2377 12.2346 11.2495 12.135 11.1909C12.0236 11.1264 11.7307 11.0502 11.6721 10.9448C11.6193 10.8393 11.9006 10.9623 11.8244 10.8569C11.7775 10.7866 11.5022 10.6752 11.4436 10.5112C11.4025 10.4057 11.6369 10.4995 11.6369 10.4291C11.6428 10.3237 11.5022 10.3881 11.4553 10.0776C11.4377 9.97797 11.6369 10.0424 11.6369 10.0424L11.6662 9.98969C11.6662 9.98969 11.8947 10.1186 12.1936 10.4643C12.4924 10.81 12.5744 11.1381 12.8557 11.3725C12.9904 11.4838 12.9904 11.3256 13.2951 11.519C13.5998 11.7065 13.7287 11.8413 14.0451 12.1166C14.092 12.1518 14.2971 12.0815 14.9123 12.2045C15.2404 12.2748 15.3107 12.4448 15.3107 12.4448C15.3107 12.4506 15.4924 12.3334 15.5803 12.1987C15.6154 12.1459 15.6506 12.1987 15.6564 12.187C15.7033 12.1811 15.6623 12.1401 15.6623 12.1401Z" fill="#F5C933"/>
<path d="M13.8047 12.6674C13.6816 12.6674 13.5468 12.6556 13.4062 12.6264C12.8672 12.5209 12.4629 12.3158 12.1699 12.1693C12.0644 12.1166 12.0293 12.0814 12.0293 12.0521C12.0351 12.017 12.082 12.0111 12.1289 11.9994C12.1465 11.9935 12.1699 11.9935 12.1757 11.9877C12.1289 11.9701 12.0351 11.9584 11.9472 11.9467C11.8066 11.9291 11.6894 11.9115 11.6777 11.8529V11.8471L11.6894 11.806C11.7129 11.7709 11.7773 11.7592 11.83 11.7533C11.8535 11.7474 11.9004 11.7416 11.9062 11.7357C11.9004 11.724 11.83 11.7064 11.7773 11.6947C11.6601 11.6654 11.5078 11.6303 11.4902 11.5424C11.5136 11.4896 11.5722 11.4838 11.6601 11.4838C11.707 11.4838 11.7832 11.4779 11.789 11.4662C11.7597 11.431 11.6777 11.4193 11.5898 11.4017C11.4316 11.3724 11.25 11.3431 11.2382 11.2142C11.2851 11.1264 11.373 11.1556 11.4785 11.1674C11.5195 11.1732 11.5547 11.1732 11.584 11.1732C11.584 11.1205 11.5547 11.1088 11.4902 11.0853C11.4433 11.0678 11.3789 11.0443 11.291 10.9916C11.0976 10.8803 10.7285 10.599 10.7461 10.4467C10.7461 10.4291 10.7578 10.3939 10.8105 10.3939C10.8925 10.3939 11.0507 10.476 11.1738 10.5404C11.2382 10.5756 11.3086 10.6107 11.3261 10.6107C11.291 10.5931 11.2558 10.558 11.1972 10.517C10.7519 10.1303 10.3066 9.7201 10.4179 9.55604C10.5058 9.53846 10.6347 9.65565 10.8457 9.84901C11.0039 9.98963 11.1972 10.1713 11.2558 10.1713C11.2558 10.1537 11.1972 10.0599 11.1269 9.96034C10.8515 9.5619 10.2773 8.72987 10.4414 8.41932C10.5117 8.40175 10.5879 8.53651 10.7929 8.88807C10.957 9.16932 11.2031 9.5912 11.2793 9.5912C11.2851 9.56776 11.2148 9.38612 11.1504 9.20448C10.9394 8.64784 10.7695 8.18495 10.8398 8.07362C10.9336 8.05018 11.0683 8.33143 11.3027 8.88221C11.3496 8.9994 11.3965 9.10487 11.4199 9.15174C11.4082 9.11073 11.4023 9.0287 11.3965 8.95253C11.3789 8.76503 11.3613 8.52479 11.3789 8.41346C11.3847 8.36659 11.414 8.34315 11.4609 8.34315C11.4843 8.34315 11.5078 8.34901 11.5078 8.35487C11.666 10.2123 13.2422 12.1107 15.6386 12.1107C15.6679 12.1166 15.6914 12.1459 15.6914 12.1752V12.181L15.6679 12.2162L15.6386 12.1986L15.6093 12.2103C15.5039 12.3568 15.3222 12.4799 15.3047 12.4799C15.2812 12.4506 15.205 12.2982 14.9004 12.2338C14.5605 12.1635 14.3496 12.1576 14.2207 12.1576H14.1093C14.0625 12.1576 14.039 12.1576 14.0215 12.14L13.8398 11.9818C13.6406 11.8119 13.5117 11.6947 13.2773 11.5482C13.1367 11.4603 13.0605 11.4486 13.0136 11.4486H12.955C12.9199 11.4486 12.8847 11.4428 12.8379 11.4017C12.6797 11.267 12.58 11.1088 12.4746 10.933C12.3867 10.7924 12.2988 10.6459 12.1699 10.4877C11.8769 10.1478 11.6484 10.0189 11.6425 10.0189V10.0658C11.6191 10.0775 11.5605 10.0541 11.5078 10.0541C11.4843 10.0541 11.4726 10.0599 11.4668 10.0658C11.4902 10.2709 11.5488 10.3178 11.5898 10.3471C11.6191 10.3705 11.6484 10.3881 11.6425 10.4408C11.6425 10.4877 11.584 10.4877 11.5605 10.4877H11.4902C11.455 10.4877 11.4433 10.4935 11.4375 10.4994C11.4726 10.6166 11.6015 10.7045 11.6953 10.7689C11.7539 10.8041 11.7949 10.8334 11.8125 10.8627L11.8183 10.8685L11.8242 10.9096C11.8125 10.9271 11.789 10.9271 11.7715 10.9271L11.6836 10.9213C11.6953 11.0092 11.8418 11.0678 11.959 11.1146C12.0175 11.1381 12.0761 11.1615 12.1113 11.1791C12.1289 11.1908 12.1523 11.2025 12.1465 11.226C12.1406 11.2494 12.1113 11.2553 12.0703 11.267C12.0527 11.2728 12.0175 11.2787 12.0117 11.2846C12.0175 11.2963 12.0703 11.3314 12.1113 11.349C12.1699 11.3842 12.2109 11.4017 12.205 11.431C12.1992 11.4603 12.1582 11.4721 12.123 11.4838C12.0996 11.4896 12.0644 11.5014 12.0644 11.5131C12.0937 11.5599 12.1933 11.601 12.2695 11.6303C12.3691 11.6713 12.4101 11.6889 12.416 11.7123C12.416 11.7416 12.3867 11.7533 12.3574 11.765C12.3398 11.7709 12.3164 11.7826 12.3105 11.7943C12.3574 11.8588 12.4336 11.8588 12.5039 11.8588C12.5683 11.8588 12.6328 11.8588 12.6621 11.8998L12.6738 11.9408C12.6679 11.976 12.6211 12.0111 12.5742 12.0404C12.5507 12.0521 12.5215 12.0756 12.5156 12.0814C12.6972 12.1869 13.1953 12.4271 13.5761 12.4974C13.6992 12.5209 13.8222 12.5326 13.957 12.5326C14.0097 12.5326 14.0566 12.5326 14.0918 12.5326H14.1504C14.1797 12.5326 14.1972 12.5326 14.2031 12.5502C14.209 12.6088 14.0683 12.6674 13.8047 12.6674ZM11.3437 11.2025C11.291 11.2025 11.2793 11.2142 11.2734 11.2142C11.2851 11.3256 11.455 11.3549 11.5957 11.3783C11.7011 11.3959 11.7773 11.4076 11.8125 11.4486L11.8183 11.4545V11.4896C11.8066 11.5189 11.748 11.5248 11.6543 11.5248C11.6074 11.5248 11.5254 11.5306 11.5195 11.5424C11.5312 11.6068 11.6777 11.642 11.7832 11.6654C11.8828 11.6889 11.9297 11.7064 11.9355 11.7357C11.9414 11.7767 11.8886 11.7826 11.83 11.7943C11.7832 11.8002 11.7304 11.8119 11.7129 11.8295C11.7129 11.8881 11.8476 11.9056 11.9472 11.9174C12.0468 11.9291 12.1406 11.9408 12.1816 11.9701L12.1992 12.0053C12.1933 12.0287 12.1699 12.0346 12.123 12.0404C12.1054 12.0463 12.0586 12.0521 12.0527 12.0639C12.0527 12.0639 12.0527 12.0873 12.1699 12.1459C12.4629 12.2924 12.8613 12.4916 13.4004 12.5971C13.541 12.6264 13.6699 12.6381 13.7929 12.6381C14.0507 12.6381 14.1738 12.5736 14.1855 12.5619L14.1035 12.5795C14.0683 12.5795 14.0215 12.5795 13.9687 12.5795C13.834 12.5795 13.705 12.5678 13.582 12.5443C13.2011 12.474 12.6972 12.2279 12.5097 12.1224C12.4922 12.0697 12.5215 12.0463 12.5625 12.0228C12.5976 11.9994 12.6445 11.9701 12.6504 11.9467C12.6269 11.9056 12.5742 11.9056 12.5156 11.9056C12.4394 11.9056 12.3515 11.9056 12.2988 11.8412L12.2871 11.7943C12.2929 11.765 12.3222 11.7533 12.3515 11.7416C12.3632 11.7357 12.3867 11.724 12.3925 11.7181C12.3867 11.7064 12.3164 11.683 12.2695 11.6654C12.1816 11.6303 12.0879 11.5951 12.0586 11.5541L12.0468 11.5072C12.0586 11.4779 12.0937 11.4721 12.1289 11.4603C12.1465 11.4545 12.1875 11.4428 12.1875 11.4369C12.1816 11.431 12.1406 11.4076 12.1113 11.39C12.0468 11.3549 12.0058 11.3314 12 11.3021C12.0175 11.2553 12.0468 11.2494 12.082 11.2435C12.0996 11.2377 12.123 11.2318 12.1289 11.226C12.0761 11.2025 12.0175 11.1791 11.959 11.1556C11.83 11.1029 11.6777 11.0443 11.6367 10.9681L11.6308 10.9564V10.9154C11.6484 10.8803 11.6953 10.892 11.7363 10.8978H11.7773C11.7715 10.8627 11.7304 10.8334 11.6777 10.7982C11.5722 10.7279 11.4433 10.6459 11.4082 10.5346C11.4023 10.5111 11.4023 10.4935 11.4082 10.4818C11.4257 10.4584 11.455 10.4584 11.4902 10.4584H11.5605C11.5781 10.4584 11.6074 10.4584 11.6074 10.4467C11.6074 10.4115 11.5957 10.4056 11.5664 10.3822C11.5195 10.3471 11.4492 10.2943 11.4257 10.101C11.4199 10.0775 11.4257 10.0599 11.4375 10.0482C11.4785 10.0072 11.625 10.0482 11.6308 10.0482L11.6367 10.0014C11.6718 10.0014 11.9004 10.1303 12.1933 10.4701C12.3281 10.6283 12.416 10.7748 12.5039 10.9154C12.6035 11.0853 12.7031 11.2494 12.8554 11.3783C12.8965 11.4135 12.9257 11.4193 12.955 11.4193H13.0136C13.0722 11.4193 13.1484 11.431 13.2949 11.5248C13.5351 11.6771 13.664 11.7885 13.8632 11.9642L14.0449 12.1224C14.0566 12.1283 14.0918 12.1283 14.1093 12.1283H14.2207C14.3496 12.1283 14.5664 12.1342 14.9062 12.2045C15.2402 12.2748 15.3164 12.4506 15.3164 12.4564C15.3164 12.4389 15.4804 12.3275 15.5566 12.2103C15.5683 12.1869 15.5859 12.1752 15.6093 12.1752L15.6445 12.1869V12.1342L15.6269 12.1517C13.2187 12.1517 11.625 10.2416 11.4726 8.38417C11.4668 8.38417 11.455 8.38417 11.4492 8.38417C11.4199 8.38417 11.4082 8.39589 11.4023 8.42518C11.3847 8.53651 11.4082 8.77674 11.4199 8.95839C11.4375 9.16346 11.4375 9.19862 11.4257 9.21034C11.3789 9.18104 11.332 9.08143 11.2617 8.90565C11.1504 8.64784 10.9218 8.10878 10.8632 8.10292C10.7988 8.20839 11.039 8.82948 11.1797 9.20448C11.3086 9.55018 11.3261 9.60292 11.3086 9.62049L11.2734 9.63807C11.1855 9.63807 11.0097 9.35096 10.7578 8.91737C10.6347 8.70643 10.4941 8.4662 10.459 8.45448C10.3183 8.74745 10.8808 9.5619 11.1504 9.95448C11.2675 10.1303 11.291 10.1654 11.291 10.183V10.2006L11.25 10.224C11.1855 10.224 11.039 10.101 10.8164 9.89003C10.664 9.7494 10.4882 9.5912 10.4414 9.5912C10.33 9.7494 10.9922 10.3178 11.209 10.5053C11.2617 10.5521 11.3027 10.5873 11.3086 10.5932C11.3261 10.6166 11.3379 10.6342 11.332 10.6459C11.2851 10.6576 11.2382 10.6342 11.1445 10.5873C11.0273 10.5287 10.8691 10.4467 10.7929 10.4467C10.7636 10.4467 10.7636 10.4584 10.7578 10.4642C10.7402 10.5814 11.0625 10.8451 11.2851 10.974C11.373 11.0267 11.4316 11.0443 11.4785 11.0619C11.5429 11.0853 11.584 11.0971 11.6191 11.1615C11.6015 11.267 11.5254 11.2142 11.4492 11.2084C11.4316 11.2025 11.3847 11.2025 11.3437 11.2025Z" fill="#F5C933"/>
<path d="M17.244 12.8436C17.1561 12.8261 17.1679 12.8964 17.1679 12.8964C17.1737 12.9843 17.1151 13.0722 17.0448 13.0897C16.9921 13.1015 17.0155 13.1425 16.9979 13.1835L16.7694 13.1718C16.4061 13.371 15.955 13.4354 15.4042 13.3768C15.4042 13.3768 15.2929 13.4647 15.1874 13.5526C15.0819 13.6405 15.0175 13.664 14.994 13.7343C14.9706 13.8046 15.0468 13.8456 15.1405 13.8456C15.2343 13.8456 15.3573 13.7577 15.3573 13.7577C15.3573 13.7577 15.3749 13.828 15.4569 13.8397C15.5448 13.8456 15.703 13.787 15.703 13.787C15.703 13.787 15.8378 13.8456 15.9374 13.8339C16.037 13.8222 16.1249 13.7577 16.1249 13.7577C16.1249 13.7577 16.1542 13.8749 16.2538 13.8808C16.3534 13.8866 16.5116 13.7577 16.5116 13.7577C16.5116 13.7577 16.5878 13.8456 16.6757 13.8339C16.7694 13.8222 16.8807 13.7167 16.8807 13.7167C16.8807 13.7167 16.9921 13.7636 17.1034 13.7343C17.2089 13.705 17.3143 13.5936 17.3143 13.5936C17.3143 13.5936 17.4081 13.6757 17.496 13.6464C17.5839 13.6171 17.6425 13.4999 17.6425 13.4999C17.6425 13.4999 17.8768 13.5936 18.0292 13.5175C18.1405 13.4647 18.1112 13.2948 18.1112 13.2948C18.1112 13.2948 18.7499 13.3886 18.7206 12.9725C18.7147 12.914 17.6952 12.9257 17.244 12.8436Z" fill="#F5C933"/>
<path d="M16.2599 13.8984C16.1602 13.8926 16.1251 13.8047 16.1134 13.7754C16.1016 13.7988 16.0313 13.8457 15.9434 13.8574C15.8204 13.8516 15.7091 13.8105 15.7032 13.8105C15.7091 13.8164 15.5684 13.8633 15.4806 13.8633C15.3927 13.8574 15.3575 13.8105 15.3458 13.7754C15.3399 13.7988 15.2345 13.8691 15.1466 13.8691C15.0704 13.8691 15.0118 13.8457 14.9884 13.8105C14.9708 13.7871 14.9708 13.7637 14.9766 13.7344C14.9942 13.6816 15.0294 13.6523 15.0821 13.6172C15.1114 13.5996 15.1407 13.5762 15.1759 13.5469C15.2755 13.459 15.3927 13.3711 15.3927 13.3711C15.5333 13.3828 15.6563 13.3887 15.7735 13.3887C16.1544 13.3887 16.4825 13.3125 16.7579 13.166L16.9923 13.1777C16.9806 13.1309 16.9864 13.1016 17.0333 13.084C17.0977 13.0664 17.1505 12.9844 17.1446 12.9082C17.1446 12.9082 17.1388 12.8789 17.1563 12.8555C17.1681 12.8437 17.1856 12.832 17.2091 12.832C17.4845 12.8789 17.9063 12.8965 18.2403 12.9141C18.6915 12.9316 18.7266 12.9375 18.7266 12.9668C18.7325 13.0605 18.7091 13.1309 18.6563 13.1895C18.5567 13.2949 18.3751 13.3184 18.2403 13.3184C18.17 13.3184 18.1173 13.3125 18.0997 13.3125C18.1173 13.3301 18.1349 13.4824 18.0235 13.5352C17.9005 13.5937 17.6602 13.5293 17.6251 13.5176C17.6309 13.5293 17.5782 13.6406 17.4903 13.6641C17.4083 13.6875 17.3087 13.623 17.2911 13.6113C17.297 13.6289 17.1974 13.7227 17.0919 13.7578C16.9981 13.7871 16.8692 13.7461 16.8575 13.7402C16.8634 13.7461 16.752 13.8516 16.6583 13.8633C16.5587 13.8633 16.4942 13.7988 16.4825 13.7871C16.5059 13.7813 16.3653 13.8984 16.2599 13.8984ZM16.1192 13.7461C16.1485 13.7578 16.172 13.8574 16.254 13.8633L16.2599 13.8809V13.8633C16.3536 13.8633 16.5001 13.7402 16.5001 13.7402C16.5235 13.7402 16.5821 13.8105 16.6583 13.8105C16.7579 13.7988 16.8692 13.6934 16.8692 13.6934C16.8868 13.6934 16.9513 13.7168 17.0274 13.7168C17.0567 13.7168 17.0802 13.7109 17.1036 13.7051C17.2032 13.6758 17.3028 13.5703 17.3087 13.5645C17.3204 13.5703 17.3966 13.6172 17.4669 13.6172C17.5782 13.5879 17.6368 13.4707 17.6368 13.4707C17.6602 13.459 17.7774 13.5059 17.8946 13.5059C17.9474 13.5059 17.9942 13.4941 18.0294 13.4766C18.1231 13.4297 18.0997 13.2773 18.0997 13.2715C18.1173 13.248 18.1817 13.2598 18.2579 13.2598C18.3868 13.2598 18.5567 13.2422 18.6446 13.1426C18.6915 13.0898 18.7149 13.0254 18.7091 12.9434C18.6915 12.9375 18.4688 12.9316 18.2579 12.9199C17.9181 12.9082 17.502 12.8906 17.2501 12.8438L17.2032 12.8496C17.2032 12.9668 17.1388 13.0664 17.0567 13.0898C17.0333 13.0957 17.0333 13.1016 17.0333 13.125C17.0333 13.1367 17.0333 13.1543 17.0216 13.1719H16.7755C16.4239 13.3652 15.961 13.4355 15.4102 13.377C15.4102 13.3828 15.3048 13.4648 15.2052 13.5469C15.17 13.5762 15.1349 13.5996 15.1114 13.623C15.0587 13.6582 15.0294 13.6816 15.0177 13.7227C15.0118 13.7402 15.0118 13.7578 15.0235 13.7695C15.0411 13.793 15.088 13.8105 15.1466 13.8164C15.2403 13.8164 15.3516 13.7344 15.3516 13.7344C15.3809 13.7461 15.3927 13.8047 15.463 13.8105C15.5626 13.8105 15.6974 13.7637 15.6974 13.7578C15.7091 13.7578 15.8145 13.8047 15.9083 13.8047C16.0372 13.8047 16.1192 13.7461 16.1192 13.7461Z" fill="#F5C933"/>
<path d="M15.8905 12.3983C15.8905 12.3983 16.0722 12.328 16.4003 12.2577C17.0155 12.1287 17.2265 12.1698 17.2733 12.1346C17.7597 11.5955 18.1171 11.5487 18.4745 11.408C18.7558 11.1737 18.8495 10.8338 19.1483 10.4881C19.4472 10.1424 19.6229 10.1131 19.6229 10.1131L19.664 10.1893C19.664 10.1893 19.8222 10.0663 19.8163 10.1717C19.8046 10.3241 19.6757 10.4705 19.6815 10.5819C19.6874 10.6522 19.8983 10.5526 19.8808 10.617C19.828 10.7752 19.6581 10.8748 19.6112 10.9452C19.5351 11.0448 19.8046 10.91 19.7519 11.0155C19.6991 11.1209 19.4237 11.2264 19.3183 11.2967C19.2538 11.3377 19.3886 11.3495 19.3769 11.3963C19.3651 11.4432 19.0839 11.5487 19.0839 11.5838C19.0897 11.6307 19.1601 11.6366 19.1249 11.6717C19.0663 11.7362 18.8319 11.7479 18.8319 11.783C18.8261 11.8241 18.8788 11.8651 18.8261 11.9295C18.744 12.0291 18.6796 11.9295 18.6444 12.0116C18.6269 12.0584 18.7792 12.158 18.6737 12.1756C18.5331 12.1991 18.4276 12.2635 18.3046 12.3397C18.2577 12.369 18.0526 12.4041 17.9296 12.4393C17.8534 12.4569 17.414 12.5155 17.4315 12.5506C17.4491 12.5858 17.7245 12.5799 18.3046 12.4803C18.5565 12.4393 18.703 12.4041 19.0956 12.2811C19.5409 12.1405 18.9784 12.1287 19.0722 12.0702C19.1659 12.0116 19.5526 12.0409 19.5702 11.953C19.5878 11.8534 19.3534 11.8827 19.3593 11.8299C19.3651 11.7772 19.8339 11.7772 19.8573 11.6541C19.8749 11.5838 19.5878 11.6366 19.6581 11.5487C19.7284 11.4666 20.0976 11.4432 20.1093 11.285C20.1151 11.1913 19.8046 11.3026 19.8456 11.2264C19.8632 11.1971 19.9862 11.162 20.1151 11.0741C20.3085 10.9393 20.619 10.7049 20.6015 10.5643C20.578 10.4002 19.9569 10.951 20.0097 10.7401C20.0272 10.6639 21.0292 9.87289 20.8651 9.67953C20.7538 9.55063 20.039 10.4002 20.0155 10.2303C20.0097 10.1776 21.1288 8.91196 20.9237 8.51352C20.871 8.40805 20.0272 10.0252 19.9101 9.88461C19.8749 9.8436 20.6308 8.29086 20.5077 8.13266C20.4491 8.05649 20.3319 8.3143 20.203 8.60141C20.0741 8.88852 19.9335 9.20493 19.9042 9.24594C19.8749 9.28696 19.9394 8.63657 19.9101 8.43735C19.8983 8.35532 19.8046 8.39047 19.8046 8.39047C19.6757 10.4178 17.7245 11.9237 16.1718 12.1463C15.7675 12.2049 15.6386 12.3924 15.1991 12.6444C15.0526 12.7264 14.8241 12.7674 14.6249 12.8787C14.4257 12.9901 14.2851 13.1541 14.2206 13.2596C14.1913 13.3123 14.2323 13.4588 14.2733 13.4764C14.3144 13.494 14.3144 13.3651 14.3612 13.3475C14.4081 13.3241 14.4081 13.3944 14.4608 13.3885C14.5136 13.3885 14.578 13.3358 14.578 13.3358C14.578 13.3358 15.6737 13.3358 16.1425 13.3182C16.2245 13.3182 16.3651 13.283 16.4237 13.2186C16.4062 13.1659 16.2773 13.1952 16.2011 13.201C15.8671 13.1776 15.4394 13.201 15.1288 13.1776C15.1288 13.1776 15.0761 13.1717 15.0819 13.1248C15.0819 13.1014 15.2812 12.8905 15.2812 12.8905H15.1288C15.1288 12.8905 15.0351 12.9432 14.9882 12.9491C14.9413 12.9549 14.9237 12.9256 14.9413 12.908C15.1874 12.7147 15.8905 12.3983 15.8905 12.3983Z" fill="#F5C933"/>
<path d="M14.297 13.4824H14.2852C14.2501 13.4707 14.2325 13.4121 14.2266 13.3887C14.2091 13.3418 14.2032 13.2774 14.2266 13.2422C14.3028 13.125 14.4493 12.9609 14.6368 12.8555C14.7423 12.7969 14.8536 12.7559 14.9649 12.7207C15.0587 12.6914 15.1466 12.6621 15.211 12.6211C15.3516 12.5391 15.463 12.4688 15.5567 12.4043C15.7618 12.2637 15.9083 12.1641 16.1895 12.1231C17.836 11.8887 19.6817 10.3301 19.8048 8.38477C19.8399 8.34375 19.9337 8.36133 19.9454 8.43164C19.963 8.54297 19.9512 8.77734 19.9395 8.9707C19.9337 9.09375 19.9278 9.2168 19.9337 9.23438C19.9337 9.19922 20.0509 8.93555 20.1622 8.68359L20.2032 8.58984C20.3555 8.25586 20.4317 8.09766 20.502 8.09766H20.5079L20.5372 8.11523C20.6134 8.2207 20.3907 8.77148 20.1153 9.4336C20.0274 9.64453 19.9395 9.84961 19.9395 9.87305C20.0216 9.86719 20.3204 9.39258 20.5372 9.04102C20.7891 8.63672 20.8888 8.48438 20.9298 8.48438C21.1173 8.8125 20.4903 9.62696 20.1915 10.0195C20.1153 10.1191 20.0509 10.207 20.045 10.2246C20.0977 10.2129 20.2501 10.0957 20.379 9.97266C20.5606 9.8086 20.7481 9.63867 20.8419 9.63867H20.8477L20.8829 9.65625C21.0001 9.79688 20.6309 10.1602 20.2384 10.5234C20.1388 10.6172 20.0391 10.7109 20.0333 10.7285C20.0802 10.7578 20.1798 10.6934 20.2735 10.6406C20.4493 10.5352 20.6134 10.459 20.6251 10.5469C20.6368 10.6582 20.4727 10.834 20.127 11.0684C20.0626 11.1152 19.9981 11.1445 19.9454 11.168C19.9102 11.1856 19.8692 11.2031 19.8634 11.2148C19.9044 11.2148 19.9278 11.2148 19.9513 11.2148C20.0274 11.209 20.0919 11.2031 20.1153 11.2324L20.127 11.2676C20.1212 11.3789 19.9688 11.4258 19.8399 11.4668C19.7638 11.4902 19.6934 11.5137 19.67 11.543C19.67 11.5664 19.7227 11.5723 19.752 11.5723C19.8048 11.5781 19.8516 11.584 19.8692 11.6074C19.8575 11.7246 19.6817 11.7539 19.5294 11.7773C19.4649 11.7891 19.3829 11.8008 19.377 11.8125C19.3829 11.8184 19.4239 11.8242 19.4473 11.8301C19.5118 11.8418 19.5997 11.8594 19.588 11.9356C19.5762 12 19.4532 12.0117 19.3126 12.0234C19.2188 12.0352 19.1192 12.041 19.0841 12.0645C19.0899 12.0645 19.1309 12.082 19.1602 12.0879C19.2305 12.1055 19.295 12.1289 19.295 12.1699C19.295 12.1992 19.2716 12.2285 19.1075 12.2813C18.7091 12.4043 18.5684 12.4395 18.3165 12.4805C17.8653 12.5566 17.6485 12.5684 17.5606 12.5684C17.4552 12.5684 17.4376 12.5566 17.4259 12.5391C17.4376 12.4922 17.5137 12.4746 17.7833 12.4336C17.8536 12.4219 17.9122 12.416 17.9356 12.4043C17.9708 12.3926 18.0177 12.3867 18.0645 12.375C18.1641 12.3516 18.2696 12.3281 18.2989 12.3106C18.4161 12.2344 18.5216 12.1758 18.6739 12.1465C18.6973 12.1289 18.6798 12.0996 18.668 12.082C18.6446 12.0527 18.6212 12.0176 18.6329 11.9883C18.6446 11.9531 18.668 11.9414 18.6973 11.9414L18.7384 11.959V11.9414C18.7618 11.9414 18.7852 11.9356 18.8145 11.9004C18.8438 11.8652 18.8321 11.8418 18.8262 11.8125C18.8204 11.7949 18.8145 11.7774 18.8145 11.7598C18.8145 11.7305 18.8614 11.7188 18.9434 11.7012C19.0079 11.6836 19.0899 11.666 19.1192 11.6367C19.0958 11.6074 19.0782 11.5899 19.0723 11.5606C19.0665 11.5313 19.1016 11.5137 19.213 11.4551C19.2657 11.4258 19.3536 11.3848 19.3595 11.3672C19.3595 11.3613 19.3419 11.3496 19.3243 11.3379C19.3009 11.3262 19.2833 11.3145 19.2833 11.2969V11.2852L19.3067 11.2559C19.336 11.2383 19.3829 11.2148 19.4356 11.1856C19.5528 11.127 19.6993 11.0508 19.7345 10.9805C19.711 10.9629 19.6876 10.9688 19.67 10.9688C19.6524 10.9746 19.629 10.9746 19.6173 10.9746L19.5821 10.957C19.5763 10.9395 19.5821 10.9219 19.5938 10.9043C19.6114 10.8809 19.6407 10.8574 19.67 10.8281C19.7403 10.7637 19.8282 10.6875 19.8634 10.582C19.8399 10.582 19.8165 10.5879 19.7989 10.5879C19.7169 10.5996 19.6641 10.582 19.6641 10.5527C19.6641 10.4941 19.6934 10.4297 19.7227 10.3594C19.7579 10.2891 19.7872 10.2129 19.7989 10.1426C19.7579 10.1191 19.7052 10.1543 19.6759 10.1777L19.6114 10.0957C19.6114 10.1074 19.4415 10.1484 19.1661 10.4707C19.0313 10.6231 18.9434 10.7754 18.8555 10.916C18.7501 11.0918 18.6505 11.2559 18.4923 11.3906C18.422 11.4199 18.3634 11.4375 18.2989 11.4609C18.0001 11.5664 17.6954 11.6719 17.297 12.1113C17.2735 12.1289 17.2325 12.1348 17.1446 12.1406C17.0098 12.1524 16.793 12.1641 16.418 12.2402C16.0958 12.3047 15.9083 12.375 15.9083 12.3809C15.9024 12.3809 15.2052 12.6973 14.9708 12.8731C15.0411 12.8731 15.1114 12.8379 15.1348 12.8262H15.2989C15.2227 12.9551 15.1231 13.0606 15.1173 13.0781L15.1466 13.125V13.1074C15.4571 13.125 15.8907 13.1074 16.2188 13.1309L16.2716 13.125C16.3419 13.1191 16.4298 13.0899 16.4532 13.1602C16.3829 13.2481 16.2364 13.2832 16.1544 13.2832C15.6915 13.2949 14.6192 13.3008 14.5899 13.3008C14.5958 13.3008 14.5313 13.3535 14.4727 13.3535C14.4376 13.3535 14.42 13.3359 14.4083 13.3184C14.3673 13.3125 14.3555 13.3477 14.3438 13.3711C14.3321 13.4473 14.3262 13.4824 14.297 13.4824ZM19.8516 8.39063C19.8341 8.39063 19.8165 8.39648 19.8165 8.39648C19.7052 10.3418 17.8419 11.9121 16.1837 12.1523C15.9141 12.1934 15.7677 12.2871 15.5684 12.4277C15.4688 12.4922 15.3634 12.5684 15.2169 12.6504C15.1466 12.6914 15.0587 12.7207 14.9649 12.75C14.8595 12.7852 14.7481 12.8262 14.6427 12.8789C14.461 12.9785 14.3204 13.1367 14.2442 13.2539C14.2325 13.2715 14.2325 13.3242 14.2501 13.3711C14.2618 13.4121 14.2794 13.4356 14.2911 13.4414C14.297 13.4356 14.3028 13.4121 14.3087 13.3945C14.3204 13.3594 14.3321 13.3242 14.3614 13.3066C14.4083 13.3008 14.42 13.3125 14.4317 13.3242C14.4434 13.3359 14.4493 13.3477 14.4669 13.3477C14.5196 13.3477 14.5723 13.2949 14.5782 13.2949C14.5899 13.2891 15.6856 13.2891 16.1544 13.2774C16.2305 13.2774 16.3712 13.2422 16.4239 13.1836C16.4122 13.1895 16.3946 13.1836 16.3595 13.1836C16.336 13.1836 16.3009 13.1895 16.2774 13.1895L16.2188 13.1953C15.8848 13.1719 15.4512 13.1953 15.1407 13.1719C15.1348 13.1719 15.1114 13.1719 15.0938 13.1484C15.0821 13.1367 15.0762 13.1191 15.0821 13.1016C15.0821 13.084 15.1524 13.002 15.2813 12.8613L15.1407 12.8906C15.1466 12.8906 15.0528 12.9434 15.0001 12.9492C14.9591 12.9551 14.9356 12.9375 14.9298 12.9199L14.9239 12.9082L14.9415 12.8789C15.1759 12.6973 15.8555 12.3926 15.8848 12.3809C15.8848 12.3809 16.0723 12.3106 16.4005 12.2402C16.7755 12.1641 16.9981 12.1465 17.1329 12.1406C17.2032 12.1348 17.2501 12.1348 17.2618 12.1231C17.6661 11.6777 17.9766 11.5664 18.2755 11.4609C18.3399 11.4375 18.3985 11.4199 18.463 11.3906C18.6095 11.2617 18.7091 11.1035 18.8145 10.9277C18.9024 10.7813 18.9903 10.6289 19.1251 10.4766C19.4239 10.1309 19.5997 10.0957 19.6114 10.0957L19.67 10.1777C19.6641 10.1602 19.7345 10.1133 19.7813 10.1133L19.8165 10.125C19.8282 10.1367 19.8282 10.1484 19.8282 10.1719C19.8223 10.2539 19.7813 10.3301 19.752 10.4004C19.7227 10.4648 19.6934 10.5293 19.6934 10.5762C19.7403 10.5879 19.7638 10.582 19.7872 10.5762C19.8106 10.5703 19.8341 10.5703 19.8516 10.5703L19.8927 10.582C19.8575 10.7285 19.7638 10.8106 19.6934 10.875C19.6641 10.9043 19.6348 10.9277 19.6231 10.9453C19.629 10.957 19.6466 10.957 19.6641 10.9512C19.6876 10.9453 19.7052 10.9453 19.7227 10.9453H19.7345L19.7696 10.9629C19.7813 10.9805 19.7696 11.0039 19.7637 11.0098C19.7227 11.0918 19.5763 11.1621 19.4473 11.2266C19.4005 11.25 19.3536 11.2734 19.3243 11.2969C19.3653 11.332 19.4005 11.3496 19.3888 11.3848C19.3829 11.4141 19.3302 11.4434 19.2247 11.4961C19.1778 11.5195 19.1075 11.5547 19.1016 11.5664C19.1016 11.5781 19.1134 11.584 19.1309 11.5957L19.1602 11.6309C19.1134 11.7012 19.0313 11.7188 18.9552 11.7363C18.9141 11.7481 18.8614 11.7598 18.8555 11.7656C18.8731 11.8301 18.8907 11.8711 18.8497 11.918C18.8087 11.9648 18.7735 11.9766 18.7442 11.9766H18.7032C18.6915 11.9766 18.6798 11.9766 18.6739 12C18.668 12.0117 18.6915 12.0352 18.7032 12.0586C18.7266 12.0879 18.7501 12.1172 18.7384 12.1465C18.7325 12.1641 18.7149 12.1699 18.6915 12.1758C18.5509 12.2051 18.4454 12.2637 18.3282 12.334C18.293 12.3574 18.1876 12.3809 18.0821 12.4043C18.0352 12.416 17.9884 12.4277 17.9532 12.4336C17.9298 12.4395 17.8712 12.4512 17.8009 12.4629C17.7071 12.4805 17.5372 12.5039 17.4845 12.5274C17.5255 12.5274 17.6368 12.5625 18.3223 12.4395C18.5743 12.3984 18.7149 12.3633 19.1075 12.2402C19.2716 12.1875 19.2716 12.1641 19.2716 12.1641C19.2716 12.1465 19.1954 12.1289 19.1661 12.1172C19.1016 12.0996 19.0665 12.0879 19.0665 12.0645V12.0527L19.0841 12.0293C19.1309 12 19.2247 11.9883 19.3302 11.9824C19.4239 11.9707 19.5704 11.959 19.5763 11.9238C19.5821 11.8887 19.5352 11.8711 19.4649 11.8594C19.4122 11.8477 19.3653 11.8418 19.3653 11.8008C19.3712 11.7656 19.418 11.7598 19.547 11.7363C19.67 11.7188 19.8516 11.6895 19.8634 11.625C19.8516 11.6074 19.8048 11.6074 19.7696 11.6016C19.7169 11.5957 19.6641 11.5899 19.6524 11.5606L19.6466 11.5488L19.6641 11.5137C19.6934 11.4785 19.7637 11.4551 19.8516 11.4258C19.9688 11.3906 20.1095 11.3438 20.1153 11.2559C20.1036 11.2324 20.045 11.2324 19.9747 11.2383C19.922 11.2441 19.8692 11.2559 19.8516 11.2266C19.8634 11.168 19.8985 11.1563 19.9513 11.127C19.9981 11.1035 20.0626 11.0742 20.127 11.0273C20.5606 10.7227 20.6134 10.5879 20.6075 10.5352C20.5313 10.5234 20.4141 10.5879 20.3087 10.6523C20.1973 10.7168 20.1036 10.7754 20.0509 10.7754L20.0157 10.7578C20.004 10.7461 20.004 10.7285 20.0098 10.7051C20.0157 10.6816 20.0684 10.6289 20.2266 10.4824C20.4903 10.2363 20.9766 9.78516 20.8712 9.66211C20.7774 9.66211 20.5723 9.83203 20.4141 9.97852C20.2325 10.1426 20.1212 10.2422 20.0626 10.2422H20.045L20.0216 10.207C20.0216 10.1895 20.045 10.1543 20.1739 9.97852C20.4669 9.5918 21.0821 8.7832 20.9298 8.49023C20.9005 8.50781 20.7247 8.78906 20.5723 9.03516C20.2559 9.54492 20.045 9.87891 19.9513 9.87891C19.9044 9.84375 19.9161 9.8086 20.0919 9.39258C20.2794 8.94727 20.5899 8.20313 20.5196 8.10937C20.461 8.10352 20.338 8.37891 20.2442 8.57813L20.2032 8.67188C20.086 8.93555 19.9688 9.1875 19.9454 9.22852C19.9044 9.2168 19.9044 9.18164 19.9161 8.94141C19.9278 8.75391 19.9337 8.51367 19.922 8.4082C19.8985 8.4082 19.8809 8.39063 19.8516 8.39063Z" fill="#F5C933"/>
<path d="M14.8008 13.0663C14.8008 13.0428 14.748 13.0545 14.707 13.0663C14.666 13.078 14.6484 13.0956 14.6484 13.119C14.6484 13.1424 14.7012 13.1307 14.7363 13.1249C14.7773 13.1073 14.8066 13.0897 14.8008 13.0663Z" fill="#50AEC4"/>
<path d="M14.6777 13.1484H14.6602L14.6309 13.1191C14.6309 13.084 14.6543 13.0605 14.7012 13.0488C14.7363 13.043 14.7539 13.0371 14.7715 13.0371H14.7891L14.8125 13.0664C14.8125 13.1016 14.7832 13.125 14.7363 13.1367C14.7188 13.1426 14.6953 13.1484 14.6777 13.1484Z" fill="#50AEC4"/>
<path d="M16.207 5.11523C16.3418 5.13867 16.4062 5.06836 16.4238 4.96875C16.4531 4.83398 16.3945 4.17188 16.3945 4.17188C16.3945 4.17188 16.0898 4.76367 16.0605 4.89844C16.0429 4.99219 16.0722 5.0918 16.207 5.11523Z" fill="#F5C933"/>
<path d="M16.6876 5.26172C16.8106 5.31445 16.8927 5.25586 16.9278 5.16211C16.9805 5.03906 17.0567 4.37695 17.0567 4.37695C17.0567 4.37695 16.6407 4.89844 16.588 5.02148C16.547 5.10938 16.5645 5.20898 16.6876 5.26172Z" fill="#F5C933"/>
<path d="M17.1329 5.50195C17.2442 5.57812 17.3321 5.53125 17.3907 5.44922C17.4669 5.33789 17.6661 4.69922 17.6661 4.69922C17.6661 4.69922 17.1563 5.12695 17.0801 5.24414C17.0274 5.32617 17.0215 5.42578 17.1329 5.50195Z" fill="#F5C933"/>
<path d="M17.5194 5.81836C17.6131 5.91211 17.7127 5.88867 17.783 5.81836C17.8768 5.72461 18.199 5.13867 18.199 5.13867C18.199 5.13867 17.6131 5.46094 17.5194 5.55469C17.449 5.625 17.4256 5.72461 17.5194 5.81836Z" fill="#F5C933"/>
<path d="M17.8418 6.21094C17.918 6.32227 18.0176 6.31641 18.0996 6.26367C18.2109 6.1875 18.6387 5.67773 18.6387 5.67773C18.6387 5.67773 18.0058 5.88281 17.8887 5.95313C17.8125 6.00586 17.7656 6.09961 17.8418 6.21094Z" fill="#F5C933"/>
<path d="M18.082 6.65625C18.1348 6.7793 18.2344 6.79688 18.3281 6.75586C18.4512 6.70313 18.9727 6.28711 18.9727 6.28711C18.9727 6.28711 18.3106 6.36328 18.1875 6.41016C18.0879 6.45117 18.0293 6.52734 18.082 6.65625Z" fill="#F5C933"/>
<path d="M18.2285 7.13711C18.2578 7.26601 18.3516 7.30117 18.4453 7.28359C18.5742 7.2543 19.1719 6.94961 19.1719 6.94961C19.1719 6.94961 18.5098 6.89102 18.375 6.92031C18.2754 6.93789 18.1992 7.00234 18.2285 7.13711Z" fill="#F5C933"/>
<path d="M18.2754 7.64062C18.2754 7.77539 18.3633 7.82812 18.4629 7.82812C18.5977 7.82812 19.2363 7.64062 19.2363 7.64062C19.2363 7.64062 18.5977 7.45313 18.4629 7.45313C18.3633 7.45312 18.2754 7.50586 18.2754 7.64062Z" fill="#F5C933"/>
<path d="M18.2284 8.13899C18.205 8.27375 18.2753 8.3382 18.3749 8.35578C18.5038 8.38508 19.1718 8.32649 19.1718 8.32649C19.1718 8.32649 18.58 8.0218 18.4452 7.9925C18.3456 7.97492 18.2518 8.01008 18.2284 8.13899Z" fill="#F5C933"/>
<path d="M18.0819 8.62451C18.0292 8.74756 18.0878 8.82959 18.1815 8.86475C18.3046 8.91748 18.9667 8.9878 18.9667 8.9878C18.9667 8.9878 18.4452 8.57178 18.3221 8.51904C18.2284 8.48389 18.1288 8.49561 18.0819 8.62451Z" fill="#F5C933"/>
<path d="M17.8418 9.06476C17.7656 9.17609 17.8125 9.26398 17.8945 9.32257C18.0058 9.39874 18.6445 9.59796 18.6445 9.59796C18.6445 9.59796 18.2168 9.0882 18.1054 9.01202C18.0175 8.95929 17.9179 8.95343 17.8418 9.06476Z" fill="#F5C933"/>
<path d="M17.5194 9.45734C17.4256 9.55109 17.449 9.6507 17.5194 9.72101C17.6131 9.81476 18.199 10.137 18.199 10.137C18.199 10.137 17.8768 9.55109 17.783 9.45734C17.7127 9.38703 17.619 9.36359 17.5194 9.45734Z" fill="#F5C933"/>
<path d="M17.1329 9.77925C17.0215 9.85542 17.0274 9.95503 17.0801 10.0371C17.1563 10.1484 17.6661 10.582 17.6661 10.582C17.6661 10.582 17.461 9.94331 17.3907 9.83198C17.3321 9.74409 17.2442 9.70308 17.1329 9.77925Z" fill="#F5C933"/>
<path d="M16.6876 10.0141C16.5645 10.0668 16.547 10.1664 16.588 10.2602C16.6407 10.3832 17.0567 10.9047 17.0567 10.9047C17.0567 10.9047 16.9805 10.2426 16.9278 10.1195C16.8927 10.0258 16.8106 9.96134 16.6876 10.0141Z" fill="#F5C933"/>
<path d="M14.2734 9.77974C14.1621 9.70357 14.0742 9.75045 14.0156 9.83248C13.9395 9.94381 13.7402 10.5825 13.7402 10.5825C13.7402 10.5825 14.25 10.1547 14.3262 10.0376C14.3789 9.94967 14.3848 9.85006 14.2734 9.77974Z" fill="#F5C933"/>
<path d="M13.8867 9.45734C13.793 9.36359 13.6934 9.38703 13.623 9.45734C13.5293 9.55109 13.207 10.137 13.207 10.137C13.207 10.137 13.793 9.81476 13.8867 9.72101C13.957 9.6507 13.9805 9.55109 13.8867 9.45734Z" fill="#F5C933"/>
<path d="M13.5645 9.06476C13.4883 8.95343 13.3887 8.95929 13.3066 9.01202C13.1953 9.0882 12.7676 9.59796 12.7676 9.59796C12.7676 9.59796 13.4004 9.39288 13.5176 9.32257C13.5938 9.26984 13.6406 9.18195 13.5645 9.06476Z" fill="#F5C933"/>
<path d="M13.3242 8.62533C13.2715 8.50228 13.1719 8.4847 13.084 8.52572C12.9609 8.57845 12.4395 8.99446 12.4395 8.99446C12.4395 8.99446 13.1016 8.91829 13.2246 8.87142C13.3184 8.82454 13.377 8.74837 13.3242 8.62533Z" fill="#F5C933"/>
<path d="M13.1777 8.13899C13.1484 8.01008 13.0605 7.97492 12.9609 7.9925C12.832 8.0218 12.2344 8.32649 12.2344 8.32649C12.2344 8.32649 12.8965 8.38508 13.0312 8.35578C13.1309 8.3382 13.207 8.27375 13.1777 8.13899Z" fill="#F5C933"/>
<path d="M13.1309 7.64062C13.1309 7.50586 13.043 7.45312 12.9434 7.45312C12.8086 7.45312 12.1699 7.64062 12.1699 7.64062C12.1699 7.64062 12.8086 7.82812 12.9434 7.82812C13.043 7.82227 13.1309 7.77539 13.1309 7.64062Z" fill="#F5C933"/>
<path d="M13.1777 7.13686C13.2012 7.0021 13.1309 6.93765 13.0312 6.92007C12.8965 6.89663 12.2344 6.94936 12.2344 6.94936C12.2344 6.94936 12.8262 7.25405 12.9609 7.28335C13.0605 7.30093 13.1543 7.26577 13.1777 7.13686Z" fill="#F5C933"/>
<path d="M13.3242 6.65625C13.377 6.5332 13.3184 6.45117 13.2246 6.41602C13.1016 6.36328 12.4395 6.29297 12.4395 6.29297C12.4395 6.29297 12.9609 6.70898 13.084 6.76172C13.1777 6.79102 13.2773 6.7793 13.3242 6.65625Z" fill="#F5C933"/>
<path d="M13.5645 6.21094C13.6406 6.09961 13.5937 6.01172 13.5117 5.95313C13.4004 5.87695 12.7617 5.67773 12.7617 5.67773C12.7617 5.67773 13.1895 6.1875 13.3008 6.26367C13.3887 6.31641 13.4883 6.32227 13.5645 6.21094Z" fill="#F5C933"/>
<path d="M13.8867 5.81836C13.9805 5.72461 13.957 5.625 13.8867 5.55469C13.793 5.46094 13.207 5.13867 13.207 5.13867C13.207 5.13867 13.5293 5.72461 13.623 5.81836C13.6934 5.88867 13.7871 5.91211 13.8867 5.81836Z" fill="#F5C933"/>
<path d="M15.7031 5.37891C16.9512 5.37891 17.9648 6.39258 17.9648 7.64649C17.9648 8.89453 16.9512 9.90821 15.7031 9.90821C14.4492 9.90821 13.4355 8.89453 13.4355 7.64649C13.4355 6.39258 14.4492 5.37891 15.7031 5.37891Z" fill="#F5C933"/>
<path d="M15.7031 5.06836C15.8379 5.06836 15.8848 4.98047 15.8848 4.88086C15.8848 4.74609 15.7031 4.10742 15.7031 4.10742C15.7031 4.10742 15.5156 4.74609 15.5156 4.88086C15.5156 4.98047 15.5684 5.06836 15.7031 5.06836Z" fill="#F5C933"/>
<path d="M16.2071 10.1598C16.0782 10.1891 16.043 10.2829 16.0606 10.3766C16.0841 10.5114 16.3946 11.1032 16.3946 11.1032C16.3946 11.1032 16.4532 10.4352 16.4239 10.3063C16.4005 10.2067 16.336 10.1364 16.2071 10.1598Z" fill="#F5C933"/>
<path d="M15.7031 10.2129C15.5684 10.2129 15.5156 10.3008 15.5156 10.4004C15.5156 10.5352 15.7031 11.1738 15.7031 11.1738C15.7031 11.1738 15.8848 10.5352 15.8848 10.4004C15.8906 10.2949 15.8379 10.2129 15.7031 10.2129Z" fill="#F5C933"/>
<path d="M15.1994 10.1598C15.0646 10.1364 15.0001 10.2067 14.9826 10.3063C14.9591 10.4352 15.0119 11.1032 15.0119 11.1032C15.0119 11.1032 15.3165 10.5114 15.3458 10.3766C15.3634 10.2829 15.3341 10.1891 15.1994 10.1598Z" fill="#F5C933"/>
<path d="M14.7188 10.0131C14.5957 9.96032 14.5137 10.0189 14.4785 10.1127C14.4258 10.2357 14.3555 10.8978 14.3555 10.8978C14.3555 10.8978 14.7715 10.3763 14.8242 10.2533C14.8594 10.1654 14.8418 10.0658 14.7188 10.0131Z" fill="#F5C933"/>
<path d="M14.2734 5.50195C14.3848 5.42578 14.3789 5.32617 14.3262 5.24414C14.25 5.13281 13.7402 4.69922 13.7402 4.69922C13.7402 4.69922 13.9453 5.33789 14.0156 5.44922C14.0742 5.53125 14.1621 5.57227 14.2734 5.50195Z" fill="#F5C933"/>
<path d="M14.7188 5.26172C14.8418 5.20898 14.8594 5.10937 14.8184 5.01562C14.7656 4.89258 14.3496 4.37109 14.3496 4.37109C14.3496 4.37109 14.4258 5.0332 14.4727 5.15625C14.5137 5.25586 14.5957 5.31445 14.7188 5.26172Z" fill="#F5C933"/>
<path d="M15.1994 5.11523C15.3283 5.08594 15.3634 4.99805 15.3459 4.89844C15.3224 4.76367 15.0119 4.17188 15.0119 4.17188C15.0119 4.17188 14.9533 4.83398 14.9826 4.96875C15.006 5.06836 15.0705 5.14453 15.1994 5.11523Z" fill="#F5C933"/>
</svg>
