<svg width="30" height="18" viewBox="0 0 30 18" fill="none" xmlns="http://www.w3.org/2000/svg">
<path d="M30 0.250977H0V11.917H30V0.250977Z" fill="#BA2025"/>
<path d="M30 11.918H0V17.7539H30V11.918Z" fill="#409B46"/>
<path d="M3.84961 0.250977H0V17.7529H3.84961V0.250977Z" fill="white"/>
<path d="M0.46875 17.4258H0.638672V16.9395H0.46875V17.4258ZM1.83984 17.4258H2.00977V16.9395H1.83984V17.4258ZM3.21094 17.4258H3.38086V16.9395H3.21094V17.4258ZM1.1543 16.1367H1.32422V15.7324H1.1543V16.1367ZM2.52539 16.1367H2.69531V15.7324H2.52539V16.1367ZM0.46875 15.0879H0.638672V14.6016H0.46875V15.0879ZM1.83984 15.0879H2.00977V14.6016H1.83984V15.0879ZM3.21094 15.0879H3.38086V14.6016H3.21094V15.0879ZM0.808594 15.7324H0.978516V15.3281H1.14844V14.9238H1.31836V15.3281H1.48828V15.7324H1.6582V16.1367H1.48828V16.541H1.31836V16.9453H1.14844V16.541H0.978516V16.1367H0.808594V15.7324ZM2.17969 15.7324H2.34961V15.3281H2.51953V14.9238H2.69531V15.3281H2.87109V15.7324H3.04102V16.1367H2.87109V16.541H2.69531V16.9453H2.52539V16.541H2.35547V16.1367H2.18555V15.7324H2.17969ZM2.52539 14.1211V14.5254H2.35547V14.9297H2.18555V15.334H2.01563V15.7383H1.8457V15.334H1.67578V14.9297H1.50586V14.5254H1.33594V14.1211H1.16602V14.5254H0.996094V14.9297H0.826172V15.334H0.65625V15.7383H0.46875V16.1426H0.638672V16.5469H0.808594V16.9512H0.978516V17.3555H1.14844V17.7598H1.31836V17.3555H1.48828V16.9512H1.6582V16.5469H1.82812V16.1426H1.99805V16.5469H2.16797V16.9512H2.33789V17.3555H2.50781V17.7598H2.69531V17.3555H2.87109V16.9512H3.04102V16.5469H3.21094V16.1426H3.38086V15.7383H3.21094V15.334H3.04102V14.9297H2.87109V14.5254H2.69531V14.1211H2.52539ZM2.95312 13.7168H3.04102V13.5586H3.12891V13.7168H3.2168V13.8809H3.12891V14.0449H3.04102V13.8809H2.95312V13.7168ZM2.95312 13.1543V13.3945H2.86523V13.6348H2.77734V13.957H2.86523V14.1973H2.95312V14.4375H3.21094V14.1973H3.29883V13.957H3.38672V13.6348H3.29883V13.3945H3.21094V13.1543H2.95312ZM0.638672 13.7168H0.726562V13.5527H0.814453V13.7168H0.902344V13.8809H0.814453V14.0449H0.726562V13.8809H0.638672V13.7168ZM0.638672 13.1543V13.3945H0.550781V13.6348H0.46875V13.957H0.556641V14.1973H0.644531V14.4375H0.902344V14.1973H0.990234V13.957H1.07812V13.6348H0.990234V13.3945H0.902344V13.1543H0.638672ZM1.58203 13.7168H1.66992V13.5527H1.75781V13.7168H1.8457V13.8809H1.75781V14.0449H1.66992V13.8809H1.58203V13.7168ZM2.00977 13.7168H2.09766V13.5527H2.18555V13.7168H2.27344V13.8809H2.18555V14.0449H2.09766V13.8809H2.00977V13.7168ZM2.00977 13.1543V13.3945H1.83984V13.1543H1.58203V13.3945H1.49414V13.6348H1.40625V13.957H1.49414V14.1973H1.58203V14.4375H1.83984V14.1973H2.00977V14.4375H2.26758V14.1973H2.35547V13.957H2.44336V13.6348H2.35547V13.3945H2.26758V13.1543H2.00977ZM0.46875 12.9902H0.638672V12.5039H0.46875V12.9902ZM1.83984 12.9902H2.00977V12.5039H1.83984V12.9902ZM3.21094 12.9902H3.38086V12.5039H3.21094V12.9902ZM0.46875 10.9746H0.638672V10.6523H0.46875V10.9746ZM3.21094 10.9746H3.38086V10.6523H3.21094V10.9746ZM1.83984 9.84961H2.00977V9.44531H1.83984V9.84961ZM0.46875 8.75976V9V9.00586V9.24609H0.638672V9V8.75976H0.46875ZM1.41211 8.75976V9V9.00586V9.24609H1.58203V9V8.75976H1.41211ZM2.26758 8.75976V9V9.00586V9.24609H2.4375V9V8.75976H2.26758ZM3.21094 8.75976V9V9.00586V9.24609H3.38086V9V8.75976H3.21094ZM2.09766 8.47852V8.63672H2.00977V8.75976H1.83984V8.63672H1.75195V8.47852H1.58203V8.71875H1.66992V8.8418H1.75781V9V9.00586V9.16406H1.66992V9.28711H1.58203V9.52734H1.75195V9.36328H1.83984V9.24023H2.00977V9.36328H2.09766V9.52734H2.26758V9.28711H2.17969V9.16406H2.0918V9V8.8418H2.17969V8.71875H2.26758V8.47852H2.09766ZM1.83984 8.55469H2.00977V8.15039H1.83984V8.55469ZM0.46875 7.34766H0.638672V7.02539H0.46875V7.34766ZM3.21094 7.34766H3.38086V7.02539H3.21094V7.34766ZM0.46875 5.49023H0.638672V5.00391H0.46875V5.49023ZM1.83984 5.49023H2.00977V5.00391H1.83984V5.49023ZM3.21094 5.49023H3.38086V5.00391H3.21094V5.49023ZM1.1543 9.00586V9V8.8418H1.32422V8.56055H1.49414V8.23828H1.75195V7.85742H1.83984V7.67578H1.92773H2.01563V7.85742H2.10352V8.23828H2.36133V8.40234V8.56641H2.53125V8.84766H2.69531V9.00586V9.16992H2.52539V9.45117H2.35547V9.61523V9.7793H2.09766V10.1602H2.00977V10.3418H1.92188H1.83398V10.1543H1.74609V9.77344H1.48828V9.45117H1.31836V9.16992H1.14844V9.00586H1.1543ZM2.52539 4.52344V4.92773H2.35547V5.33203H2.18555V5.73633H2.01563V6.05859V6.14062H1.8457V5.73633H1.67578V5.33203H1.50586V4.92773H1.33594V4.52344H1.16602V4.92773H0.996094V5.33203H0.826172V5.73633H0.65625V6.05859V6.14062H0.46875V6.54492H0.638672V6.94922H0.808594V7.35352H0.978516V7.75781H1.14844V7.35352H1.31836V6.94922H1.48828V6.53906H1.31836V6.05273H1.48828V6.13477V6.375H1.6582V7.01953H1.74609V7.41797L1.48828 7.42383V7.74609H1.31836V7.98633H1.14844V8.39062H0.978516V7.98633H0.808594V7.74609H0.638672V7.50586H0.46875V8.23242H0.638672V8.55469H0.808594V8.83594H0.978516V8.99414V9V9.1582H0.808594V9.43945H0.638672V9.76172H0.46875V10.4883H0.638672V10.248H0.808594V10.0078H0.978516V9.60351H1.14844V10.0078H1.31836V10.248H1.48828V10.5703L1.74609 10.5762V10.9746H1.6582V11.6191H1.48828V11.8594V11.9414H1.31836V11.4609H1.48828V11.0566H1.31836V10.6523H1.14844V10.248H0.978516V10.6523H0.808594V11.0566H0.638672V11.4609H0.46875V11.8652H0.638672V11.9473V12.2695H0.808594V12.6738H0.978516V13.0781H1.14844V13.4824H1.31836V13.0781H1.48828V12.6738H1.6582V12.2695H1.82812V11.8652H1.99805V11.9473V12.2695H2.16797V12.6738H2.33789V13.0781H2.50781V13.4824H2.69531V13.0781H2.87109V12.6738H3.04102V12.2695H3.21094V11.8652H3.38086V11.4609H3.21094V11.0566H3.04102V10.6523H2.87109V10.248H2.69531V10.6523H2.52539V11.0566H2.35547V11.4609H2.52539V11.8652V11.9473H2.35547V11.8652V11.625H2.18555V10.9805H2.16211H2.09766V10.5762H2.16211H2.20898H2.27344H2.36133V10.2539H2.53125V10.0137H2.69531V9.60937H2.87109V10.0137H3.04102V10.2539H3.21094V10.4941H3.38086V9.76758H3.21094V9.44531H3.04102V9.16406H2.87109V9V8.8418H3.04102V8.56055H3.21094V8.23828H3.38086V7.51172H3.21094V7.75195H3.04102V7.99219H2.87109V8.39648H2.69531V7.99219H2.52539V7.75195H2.35547V7.42969H2.26758H2.20312H2.15625H2.0918V7.02539H2.15625H2.17969V6.38086H2.34961V6.14062V6.05859H2.51953V6.14062V6.54492H2.34961V6.94922H2.51953V7.35352H2.69531V7.75781H2.87109V7.35352H3.04102V6.94922H3.21094V6.53906H3.38086V6.13477H3.21094V5.73047H3.04102V5.32617H2.87109V4.92187H2.69531V4.51758H2.52539V4.52344ZM0.638672 4.11914H0.726562V3.96094H0.814453V4.125H0.902344V4.28906H0.814453V4.45312H0.726562V4.28906H0.638672V4.11914ZM0.638672 3.79688H0.550781V4.03711H0.46875V4.35938H0.556641V4.59961H0.644531V4.83984H0.902344V4.60547H0.990234V4.36523H1.07812V4.04297H0.990234V3.80273H0.902344V3.5625H0.644531V3.79688H0.638672ZM1.58203 4.11914H1.66992V3.96094H1.75781V4.125H1.8457V4.28906H1.75781V4.45312H1.66992V4.28906H1.58203V4.11914ZM2.00977 4.11914H2.09766V3.96094H2.18555V4.125H2.27344V4.28906H2.18555V4.45312H2.09766V4.28906H2.00977V4.11914ZM1.58203 3.79688H1.49414V4.03711H1.40625V4.35938H1.49414V4.59961H1.58203V4.83984H1.83984V4.60547H2.00977V4.8457H2.26758V4.60547H2.35547V4.36523H2.44336V4.04297H2.35547V3.80273H2.26758V3.5625H2.00977V3.80273H1.83984V3.5625H1.58203V3.79688ZM2.95312 4.11914H3.04102V3.96094H3.12891V4.125H3.2168V4.2832H3.12891V4.44727H3.04102V4.2832H2.95312V4.11914ZM2.95312 3.55664V3.79688H2.86523V4.03711H2.77734V4.35938H2.86523V4.59961H2.95312V4.83984H3.21094V4.60547H3.29883V4.36523H3.38672V4.04297H3.29883V3.80273H3.21094V3.5625H2.95312V3.55664ZM0.46875 3.39258H0.638672V2.90625H0.46875V3.39258ZM1.83984 3.39258H2.00977V2.90625H1.83984V3.39258ZM3.21094 3.39258H3.38086V2.90625H3.21094V3.39258ZM1.1543 2.26758H1.32422V1.86328H1.1543V2.26758ZM2.52539 2.26758H2.69531V1.86328H2.52539V2.26758ZM0.46875 1.05469H0.638672V0.568359H0.46875V1.05469ZM1.83984 1.05469H2.00977V0.568359H1.83984V1.05469ZM3.21094 1.05469H3.38086V0.568359H3.21094V1.05469ZM0.808594 1.86328H0.978516V1.45898H1.14844V1.05469H1.31836V1.45898H1.48828V1.86328H1.6582V2.26758H1.48828V2.67188H1.31836V3.07617H1.14844V2.67188H0.978516V2.26758H0.808594V1.86328ZM2.17969 1.86328H2.34961V1.45898H2.51953V1.05469H2.69531V1.45898H2.87109V1.86328H3.04102V2.26758H2.87109V2.67188H2.69531V3.07617H2.52539V2.67188H2.35547V2.26758H2.18555V1.86328H2.17969ZM2.52539 0.251953V0.65625H2.35547V1.06055H2.18555V1.46484H2.01563V1.86914H1.8457V1.46484H1.67578V1.06055H1.50586V0.65625H1.33594V0.251953H1.16602V0.65625H0.996094V1.06055H0.826172V1.46484H0.65625V1.86914H0.46875V2.27344H0.638672V2.67773H0.808594V3.08203H0.978516V3.48633H1.14844V3.89063H1.31836V3.48633H1.48828V3.08203H1.6582V2.67188H1.82812V2.26758H1.99805V2.67188H2.16797V3.07617H2.33789V3.48047H2.50781V3.88477H2.69531V3.48047H2.87109V3.07617H3.04102V2.67188H3.21094V2.26758H3.38086V1.86328H3.21094V1.45898H3.04102V1.05469H2.87109V0.650391H2.69531V0.246094H2.52539V0.251953Z" fill="#BA2025"/>
</svg>
