<svg width="40" height="40" viewBox="0 0 40 40" fill="none" xmlns="http://www.w3.org/2000/svg">
<path fill-rule="evenodd" clip-rule="evenodd" d="M21.4427 1.90378C21.9648 0.267278 20.412 -0.0687823 18.9983 0.0107353C10.8565 0.468761 3.44752 5.82871 0.981594 13.8965C-4.19294 30.8262 12.0747 44.046 26.7357 38.8585C41.0491 33.7939 44.819 14.6742 32.8835 4.70703C26.0669 -0.985524 24.1027 1.70194 25.0528 3.29694C25.5915 4.20136 26.802 4.4252 27.8511 4.98905C36.8086 9.80361 39.7493 20.9294 34.036 29.4811C28.4357 37.8638 16.9075 39.2466 8.82885 32.7069C0.323092 25.8214 0.735673 9.00625 14.4639 4.04662C18.6541 2.5328 20.8508 3.75907 21.4427 1.90378ZM21.5741 18.4512C21.5151 15.9044 21.5693 13.3034 21.5657 10.7502C21.5645 9.89443 21.6829 7.68269 21.4359 7.04019C21.0983 6.1619 19.7108 5.78677 18.9281 6.57228C18.2208 7.28198 18.4849 8.88353 18.4846 9.98093V17.6734C18.4844 18.788 18.2469 20.3882 18.9354 21.0748C19.6327 21.7702 21.21 21.5359 22.3408 21.5369C24.5711 21.5389 32.6633 21.8541 33.4588 21.0823C34.3613 20.2065 33.7698 19.1245 32.8907 18.6782C31.9892 18.2206 23.0512 18.4916 21.5741 18.4512Z" fill="#DD5D62"/>
</svg>
