<svg width="34" height="40" viewBox="0 0 34 40" fill="none" xmlns="http://www.w3.org/2000/svg">
<path d="M28.7323 4.92968C25.5759 1.77326 21.2949 -3.32583e-08 16.831 0C12.3671 3.32583e-08 8.08611 1.77326 4.92969 4.92968C1.77326 8.08611 3.32583e-08 12.3671 0 16.831C-3.32583e-08 21.2949 1.77326 25.5759 4.92969 28.7323L11.2016 35.0042C11.3442 35.1468 11.5135 35.26 11.6999 35.3372C11.8863 35.4144 12.086 35.4541 12.2877 35.4541C12.4894 35.4541 12.6891 35.4144 12.8755 35.3372C13.0618 35.26 13.2312 35.1468 13.3738 35.0042C13.5164 34.8616 13.6296 34.6922 13.7068 34.5059C13.784 34.3195 13.8237 34.1198 13.8237 33.9181C13.8237 33.7164 13.784 33.5167 13.7068 33.3303C13.6296 33.1439 13.5164 32.9746 13.3738 32.832L7.1019 26.5601C5.17476 24.6353 3.86182 22.1822 3.32921 19.5111C2.79659 16.84 3.06824 14.0709 4.10977 11.5542C5.1513 9.03752 6.91592 6.8863 9.18036 5.37274C11.4448 3.85918 14.1073 3.0513 16.831 3.0513C19.5547 3.0513 22.2172 3.85918 24.4816 5.37274C26.7461 6.8863 28.5107 9.03752 29.5522 11.5542C30.5938 14.0709 30.8654 16.84 30.3328 19.5111C29.8002 22.1822 28.4872 24.6353 26.5601 26.5601L15.7449 37.3753C15.6015 37.5175 15.4877 37.6867 15.41 37.8731C15.3324 38.0595 15.2924 38.2595 15.2924 38.4614C15.2924 38.6633 15.3324 38.8633 15.41 39.0497C15.4877 39.2361 15.6015 39.4053 15.7449 39.5475C15.8871 39.6909 16.0563 39.8047 16.2427 39.8824C16.4291 39.96 16.6291 40 16.831 40C17.0329 40 17.2329 39.96 17.4193 39.8824C17.6057 39.8047 17.7749 39.6909 17.9171 39.5475L28.7323 28.7323C30.2957 27.1697 31.5359 25.3143 32.382 23.2723C33.2281 21.2302 33.6636 19.0414 33.6636 16.831C33.6636 14.6206 33.2281 12.4318 32.382 10.3897C31.5359 8.34767 30.2957 6.49232 28.7323 4.92968Z" fill="#DD5D62"/>
<path d="M24.4799 16.9377C24.4799 15.425 24.0314 13.9462 23.1909 12.6884C22.3505 11.4305 21.1559 10.4502 19.7583 9.87129C18.3607 9.29238 16.8228 9.14091 15.3391 9.43603C13.8554 9.73116 12.4925 10.4596 11.4229 11.5293C10.3532 12.599 9.62471 13.9619 9.32959 15.4455C9.03446 16.9292 9.18593 18.4671 9.76484 19.8647C10.3437 21.2623 11.3241 22.4569 12.5819 23.2974C13.8397 24.1378 15.3185 24.5864 16.8313 24.5864C18.8598 24.5864 20.8053 23.7805 22.2397 22.3461C23.6741 20.9117 24.4799 18.9663 24.4799 16.9377ZM12.2421 16.9377C12.2421 16.0301 12.5112 15.1428 13.0155 14.3881C13.5198 13.6334 14.2365 13.0452 15.0751 12.6979C15.9136 12.3505 16.8364 12.2596 17.7266 12.4367C18.6168 12.6138 19.4345 13.0509 20.0763 13.6927C20.7181 14.3345 21.1552 15.1522 21.3323 16.0424C21.5094 16.9326 21.4185 17.8554 21.0711 18.6939C20.7238 19.5325 20.1356 20.2492 19.3809 20.7535C18.6262 21.2578 17.7389 21.5269 16.8313 21.5269C15.6141 21.5269 14.4469 21.0434 13.5862 20.1828C12.7256 19.3221 12.2421 18.1549 12.2421 16.9377Z" fill="#DD5D62"/>
</svg>
