<svg width="28" height="40" viewBox="0 0 28 40" fill="none" xmlns="http://www.w3.org/2000/svg">
<path fill-rule="evenodd" clip-rule="evenodd" d="M18.4747 3.13772C25.7053 2.96311 24.6138 2.64348 24.6051 9.64798C24.5999 13.8651 24.6014 18.0831 24.6054 22.3002C24.6094 26.5094 24.6565 30.7536 24.6088 34.9587C24.5803 37.4734 22.4425 36.8684 20.1315 36.8703L7.47931 36.8694C5.20252 36.869 3.15766 37.4463 3.12941 34.9587C3.03551 26.6883 3.14114 17.9824 3.13321 9.64798C3.12654 2.64196 2.02985 2.96402 9.26348 3.13772C9.50584 5.88687 11.1514 6.19748 13.8693 6.19636C16.6034 6.19527 18.2417 5.87263 18.4747 3.13772ZM0.132251 36.1026C0.511545 38.2288 2.23127 39.8589 4.66205 39.9335C9.4774 40.0811 16.466 39.937 21.5373 39.9365C28.7925 39.9359 27.6771 35.7605 27.6708 29.2014L27.6715 12.3318C27.6691 10.1386 27.9142 5.89245 27.607 3.93932C27.2678 1.78277 25.5069 0.140352 23.0763 0.0656164C18.2124 -0.0839642 11.3253 0.0699274 6.2013 0.0632617C-1.10348 0.053734 0.0706649 4.354 0.0679479 10.7982C0.0666075 14.025 -0.102536 34.7865 0.132251 36.1026Z" fill="#DD5D62"/>
</svg>
