<svg width="24" height="28" viewBox="0 0 24 28" fill="none" xmlns="http://www.w3.org/2000/svg">
<path fill-rule="evenodd" clip-rule="evenodd" d="M2.2176 6.08722C3.48214 5.69493 5.07233 4.95602 6.42165 4.4202C7.80559 3.87064 9.22588 3.29911 10.6231 2.74074C12.3869 2.03585 11.7151 2.13885 14.8713 3.39154L21.1997 5.93023C21.8526 6.19058 22.8082 6.77292 23.4443 6.14886C24.121 5.48498 23.737 4.63483 22.9942 4.3159L12.3976 0.0621911C11.6761 -0.176013 10.8327 0.32857 10.1874 0.590049L3.78911 3.14402C3.09639 3.42415 2.41991 3.70236 1.71633 3.97667C0.931532 4.28261 0.154949 4.40355 0.0624185 5.32052C-0.0956488 6.88703 0.0862057 9.57825 0.171629 11.2085C0.569055 18.7949 2.77887 24.4731 8.18351 26.911C9.38357 27.4523 11.2918 28.2825 12.795 27.9046C19.5061 26.2174 22.3283 21.6343 23.3559 14.8501C23.4859 13.9922 23.943 10.0448 23.7319 9.3683C23.5083 8.65194 22.5618 8.349 21.9576 8.91748C21.4549 9.39057 21.5862 10.6603 21.5382 11.4803C21.4324 13.2918 21.2179 15.0441 20.8222 16.7385C20.029 20.1342 18.4388 22.5628 16.2887 24.0674C15.3896 24.6966 13.5497 25.6112 12.1691 25.8386C11.1183 26.0116 8.55281 24.6844 7.86912 24.2398C2.74869 20.9101 2.22171 13.8636 2.2176 6.08722ZM10.8514 14.5889C10.1627 14.212 9.39386 12.6087 8.30753 13.0111C7.87546 13.1712 7.48732 13.6765 7.66074 14.309C7.77657 14.7314 8.33124 15.193 8.59492 15.4563C11.0998 17.9574 10.7445 17.8463 13.2129 15.3803C13.7402 14.8535 16.148 12.7071 16.2361 12.0226C16.3303 11.2912 15.5343 9.94412 14.0148 11.475C13.4035 12.0909 11.2312 14.3487 10.8514 14.5889Z" fill="#163047"/>
</svg>
