<svg width="28" height="22" viewBox="0 0 28 22" fill="none" xmlns="http://www.w3.org/2000/svg">
<path fill-rule="evenodd" clip-rule="evenodd" d="M2.22888 2.18818L23.6905 2.19326C23.8452 4.18406 23.7079 6.7495 23.7085 8.80313C23.7089 9.88629 23.7466 11.0526 25.1131 10.6663C26.0792 10.3932 25.8575 9.25423 25.857 8.1762C25.8559 5.96645 25.8622 3.75629 25.8597 1.54663C25.8582 0.210098 25.3509 0.0328292 24.0633 0.0378809L4.3606 0.0397849C0.479878 0.0305191 0.0667756 -0.458767 0.0619015 2.26556L0.0616731 12.1167C0.0741629 19.6041 -0.66469 19.384 2.65904 19.3869C3.76353 19.3878 4.86814 19.3882 5.9726 19.3874C7.49389 19.3863 18.4177 19.5688 18.9507 19.1832C19.6855 18.6516 19.511 17.4899 18.4663 17.2729C18 17.1761 4.02919 17.2843 2.21093 17.2315L2.22888 2.18818ZM8.67829 11.9375C8.76488 12.793 9.45732 12.9443 10.3604 12.94L15.7356 12.941C16.5679 12.9427 17.322 12.7202 17.2027 11.7591C17.091 10.859 16.356 10.7807 15.4659 10.786C14.5708 10.7913 13.6742 10.7848 12.7788 10.7866C11.4498 10.7891 8.51401 10.315 8.67829 11.9375ZM24.4819 15.1897C25.6715 14.6748 26.4713 16.6062 25.1981 17.1028C24.6073 17.3332 23.9676 17.1103 23.8067 16.5714C23.5967 15.8682 23.9306 15.4284 24.4819 15.1897ZM25.8743 19.1989C29.4211 17.6962 28.1463 13.0486 24.8615 12.9422C23.1952 12.8882 21.9437 14.1134 21.6656 15.555C21.4869 16.481 21.6584 17.3012 22.0974 17.9316C22.7193 18.8246 23.1634 18.8017 23.6852 19.1915C23.7822 20.1674 23.4682 21.5565 24.77 21.4976C26.144 21.4355 25.8296 19.8829 25.8743 19.1989ZM4.39441 7.63889C4.57171 9.07034 6.88072 8.63352 8.21147 8.63606L17.8834 8.63662C19.0642 8.63741 21.7164 9.11179 21.5357 7.47873C21.4562 6.75993 20.889 6.48404 20.1265 6.48378L8.03237 6.48663C6.76346 6.48921 4.19963 6.06621 4.39441 7.63889Z" fill="#244A55"/>
</svg>
