<svg width="24" height="24" viewBox="0 0 24 24" fill="none" xmlns="http://www.w3.org/2000/svg">
<path fill-rule="evenodd" clip-rule="evenodd" d="M2.20606 21.7689L2.20031 2.21709C4.36687 2.16462 6.42119 2.63111 6.49208 1.21581C6.54116 0.235553 5.9176 0.0335098 5.01028 0.0367446C-0.378065 0.055999 0.0256626 -0.337434 0.0273313 2.93628L0.0275883 18.7855C0.0217606 24.9069 -0.686906 23.9427 5.46114 23.9472L21.2198 23.9474C21.9714 23.9467 23.0917 24.1071 23.5735 23.6758C24.1412 23.1677 23.9005 22.0861 23.2347 21.8489C22.684 21.6527 4.64232 21.828 2.20606 21.7689ZM5.19086 17.4926C3.95598 17.8929 4.07387 19.5948 5.81974 19.6032C6.58119 19.6069 9.6056 19.6883 10.1172 19.5413C11.2265 19.2224 11.2431 17.428 9.44974 17.4244C8.66226 17.4228 5.69838 17.3282 5.19086 17.4926ZM5.18444 13.1405C4.15618 13.4507 4.22092 14.7445 4.95419 15.1259C5.49875 15.4091 14.204 15.2688 14.4671 15.1974C15.417 14.94 15.4101 13.5855 14.6633 13.2065C14.1196 12.9307 5.41106 13.0721 5.18444 13.1405ZM10.9005 2.21198L13.0691 2.21709L13.0609 4.95654C12.7141 4.7013 12.5197 4.3606 11.9015 4.39885C11.4446 4.42714 11.1018 4.73501 10.9029 4.9771L10.9005 2.21198ZM11.982 7.06716C12.5376 7.47122 12.9147 8.0831 13.4274 8.46465C14.0717 8.94403 15.0025 8.5907 15.1967 7.87998C15.3831 7.19804 15.2236 3.26841 15.2484 2.21781L21.7579 2.21144C21.8101 4.37362 21.5489 18.2784 21.8936 19.0192C22.0947 19.4516 22.6575 19.7276 23.2776 19.4793C23.8944 19.2324 23.9423 18.8128 23.9379 17.9714C23.9252 15.5401 24.0205 1.7735 23.92 1.04319C23.7345 -0.304136 22.0476 0.0395426 20.6764 0.0384387C17.8388 0.0361795 15.0008 0.0365902 12.1631 0.0383873C8.08219 0.0409803 8.71897 -0.397123 8.72177 5.10988C8.72238 6.31909 8.39249 8.30538 9.43064 8.65524C10.4787 9.00842 11.3967 7.50262 11.982 7.06716Z" fill="#163047"/>
</svg>
