<svg width="28" height="25" viewBox="0 0 28 25" fill="none" xmlns="http://www.w3.org/2000/svg">
<path fill-rule="evenodd" clip-rule="evenodd" d="M23.6174 21.528C23.0735 22.6759 21.0261 22.2192 21.6737 20.7658C22.2792 19.4071 24.1401 20.4246 23.6174 21.528ZM2.88579 9.39853C1.77597 9.8116 1.91086 11.477 3.58813 11.4809C4.33381 11.4826 7.35238 11.5643 7.84532 11.4197C8.76636 11.1496 9.03443 9.31655 7.09407 9.31685C6.31601 9.31698 3.37471 9.21653 2.88579 9.39853ZM0.772665 5.05656C-0.0720887 5.29856 -0.294075 6.46573 0.458929 6.98665C0.934138 7.31542 2.77189 7.16544 3.50197 7.16643C4.75908 7.16814 9.009 7.33401 9.93304 7.12785C10.8249 6.92885 11.0058 5.77085 10.2222 5.20811C9.72425 4.85052 7.9128 5.00767 7.18112 5.00836C6.1377 5.00937 1.37244 4.88473 0.772665 5.05656ZM9.43224 20.1616C10.6436 19.7542 11.3539 21.6938 10.0147 22.1119C8.5008 22.5846 8.12375 20.6015 9.43224 20.1616ZM6.44777 20.0954C6.41516 18.849 6.44304 17.5731 6.44162 16.3233C6.44019 15.05 6.71631 13.7544 5.3865 13.6368C1.12545 13.2603 2.02558 15.1097 2.67312 15.5359C3.18976 15.8759 3.61115 15.7349 4.2783 15.8162C4.4935 22.2801 3.44573 22.199 6.65959 22.2589C8.74975 26.3034 13.0401 23.9179 12.9001 21.0927C12.753 18.1262 8.93734 16.763 7.08578 19.2796C6.6006 19.939 6.88 19.9554 6.44777 20.0954ZM17.2156 2.87259C17.2763 6.14021 17.219 9.46034 17.2203 12.7339C17.2207 13.6608 17.0549 16.94 17.4195 17.4775C17.8036 18.0438 18.6127 18.0354 19.0622 17.6159C19.5698 17.1421 19.3753 14.6078 19.3756 13.6313L19.3812 11.4836L21.8079 11.4776C22.3237 11.4776 22.334 11.6094 22.9852 12.2745C23.3089 12.6051 23.6627 12.9763 24.0108 13.313C24.6887 13.9685 25.8443 14.8811 25.8443 15.5157C25.8442 16.2134 25.9766 19.7254 25.7563 20.0943C25.3918 19.9239 24.8541 18.0189 22.7032 17.9485C21.1446 17.8975 19.9706 18.997 19.5758 20.089C18.4872 20.1342 17.3397 20.0992 16.2444 20.1002C15.1842 20.1011 13.9859 19.9867 14.033 21.1555C14.0797 22.3193 15.1574 22.2537 16.2444 22.2536C17.2925 22.2534 18.5414 22.1932 19.5646 22.272C19.942 22.7293 20.564 24.4077 22.6156 24.4084C24.2023 24.4089 25.1657 23.3105 25.6571 22.2603C27.2275 22.2334 27.9971 22.4752 28 20.7204L27.9996 14.9773C27.9995 13.9716 27.3818 13.616 26.89 13.1258L23.927 10.1661C23.1656 9.4012 23.2209 9.31655 21.7182 9.3198L19.3868 9.31594L19.3769 2.14523C19.3766 1.17105 19.0245 0.697495 18.0391 0.697495L1.25861 0.697266C0.486476 0.697495 -0.0806098 1.12867 0.0154392 1.95158C0.110852 2.76924 0.889216 2.86096 1.70594 2.85603L12.0268 2.85532C13.6544 2.85567 15.6307 2.75418 17.2156 2.87259Z" fill="#244A55"/>
</svg>
