<svg width="70" height="70" viewBox="0 0 70 70" fill="none" xmlns="http://www.w3.org/2000/svg">
<path fill-rule="evenodd" clip-rule="evenodd" d="M37.3702 19.7908C36.154 22.7162 31.1568 21.7208 32.6482 17.928C33.9367 14.6512 38.6763 16.6493 37.3702 19.7908ZM16.4509 51.9274C16.9134 53.3246 18.12 53.7406 19.9327 53.7389C21.6525 53.7373 23.3728 53.7334 25.0928 53.7316C28.157 53.7284 33.2046 54.4659 31.926 50.2528C31.1372 47.6535 27.2144 48.3525 23.2997 48.3574C20.2554 48.3611 15.0398 47.6652 16.4509 51.9274ZM53.8534 49.2494C53.8445 52.1511 52.3807 60.9992 57.604 58.6225C58.7937 58.0812 59.1569 57.2468 59.1567 55.4981C59.1552 46.8443 59.9898 40.0475 55.2333 32.6271C53.7109 30.2522 48.6473 23.9125 45.4771 25.3716C43.779 26.1532 43.4446 28.6313 46.2132 30.6745C47.761 31.8167 49.3593 33.4363 50.4879 35.1213C53.2127 39.1895 53.8593 43.3401 53.8534 49.2494ZM21.4796 5.48485L26.8882 5.51945L26.873 10.8809L21.4626 10.8717L21.4796 5.48485ZM16.0923 10.8289C9.43642 11.2331 10.7296 10.3894 10.7239 26.9323C10.7227 30.503 10.7242 34.0738 10.7239 37.6445C10.7235 42.7815 10.9609 43.0231 16.1275 43.019C19.7134 43.0162 23.3 43.0159 26.8859 43.0193C29.392 43.0217 35.4133 43.6437 36.8593 42.216C38.0992 40.9918 37.9946 34.1939 36.8693 33.06C35.8748 32.0578 34.0776 32.053 33.1506 33.1663C32.1465 34.3722 32.284 35.7163 32.2368 37.6252L16.1197 37.6561L16.1042 16.2324L27.2387 16.218C26.9265 19.0825 26.6801 20.3099 27.9669 22.7274C30.7102 27.8813 37.2995 28.0838 40.949 24.1959C41.7661 23.3254 41.8877 22.7647 42.575 21.7867C49.9665 21.6402 58.1634 28.1292 61.7442 34.8477C64.0331 39.1422 64.5307 42.5347 64.5409 48.1335C64.5507 53.5415 64.6336 59.0373 64.524 64.4364C55.49 64.7112 46.0514 64.452 36.9718 64.4564C27.7825 64.4608 18.5927 64.4444 9.40364 64.4575C7.38544 64.4603 4.61571 64.2953 2.69104 64.4677C0.94019 64.6245 -0.648393 66.4154 0.268009 68.3851C1.13206 70.2421 3.39372 69.8115 5.81757 69.8101L54.2298 69.8108C72.0428 69.825 69.9258 72.4184 69.9184 57.9531C69.9117 44.7214 71.1775 34.8893 61.3945 25.1545C57.0637 20.845 51.0301 17.3147 42.4673 16.3274C41.0559 14.191 40.8634 13.2641 38.7501 12.0001C36.3796 10.5824 35.0472 10.7689 32.3197 11.2603C32.0243 8.89405 32.6253 3.8858 32.1154 2.08242C31.3653 -0.570497 27.4739 0.127968 24.4204 0.131827C21.9171 0.13499 17.5501 -0.648688 16.4231 1.56937C15.7752 2.84452 16.139 8.88229 16.0923 10.8289Z" fill="#DD5D62"/>
</svg>
