<svg width="70" height="65" viewBox="0 0 70 65" fill="none" xmlns="http://www.w3.org/2000/svg">
<path fill-rule="evenodd" clip-rule="evenodd" d="M4.14158 43.2157C8.87931 43.3684 14.0344 43.1637 18.8278 43.1665C20.7343 43.1677 24.4503 43.5945 25.7563 42.6391C27.2556 41.5424 27.3611 38.9746 25.172 38.053C23.5897 37.3868 13.4304 37.8229 10.7653 37.7548L10.8007 5.51308L53.7398 5.55481C53.9498 8.49948 53.7796 12.0278 53.7801 15.0357C53.7805 17.8369 53.1942 21.6249 56.4462 21.5856C59.8538 21.5443 59.1491 17.7098 59.1455 14.829C59.1418 11.8295 59.0104 8.48735 59.1819 5.52809C60.9699 5.48495 62.6617 5.85049 63.7196 4.72398C64.8239 3.54812 64.4896 1.75218 63.4409 0.812747C62.0087 -0.47025 55.7399 0.150179 53.3563 0.148597C46.2577 0.143732 39.1588 0.157857 32.0603 0.149183C24.8928 0.140391 17.725 0.158032 10.5575 0.149534C7.91995 0.146369 2.09316 -0.46515 0.725528 1.06846C-0.122008 2.01885 -0.323152 4.00954 0.804767 4.93937C1.90121 5.84334 3.87808 5.44908 5.39943 5.55241L5.33754 37.7183C2.95687 37.8816 0.604678 37.5012 0.0791944 39.9243C-0.477937 42.4935 2.01327 43.147 4.14158 43.2157ZM31.3394 19.2009C27.7667 20.7849 30.2254 25.3854 33.2946 24.1298C36.4035 22.8579 34.5822 17.7631 31.3394 19.2009ZM20.5912 19.2065C16.991 20.8157 19.4959 25.3713 22.5446 24.1332C25.7087 22.8483 23.7826 17.7801 20.5912 19.2065ZM42.0956 19.2049C38.4769 20.818 41.0072 25.3819 44.0507 24.1192C47.3069 22.7681 45.2094 17.8168 42.0956 19.2049ZM64.2375 39.4331C61.772 46.2185 51.608 42.4375 54.2303 35.9752C57.0147 29.1134 66.4639 33.3059 64.2375 39.4331ZM42.4567 40.616C41.2975 39.0699 40.2164 37.6283 39.09 36.125C38.2523 35.0072 36.8627 32.5314 35.1405 32.4283C32.8852 32.2933 31.3849 34.7099 32.8593 36.7761C33.9537 38.3097 35.0894 39.7518 36.2233 41.2679L47.9336 56.8494C49.1184 58.4844 47.6224 62.0983 48.9472 63.6906C49.5427 64.4063 50.6872 64.6794 51.9085 64.2362C55.8785 62.7953 52.2533 55.1935 54.461 51.2927C56.672 47.3859 62.6084 48.0456 64.1651 51.9906C64.845 53.7138 64.627 57.2843 64.4759 59.243C62.7159 59.4121 60.7515 58.9449 59.8086 60.1536C58.9121 61.3028 59.5737 63.3169 60.3762 64.0485C61.3942 64.9767 63.7108 64.6526 65.3484 64.6585C67.32 64.6655 68.6449 64.7126 69.471 63.4056C70.162 62.3125 70.0462 54.7408 69.8457 52.9324C69.3867 48.7922 67.3691 47.6002 66.2178 45.8426C67.395 44.2451 68.6847 43.4288 69.4803 40.6713C71.4113 33.9786 65.8271 27.0265 59.1409 27.0474C49.3759 27.0778 44.6308 39.4076 52.1352 45.584C51.8491 46.444 51.1573 46.8413 50.5765 47.6094C50.337 47.9261 50.1857 48.1672 49.9237 48.6124L49.2211 49.5496L42.4567 40.616Z" fill="#DB5B60"/>
</svg>
