<svg width="70" height="55" viewBox="0 0 70 55" fill="none" xmlns="http://www.w3.org/2000/svg">
<path fill-rule="evenodd" clip-rule="evenodd" d="M5.59819 5.69886C10.0606 4.89832 16.046 5.61297 20.2713 6.45655C23.0082 7.0029 30.5628 9.15256 32.2634 10.4924C32.5835 15.028 32.308 32.1684 32.3063 38.4453C32.3056 40.5275 32.0983 41.8851 33.4056 42.9431C34.6803 43.9748 36.5114 43.5747 37.2284 42.4763C37.9229 41.4123 37.6729 38.7365 37.6727 37.3271C37.672 29.8731 37.6819 22.4188 37.6741 14.9649C37.6689 9.95354 38.484 7.4311 35.4892 5.96079C33.1474 4.8111 30.2399 3.66863 27.4931 2.78404C21.7742 0.942453 14.6597 -0.338515 8.05129 0.0793462C4.87873 0.27991 0.412198 0.244348 0.122383 3.33692C-0.140556 6.14265 0.101591 32.6968 0.104444 36.8799C0.105902 38.9869 -0.246479 46.2972 0.505444 47.6623C1.69215 49.8167 6.75822 48.1967 9.72033 48.1128C16.6919 47.9152 22.7224 49.4852 28.4551 51.679C30.6994 52.5378 34.3662 54.8882 36.8441 53.72C45.3964 49.688 54.62 47.1529 64.6251 48.5983C70.0123 49.3766 69.8817 47.7298 69.8755 42.9178C69.8707 39.2653 69.8747 35.6127 69.8745 31.9602C69.8739 24.5062 69.8836 17.0519 69.8758 9.59793C69.8719 5.87679 70.8154 1.72334 67.5613 0.724077C63.1868 -0.619266 52.0504 0.444152 47.1357 1.61241C45.4117 2.02229 44.1509 2.24295 43.4215 3.50915C42.6238 4.89395 43.3786 6.7394 44.5512 7.206C45.6791 7.6548 52.1525 6.07381 54.1423 5.87458C57.6549 5.52296 60.8796 5.38312 64.5084 5.75255L64.4691 43.1028C57.958 42.9976 54.3215 42.6437 47.9845 44.0432C45.4586 44.601 43.2831 45.2116 41.0305 46.0312C39.7372 46.5018 35.5191 48.5328 34.8001 48.4804C34.4618 48.4557 29.4288 46.3262 28.3809 45.9518C19.9924 42.955 14.4703 42.5499 5.47123 43.0115L5.59819 5.69886ZM58.7004 26.4029C59.618 24.873 58.5914 22.8512 57.3768 22.3231C56.0894 21.7635 44.8435 23.0533 43.5664 25.1096C42.6315 26.6147 43.1375 28.3272 44.5428 28.8861C46.1149 29.5113 47.9142 28.791 49.3836 28.4762C51.6353 27.9937 57.9359 27.6777 58.7004 26.4029ZM58.6996 15.6681C59.6162 14.1392 58.5959 12.1202 57.3763 11.5903C56.0897 11.0312 44.8443 12.3357 43.5454 14.3534C42.4939 15.9866 43.2369 17.5189 44.5917 18.1026C46.1388 18.7692 47.7858 18.0891 49.3954 17.7415C51.7051 17.2426 57.8675 17.0559 58.6996 15.6681ZM10.8568 35.7618C11.1205 38.7842 16.5524 38.4271 19.2708 38.937C20.5248 39.1723 23.1208 39.9372 24.06 39.969C25.5901 40.0206 27.0144 38.6724 26.9082 37.1211C26.7223 34.405 21.7138 33.8262 18.9369 33.4453C16.722 33.1414 10.4877 31.5303 10.8568 35.7618ZM10.8872 14.5176C11.2687 17.3182 16.6556 16.9688 19.4549 17.506C20.5801 17.7219 23.4522 18.5292 24.2536 18.5048C25.7235 18.46 27.0485 17.0446 26.8744 15.4537C26.5931 12.8824 21.5124 12.3234 18.8105 11.9566C16.752 11.6772 10.2737 10.0135 10.8872 14.5176ZM10.8767 25.0279C11.2519 28.1114 16.2986 27.5789 19.2529 28.2259C22.0843 28.8461 26.9998 30.683 26.7332 26.3805C26.5436 23.3205 21.2602 22.9608 18.8637 22.6724C16.8117 22.4254 10.3608 20.7882 10.8767 25.0279Z" fill="#DD5D62"/>
</svg>
