<svg width="70" height="71" viewBox="0 0 70 71" fill="none" xmlns="http://www.w3.org/2000/svg">
<path fill-rule="evenodd" clip-rule="evenodd" d="M6.01323 60.0078L5.47465 60.7542L5.39623 21.6291L48.4261 21.6119L48.4414 64.6418L9.36197 64.6567L10.0477 64.0457C10.4755 62.8365 11.263 61.5529 9.92741 60.1277C8.52608 58.6326 7.21988 59.5509 6.01323 60.0078ZM18.0467 48.7417C16.4298 49.3517 14.1573 51.8871 13.8047 52.6479C12.8267 54.7583 14.7984 57.2111 17.0842 56.3696C18.0453 56.0158 20.824 53.2616 21.2131 52.4381C22.1663 50.4207 20.2675 47.9038 18.0467 48.7417ZM34.3048 48.6686C32.1493 49.3534 31.6218 52.2643 33.4756 53.374C34.7595 54.1427 39.2573 54.1724 40.9561 53.7978C43.3202 53.2764 43.484 50.2576 41.689 48.9787C40.6068 48.2076 35.5842 48.262 34.3048 48.6686ZM18.1244 27.1253C15.0095 27.9898 15.9676 35.7518 16.7817 36.6904C17.3215 37.3125 18.4017 37.8735 19.5984 37.6C22.9218 36.8407 21.5729 28.8746 20.9438 28.0529C20.4173 27.3653 19.3251 26.7921 18.1244 27.1253ZM9.37587 16.2363L16.3117 9.22957C17.2444 10.3605 18.7105 11.5194 20.3919 10.4019C21.6441 9.56972 21.6445 7.54714 21.6545 5.61351L64.5385 5.49902L64.5519 48.4772C62.3128 48.5623 60.7588 48.1716 59.7201 49.7401C58.5661 51.4826 59.4999 53.0308 60.8238 53.5579C60.2018 54.6813 58.3844 55.814 59.7114 58.0658C60.5719 59.526 62.4576 59.6026 63.7837 58.4937C64.4527 57.9343 69.416 53.0247 69.7138 52.3358C70.1462 51.3358 69.9702 8.49897 69.9339 3.70026C69.8982 -1.03755 65.7478 0.126554 61.4156 0.125982C57.3089 0.125474 53.202 0.130174 49.0953 0.127126C41.0311 0.121157 32.9669 0.132713 24.9028 0.1263C17.7812 0.120649 18.4697 -0.667292 15.242 2.56112L3.03354 14.7692C-0.582516 18.39 0.0431252 17.3048 0.0388074 24.0941L0.0393151 60.6069C0.028584 71.8846 -1.35135 70.0192 14.8225 70.0146C19.2441 70.0134 49.9367 70.249 51.5072 69.9448C54.8322 69.3009 53.8012 63.5945 53.7981 60.1589L53.7987 23.6461C53.7944 18.9362 53.2139 20.5994 58.0897 15.8409C60.8623 13.1349 57.2761 8.84865 54.1019 12.0766C52.9544 13.2435 52.0771 14.2092 51.1462 15.1695C50.5203 15.8152 50.464 16.1836 49.3385 16.2643L33.863 16.2556C25.7744 16.2607 17.4345 16.4492 9.37587 16.2363Z" fill="#DD5D62"/>
</svg>
