<svg width="60" height="70" viewBox="0 0 60 70" fill="none" xmlns="http://www.w3.org/2000/svg">
<path fill-rule="evenodd" clip-rule="evenodd" d="M26.9241 42.7185L32.3336 42.8875L32.3802 48.447L26.9397 48.4675L26.9241 42.7185ZM48.4855 10.8078L53.8239 10.8253C53.8827 13.1333 54.0135 16.6466 53.8244 18.8687C53.584 21.6949 51.3479 21.7208 48.4697 21.5356L48.4855 10.8078ZM10.8262 21.5356C7.97941 21.6392 5.73761 21.6919 5.47614 18.8711C5.27187 16.6676 5.4159 13.1126 5.48249 10.8076L10.8434 10.8227L10.8262 21.5356ZM16.2341 5.44993C21.1197 5.3337 26.1031 5.4425 31.0008 5.43171C33.3987 5.42644 35.9883 5.92411 37.1251 4.17243C37.8027 3.12834 38.1527 0.167898 34.8201 0.0578264C33.2965 0.00742465 13.6767 -0.0898875 12.7624 0.192845C10.753 0.814234 10.8804 3.18026 10.8262 5.4121C8.24799 5.4844 5.54089 5.3125 2.99839 5.43381C-0.121949 5.58266 0.0974321 7.63555 0.0974321 10.359C0.0905129 14.768 -0.656056 21.0076 2.09529 24.0332C4.79534 27.0024 6.16501 26.668 10.999 27.0272C11.5623 28.5633 11.7266 30.1711 12.4498 31.8165C14.2205 35.8449 17.3653 39.2055 21.5628 41.0733L21.5734 48.4063C11.8902 48.7069 12.1295 46.8593 10.1174 52.8485C8.75702 56.8975 7.48828 60.7928 6.14793 64.7784C5.44656 66.8638 4.94686 69.8693 7.92837 69.7617C10.3158 69.6755 10.9044 67.4583 11.5718 65.4977C12.2199 63.5942 14.8311 54.903 15.5491 53.8038L43.847 53.8125L47.3695 64.5265C40.7293 64.7226 22.7108 64.1563 18.6924 64.5735C16.5669 64.794 15.7014 66.8712 16.9526 68.7474C18.0377 70.3744 20.292 69.9277 22.7151 69.9276C27.2684 69.9274 31.8221 69.9318 36.3753 69.9274C55.4274 69.9092 55.2926 71.4108 52.1087 61.6069C50.9745 58.1144 49.8062 54.7266 48.6413 51.1762C47.3619 47.2767 44.8803 48.6076 37.7294 48.4099L37.7356 41.2113C40.6541 39.7488 42.8454 37.8462 44.5447 35.547C47.3537 31.7463 47.0553 30.867 48.244 27.0263C50.5035 26.6755 51.8549 27.2608 54.117 26.3073C60.2647 23.7161 59.2258 17.3749 59.2151 11.9265C59.2093 9.00395 59.7808 6.24474 57.3037 5.5666C56.0818 5.23214 50.5958 5.46205 48.4767 5.41914C48.4131 2.93111 48.6615 0.676105 46.3508 0.145236C43.8221 -0.435717 43.0892 1.79009 43.0898 4.0887L43.0888 15.2856C43.0874 22.0096 43.8285 28.6073 39.4082 33.3257C33.6817 39.4384 24.6712 39.1216 19.136 32.3004C16.3488 28.8656 16.1894 25.8733 16.195 20.4361L16.2341 5.44993Z" fill="#CE171E" fill-opacity="0.7"/>
</svg>
