<svg width="70" height="70" viewBox="0 0 70 70" fill="none" xmlns="http://www.w3.org/2000/svg">
<path fill-rule="evenodd" clip-rule="evenodd" d="M47.4698 61.6275C47.881 60.2854 49.1797 58.3122 49.8254 56.7915C50.4585 55.3005 51.2516 53.3002 51.5994 51.5908C57.3934 50.0663 59.2812 48.2325 61.6236 47.5009C60.6532 51.9322 51.8929 60.6376 47.4698 61.6275ZM53.0662 24.6287C56.4972 25.3179 64.6278 29.9695 64.6194 35.0217C64.6143 38.0686 61.9352 40.4901 60.3529 41.7391C58.9227 42.8681 55.3195 44.9714 53.0846 45.4255C54.1362 33.1259 54.0857 36.8353 53.0662 24.6287ZM16.931 45.4149C14.5031 44.9005 11.1274 42.8276 9.55642 41.6018C-1.63001 32.8726 13.05 25.4229 16.9098 24.6226C15.8759 36.9717 15.9005 33.1409 16.931 45.4149ZM8.37532 22.5392C9.31551 18.185 18.0689 9.4155 22.5255 8.41713C22.1072 9.76264 20.822 11.7191 20.1583 13.2403C16.8997 20.7104 20.6442 16.9193 13.2005 20.1896C11.6752 20.8598 9.74509 22.0898 8.37532 22.5392ZM47.491 8.32283C50.2889 9.05195 54.1479 12.4308 55.7708 14.0395C57.2522 15.5078 61.0178 19.8574 61.6245 22.5621C60.5957 22.2618 59.6871 21.6293 58.7545 21.1581C51.6695 17.5789 42.4965 16.1624 34.55 16.1818C32.0061 16.188 28.8279 15.9263 27.9939 17.9228C26.7412 20.9219 29.4625 21.8387 32.0499 21.661C33.8585 21.5368 45.8674 21.7683 47.042 23.0046C47.8837 23.9574 48.2564 30.0262 48.3738 31.7194C48.598 34.9512 48.4313 38.2552 48.1344 41.4324C47.6187 46.9504 45.9437 53.0423 43.6989 57.1821C41.8299 60.6288 37.5115 66.9757 31.8745 63.7154C27.7068 61.305 26.7213 55.5617 23.3416 57.918C21.9899 58.8604 22.1093 59.9543 22.5 61.7182C17.8541 60.4754 9.35604 51.9011 8.37265 47.4799C9.43985 47.8009 10.4404 48.5072 11.5384 49.0429C15.438 50.945 17.483 51.4193 21.8387 52.4106C26.9295 53.5692 33.3133 54.142 38.8136 53.7855C43.2901 53.4955 42.5122 49.8772 41.285 48.9259C39.9227 47.8699 35.1969 48.5194 32.9696 48.4551C30.1312 48.3731 27.3979 48.0147 24.6689 47.5735C22.591 47.2376 22.789 47.4192 22.4575 45.3459C20.5335 33.3145 21.6764 19.6957 27.5529 10.7557C29.7079 7.47739 33.8375 3.12242 39.0634 6.95538C42.0639 9.15618 43.6235 14.4298 46.7866 11.8039C47.8585 10.9139 47.8081 9.75818 47.491 8.32283ZM31.9213 0.200325C20.3497 1.50259 14.1292 6.14893 8.62209 12.028C3.39626 17.6069 -0.850188 27.5127 0.145802 38.1759C1.84628 56.3817 17.6955 71.6886 38.1448 69.8498C56.4043 68.208 71.6813 52.1797 69.8509 31.8782C69.3786 26.6411 67.9371 22.3454 65.792 18.379C59.6089 6.94642 46.289 -1.41665 31.9213 0.200325Z" fill="#CE171E" fill-opacity="0.7"/>
</svg>
