<svg width="70" height="70" viewBox="0 0 70 70" fill="none" xmlns="http://www.w3.org/2000/svg">
<path fill-rule="evenodd" clip-rule="evenodd" d="M59.2161 5.40672C59.569 13.4094 59.2525 22.2059 59.245 30.2933C59.243 32.3677 59.2342 34.2758 61.1285 34.6669C63.0811 35.0701 64.4636 33.9388 64.6169 32.3123C64.8784 29.5369 64.6258 11.8366 64.6357 7.39764C64.6492 1.3007 65.2968 -0.00691721 59.6948 0.00160891L10.0613 1.82171e-05C4.49977 -0.00640819 5.35373 1.68584 5.34628 7.62211C5.34163 11.3037 5.12079 30.665 5.38181 32.5166C5.608 34.1214 7.18311 35.4153 9.19805 34.582C10.8206 33.9109 10.7421 32.1162 10.738 30.0687C10.722 22.0148 10.4511 13.3909 10.7602 5.38865L59.2161 5.40672ZM39.9312 20.8473C36.9915 20.3619 30.9183 14.9802 28.0804 16.6525C27.1471 17.2024 24.6744 19.9085 23.7391 20.8433C22.2641 22.3176 20.947 23.634 19.472 25.1082C18.4201 26.1596 15.8229 27.991 16.2253 30.1962C16.6216 32.3672 19.22 33.077 21.4862 30.7129C23.4735 28.6398 28.6541 23.7744 29.9672 22.1946C33.8516 23.1589 39.1998 28.2089 41.9183 26.4414L52.7209 15.6919C55.7314 12.9609 52.1645 8.58296 48.5574 12.2033C45.6579 15.1134 42.7276 17.8679 39.9312 20.8473ZM9.69499 45.986C16.1893 44.2206 18.6212 55.3632 11.8526 56.3376C4.5099 57.3946 3.01373 47.8023 9.69499 45.986ZM17.8573 59.547C18.2414 58.4864 19.0965 57.9302 19.7024 56.9875C20.278 56.0918 20.7297 55.1567 21.0523 54.0466C23.1008 46.9978 17.441 40.4306 10.7358 40.4109C3.27754 40.3889 -1.36109 47.5319 0.375915 54.1033C1.12897 56.9521 2.32415 57.6195 3.58999 59.249C3.22808 59.9561 3.13309 59.8464 2.54556 60.4909C0.295702 62.9586 -1.72211 69.194 2.30995 69.9013C5.48787 70.4588 4.86328 67.5061 5.7809 65.2851C6.48665 63.5769 8.16897 61.95 10.7377 62.0341C16.3304 62.2172 15.9732 67.8161 16.5369 68.7142C16.9439 69.3627 17.9806 70.094 19.2215 69.9633C23.3481 69.5288 21.0751 61.6136 17.8573 59.547ZM53.9822 52.2906C53.3902 49.1564 55.7936 46.5512 58.0602 45.9664C61.2357 45.1472 63.7301 47.4588 64.271 49.9513C65.9666 57.7646 55.1353 58.3946 53.9822 52.2906ZM66.3621 59.5523C66.9272 58.0201 68.5589 57.5134 69.561 54.0458C70.2496 51.6632 70.1319 49.2831 69.1814 47.0738C67.744 43.7322 64.0625 40.4442 59.2459 40.4126C51.8562 40.364 47.1382 47.4364 48.8873 54.1159C49.6289 56.9485 50.8508 57.6288 52.0956 59.249C51.7075 59.9786 50.8354 60.6672 50.1928 61.6509C45.3818 69.0153 51.926 72.03 53.5149 68.5673C53.8986 67.7311 53.9026 61.8412 59.2361 62.014C61.5561 62.0891 63.4949 63.6565 64.1992 65.2877C64.6672 66.3715 64.3288 70.3447 67.7361 69.9759C71.6325 69.5543 69.8871 61.9144 66.3621 59.5523ZM29.7259 52.2906C29.1398 49.1476 31.5315 46.5552 33.8052 45.9657C37.003 45.1366 39.4696 47.4471 40.0195 49.9711C41.7115 57.738 30.8659 58.4041 29.7259 52.2906ZM42.1168 59.5435C42.5507 58.3798 47.852 53.852 44.9268 47.0746C41.1678 38.3656 28.665 38.1187 25.0792 47.0934C24.218 49.2489 24.0085 51.6852 24.6268 54.0867C25.3864 57.0368 26.646 57.5847 27.8166 59.249C26.6391 60.9751 25.472 61.4637 24.6246 64.365C23.9138 66.7982 23.8464 69.6216 26.4583 69.8489C30.0831 70.1645 29.181 67.1249 30.0961 65.1259C32.2283 60.4676 38.3107 61.4722 39.9544 65.2906C40.5087 66.5784 39.9108 70.2278 43.5253 69.8805C47.5967 69.4894 45.4858 61.9181 42.1168 59.5435Z" fill="#CE171E" fill-opacity="0.7"/>
</svg>
