<svg width="70" height="54" viewBox="0 0 70 54" fill="none" xmlns="http://www.w3.org/2000/svg">
<path fill-rule="evenodd" clip-rule="evenodd" d="M5.5722 5.47045L59.2261 5.48315C59.6129 10.4602 59.2697 16.8737 59.2713 22.0078C59.2722 24.7157 59.3666 27.6315 62.7826 26.6659C65.1979 25.983 64.6439 23.1356 64.6425 20.4405C64.6397 14.9161 64.6555 9.39071 64.6493 3.86658C64.6456 0.525244 63.3772 0.0820729 60.1581 0.0947023L10.9015 0.0994622C1.1997 0.0762977 0.166939 -1.14692 0.154754 5.66389L0.154183 30.2916C0.185407 49.0103 -1.66172 48.46 6.64761 48.4671C9.40882 48.4695 12.1703 48.4704 14.9315 48.4684C18.7347 48.4657 46.0442 48.9219 47.3767 47.958C49.2138 46.629 48.7775 43.7248 46.1657 43.1823C45 42.9402 10.073 43.2106 5.52733 43.0788L5.5722 5.47045ZM21.6957 29.8438C21.9122 31.9825 23.6433 32.3607 25.9009 32.35L39.3389 32.3524C41.4197 32.3568 43.305 31.8005 43.0068 29.3979C42.7275 27.1475 40.8899 26.9518 38.6648 26.965C36.4269 26.9783 34.1855 26.9621 31.947 26.9664C28.6245 26.9728 21.285 25.7875 21.6957 29.8438ZM61.2048 37.9743C64.1788 36.6869 66.1782 41.5155 62.9952 42.7569C61.5182 43.3331 59.9191 42.7758 59.5167 41.4284C58.9918 39.6705 59.8264 38.5709 61.2048 37.9743ZM64.6857 47.9973C73.5527 44.2404 70.3658 32.6215 62.1538 32.3555C57.9879 32.2206 54.8594 35.2834 54.164 38.8874C53.7174 41.2024 54.146 43.2529 55.2435 44.8289C56.7982 47.0615 57.9085 47.0044 59.213 47.9788C59.4554 50.4185 58.6706 53.8913 61.925 53.7441C65.3601 53.5887 64.5741 49.7073 64.6857 47.9973ZM10.986 19.0972C11.4293 22.6758 17.2018 21.5838 20.5287 21.5902L44.7086 21.5916C47.6604 21.5935 54.291 22.7795 53.8393 18.6968C53.6405 16.8998 52.2225 16.2101 50.3161 16.2095L20.0809 16.2166C16.9087 16.223 10.4991 15.1655 10.986 19.0972Z" fill="#CE171E" fill-opacity="0.7"/>
</svg>
