<svg width="70" height="70" viewBox="0 0 70 70" fill="none" xmlns="http://www.w3.org/2000/svg">
<path fill-rule="evenodd" clip-rule="evenodd" d="M31.0306 5.61863C33.5569 5.26609 36.4346 5.2465 38.9667 5.65068C39.3373 7.64056 39.3476 10.4406 39.81 12.2533C40.299 14.1699 42.5998 14.9153 44.3823 13.5777C46.0481 12.3279 45.1962 9.81303 44.9522 7.59705C44.7563 5.81706 44.7174 2.70801 43.7458 1.55467C42.0384 -0.471896 33.1382 -0.0451998 30.3131 0.25932C27.9416 0.514931 25.9102 1.02717 25.5093 3.09578C25.1525 4.93645 24.9364 7.62491 24.7594 9.58349C23.9372 10.1899 21.0772 11.3527 19.8676 12.0578C18.9929 12.5676 18.4198 13.0569 17.628 13.5375C16.7187 14.0893 16.1583 13.5675 15.0594 13.0971C9.06314 10.53 8.78562 9.84286 5.54096 13.9292C3.79844 16.1237 1.26375 19.9981 0.351916 23.1315C-0.472942 25.9657 0.737296 26.5565 2.48088 27.7419C8.38344 31.7549 6.46986 29.5627 6.47548 34.9777C6.48124 40.4818 8.38893 38.1577 2.34436 42.3057C0.788047 43.3738 -0.645145 44.2668 0.305317 46.8654C1.5882 50.3726 3.5153 53.4609 5.54618 56.0195C8.99003 60.3583 10.1738 59.0084 15.3855 56.7162C17.8779 55.6199 17.779 56.7009 20.0123 57.9788C21.2419 58.6824 23.9076 59.7548 24.7632 60.3665C24.9729 62.7045 25.0715 67.4994 26.5355 68.6136C28.7894 70.3288 41.1915 70.6917 43.6701 68.3239C45.4608 66.6132 44.2818 62.4052 45.3608 60.2829C46.0503 59.7962 47.0669 59.4867 47.8868 59.0911C52.9654 56.6407 51.5385 55.4747 54.9522 56.8882C61.0655 59.4196 61.1712 60.1376 64.5402 55.8389C66.066 53.8921 68.848 49.6485 69.6081 46.7559C70.3793 43.8211 68.9932 43.2596 67.3708 42.1637C66.1434 41.3345 64.3507 39.8742 63.1315 39.2598C63.3174 35.8546 63.3183 34.0911 63.1325 30.6928C64.5394 29.9669 66.9219 28.112 68.3314 27.132C70.8142 25.4057 70.101 24.1049 68.9199 21.3978C67.5723 18.3095 64.2055 12.8086 61.8741 11.4806C59.9802 10.4019 57.3346 12.0747 55.6046 12.7979C54.0472 13.4488 50.7554 14.3476 49.9621 15.7449C48.6308 18.09 50.8531 20.4069 53.6683 19.4782C55.5339 18.8627 58.0212 17.4425 59.8173 17.0615C60.7877 18.4749 63.3802 21.7663 63.6779 23.8246C63.0231 24.0746 58.8285 26.957 58.1717 27.5747C56.4879 29.1582 57.7907 32.6235 57.7681 35.2008C57.742 38.1679 56.2836 40.9132 58.4172 42.5896C59.8267 43.6971 62.5395 45.2392 63.6421 46.4191C63.0355 48.7644 60.8894 51.1794 59.8332 52.9169C57.7772 52.5532 54.8008 50.5421 52.9226 50.2396C51.2345 49.9677 50.41 50.9523 49.5262 51.6714C46.1208 54.442 41.1504 55.6621 40.3233 56.6141C39.4538 57.615 39.2477 62.5027 38.9376 64.2823C37.6325 64.55 36.1498 64.5995 34.7827 64.5907L30.9969 64.1025C30.1006 62.2025 31.0115 58.2303 29.3476 56.5165C28.2126 55.3474 24.5657 54.8187 20.2316 51.493C16.1978 48.3976 14.9556 51.8463 10.2193 52.8551C9.19042 52.0213 6.73586 47.9445 6.27141 46.4191C7.22147 45.2555 10.2222 43.7172 11.5828 42.5541C13.5891 40.8389 12.1397 37.8279 12.1408 34.974C12.1418 32.1623 13.6327 28.9265 11.5989 27.383C10.3884 26.4644 7.02604 24.4342 6.28594 23.5335C6.70687 22.01 9.20013 17.9724 10.2193 17.0735C15.162 17.9681 16.0614 21.8392 20.4794 18.2456C23.9979 15.3837 28.6855 14.4124 29.6378 13.2606C30.5535 12.153 30.6698 7.37089 31.0306 5.61863ZM34.1704 32.5216C37.3534 31.2529 39.3447 36.1461 36.0744 37.3391C32.389 38.6835 30.5763 33.9542 34.1704 32.5216ZM43.3637 36.0982C44.1587 31.5637 40.1918 27.7053 36.3206 27.0326C31.397 26.1769 27.2316 29.8516 26.5811 33.6921C25.7881 38.3732 29.7597 42.2706 33.6843 42.9373C38.7018 43.7898 42.6844 39.9739 43.3637 36.0982Z" fill="#CE171E" fill-opacity="0.7"/>
</svg>
