<svg width="70" height="70" viewBox="0 0 70 70" fill="none" xmlns="http://www.w3.org/2000/svg">
<path fill-rule="evenodd" clip-rule="evenodd" d="M32.2971 64.5788C32.3512 66.7934 31.9678 69.4304 34.3809 69.9054C37.0252 70.426 37.7056 68.3693 37.6935 66.1386C37.6833 64.2436 38.2374 61.1559 36.8007 59.848C35.5004 58.6643 32.2998 59.1939 30.2915 59.1898C25.4342 59.18 20.5741 59.1809 15.7167 59.1873C13.1581 59.1907 11.2218 59.3194 10.8344 56.9101C10.6136 55.5365 10.7752 23.8277 10.7822 20.8639C10.8018 12.5352 9.5983 10.7493 15.2679 10.7751L44.1936 10.7778C60.1446 10.7409 59.2232 9.43995 59.2197 17.5021L59.2164 39.0172C59.2113 43.8721 59.206 48.7301 59.2183 53.5848C59.2344 59.9886 58.9174 59.2069 50.4719 59.1898C42.7391 59.1742 43.0489 58.5277 43.0683 66.3655C43.0738 68.5999 44.023 70.5496 46.5667 69.8586C48.8333 69.2428 48.4127 66.7694 48.4662 64.5661L53.8176 64.5842C53.8837 66.9444 53.4676 70.1525 56.741 69.9551C59.7247 69.7751 59.1489 66.577 59.238 64.0854C61.6761 63.159 63.1861 61.6414 64.1134 59.208C66.6064 59.1228 69.8091 59.6941 69.9897 56.7132C70.1897 53.4098 66.9145 53.8555 64.5999 53.7912L64.6105 48.4425C67.0812 48.3821 69.9914 48.7573 69.9965 45.7406C70.0016 42.7431 67.085 43.081 64.598 43.0398L64.6105 37.6849C67.0804 37.6246 69.9919 38.0017 69.9979 34.9829C70.004 31.9704 67.0794 32.3416 64.5981 32.2813L64.615 26.9318C67.0857 26.8529 70.0024 27.2465 69.9983 24.2256C69.9942 21.208 67.0853 21.5842 64.5978 21.5238L64.615 16.1742C66.9635 16.1178 70.2105 16.5194 69.9893 13.2549C69.7831 10.2127 66.457 10.8485 64.1196 10.753C63.1579 8.30132 61.7062 6.82796 59.2389 5.87814C59.1644 3.37192 59.7118 0.197505 56.7407 0.0105394C53.5463 -0.19053 53.8769 2.86394 53.8229 5.39919L48.4662 5.38833C48.4058 2.91381 48.782 0.00895119 45.7628 0.00342417C42.7523 -0.00197579 43.1151 2.90594 43.0556 5.39773L37.7034 5.38744C37.6428 2.91114 38.0191 0.00952304 34.9998 0.00113722C31.9817 -0.0072486 32.3715 2.91743 32.2927 5.39926L26.9405 5.38744C26.8803 2.92169 27.2501 -0.00229341 24.2373 0.00107363C21.222 0.00444066 21.5945 2.92156 21.5342 5.39964L16.1767 5.38744C16.1345 2.8593 16.4431 -0.192499 13.2594 0.00952347C10.2758 0.198776 10.8494 3.3831 10.7634 5.88525C8.33269 6.81208 6.81277 8.32699 5.88797 10.7582C3.38324 10.8443 0.200394 10.2696 0.00964956 13.2533C-0.193871 16.4355 2.86186 16.1268 5.40249 16.1689L5.38991 21.5238C2.92173 21.5841 0.00431065 21.2099 0.00106907 24.2256C-0.00223607 27.2373 2.92319 26.8672 5.40243 26.9274L5.38546 32.277C2.91728 32.3558 -0.00611306 31.9656 0.00125994 34.9828C0.00863294 38.001 2.91461 37.6244 5.40262 37.6849L5.38546 43.0345C3.06843 43.0902 0.011684 42.6761 0.00303981 45.7421C-0.00541371 48.7553 2.9291 48.3824 5.40141 48.4425L5.38991 53.7965C2.86497 53.8504 -0.189612 53.5197 0.0106031 56.7127C0.196771 59.6831 3.37479 59.1356 5.88352 59.2098C6.84671 61.6814 8.2915 63.114 10.7581 64.0872C10.8536 66.424 10.219 69.7491 13.2612 69.9547C16.5043 70.1739 16.1254 66.9344 16.182 64.5685L21.5342 64.5788C21.5947 67.0531 21.2201 69.9588 24.2375 69.9638C27.258 69.9688 26.866 67.0509 26.9449 64.567L32.2971 64.5788ZM37.546 19.7433C37.9339 18.7403 37.6603 17.5791 36.7967 16.823C35.8574 16.0006 34.8674 16.1541 33.4313 16.1589C26.7175 16.1814 17.3733 14.7054 16.2512 23.1426C16.0222 24.864 16.1598 36.5383 16.1659 39.2413C16.1797 45.2499 15.497 49.1994 19.3849 52.1605C22.6453 54.6437 29.1308 53.8045 33.8791 53.8092C37.7311 53.8131 46.3885 54.3634 49.2221 52.9992C54.434 50.4902 53.8245 45.7629 53.8345 41.4825C53.8469 36.1039 53.8228 30.7245 53.8346 25.3459C53.8407 22.56 53.3226 20.8324 52.0093 19.1028C51.0608 17.8539 49.1054 16.5455 46.8438 16.2385C44.1763 15.8764 42.0927 17.7506 43.3535 20.1238C44.6051 22.4795 47.3597 20.5922 48.2715 23.2782C48.7055 24.5567 48.4603 36.8052 48.4547 39.2413C48.4324 48.8457 49.3809 48.4369 41.5028 48.433C36.1216 48.4303 30.7358 48.4107 25.3551 48.4364C21.9238 48.4529 21.5257 47.4562 21.5424 44.1726L21.544 28.0355C21.5407 25.6169 20.9666 22.4616 23.2774 21.6977C24.3165 21.3542 29.6397 21.5325 31.1884 21.5333C33.668 21.5345 36.5998 22.1896 37.546 19.7433ZM26.9383 35.4314C27.3017 38.0238 30.7441 37.8935 33.5522 37.7437C35.4203 37.7437 37.3787 37.8136 39.2362 37.7437C41.3309 37.6699 43.3907 37.1368 43.0648 34.5611C42.7314 31.9256 39.2059 32.0721 36.3746 32.2242C34.5547 32.2242 32.672 32.1669 30.8596 32.2242C28.798 32.2242 26.579 32.868 26.9383 35.4314Z" fill="#CE171E" fill-opacity="0.7"/>
</svg>
