<svg width="0" height="0" class="hidden">
  <symbol fill="none" xmlns="http://www.w3.org/2000/svg" viewBox="0 0 6 16" id="ic_arrow_right">
    <path d="M0.76433 16L1.14862e-07 14.8321L4.50956 8L1.45875e-06 1.16788L0.764332 -1.77371e-06L6 8L0.76433 16Z" fill="currentColor"></path>
  </symbol>
  <symbol fill="none" xmlns="http://www.w3.org/2000/svg" viewBox="0 0 6 10" id="ic_arrow_right2">
    <path d="M0.764331 10L-3.2042e-08 9.27007L4.50956 5L-4.06933e-07 0.729927L0.76433 -3.30393e-08L6 5L0.764331 10Z" fill="currentColor"></path>
  </symbol>
  <symbol fill="none" xmlns="http://www.w3.org/2000/svg" viewBox="0 0 30 29" id="ic_close">
    <line x1="1" y1="-1" x2="19" y2="-1" transform="matrix(0.707101 0.707113 -0.707101 0.707113 7.22144 7.77808)" stroke="currentColor" stroke-width="2" stroke-linecap="round"></line>
    <line x1="1" y1="-1" x2="19" y2="-1" transform="matrix(0.70711 -0.707104 0.70711 0.707104 8.6355 21.9202)" stroke="currentColor" stroke-width="2" stroke-linecap="round"></line>
  </symbol>
  <symbol fill="none" xmlns="http://www.w3.org/2000/svg" viewBox="0 0 25 24" id="ic_facebook">
    <path d="M17.7986 8.49544H13.7359V5.6917C13.7359 4.9178 14.3425 4.28977 15.0903 4.28977H16.4445V0.785156H13.7359C11.492 0.785156 9.67324 2.66775 9.67324 4.99069V8.49544H6.9646V12H9.67324V23.2148H13.7359V12H16.4445L17.7986 8.49544Z" fill="#1B80E4"></path>
  </symbol>
  <symbol xmlns="http://www.w3.org/2000/svg" viewBox="0 0 24 24" id="ic_grid">
    <path d="M10 3H3V10H10V3Z" stroke="currentColor" stroke-width="2" stroke-linecap="round" stroke-linejoin="round" fill="none"></path>
    <path d="M21 3H14V10H21V3Z" stroke="currentColor" stroke-width="2" stroke-linecap="round" stroke-linejoin="round" fill="none"></path>
    <path d="M21 14H14V21H21V14Z" stroke="currentColor" stroke-width="2" stroke-linecap="round" stroke-linejoin="round" fill="none"></path>
    <path d="M10 14H3V21H10V14Z" stroke="currentColor" stroke-width="2" stroke-linecap="round" stroke-linejoin="round" fill="none"></path>
  </symbol>
  <symbol xmlns="http://www.w3.org/2000/svg" viewBox="0 0 24 24" id="ic_list">
    <path d="M21 3H3V10H21V3Z" stroke="currentColor" stroke-width="2" stroke-linecap="round" stroke-linejoin="round" fill="none"></path>
    <path d="M21 14H3V21H21V14Z" stroke="currentColor" stroke-width="2" stroke-linecap="round" stroke-linejoin="round" fill="none"></path>
  </symbol>
  <symbol fill="none" xmlns="http://www.w3.org/2000/svg" viewBox="0 0 10 11" id="ic_location">
    <path d="M9.55209 0.552095L5.61891 10.1041L4.2142 5.88999L7.02763e-05 4.48528L9.55209 0.552095Z" fill="currentColor"></path>
  </symbol>
  <symbol fill="none" xmlns="http://www.w3.org/2000/svg" viewBox="0 0 30 26" id="ic_menu">
    <path d="M1.13336 13L28.8667 13" stroke="currentColor" stroke-width="2" stroke-linecap="round" stroke-linejoin="round"></path>
    <path d="M1.1333 1L28.8666 1" stroke="currentColor" stroke-width="2" stroke-linecap="round" stroke-linejoin="round"></path>
    <path d="M1.1333 25L28.8666 25" stroke="currentColor" stroke-width="2" stroke-linecap="round" stroke-linejoin="round"></path>
  </symbol>
  <symbol xmlns="http://www.w3.org/2000/svg" viewBox="0 0 24 24" id="ic_sort">
    <path d="M3 12H15" stroke="currentColor" stroke-width="2" stroke-linecap="round" stroke-linejoin="round" fill="none"></path>
    <path d="M3 6H9" stroke="currentColor" stroke-width="2" stroke-linecap="round" stroke-linejoin="round" fill="none"></path>
    <path d="M3 18H21" stroke="currentColor" stroke-width="2" stroke-linecap="round" stroke-linejoin="round" fill="none"></path>
  </symbol>
  <symbol xmlns="http://www.w3.org/2000/svg" viewBox="0 0 26 28" id="ic_share">
    <path d="M22.9087 5.09078C22.9087 4.38462 22.6254 3.74821 22.1684 3.29123L22.1631 3.28594C21.7062 2.82896 21.0698 2.54563 20.3636 2.54563C19.6574 2.54563 19.021 2.82896 18.5641 3.28594V3.29123C18.1042 3.7511 17.8184 4.38799 17.8184 5.09078C17.8184 5.53958 17.9349 5.96193 18.1393 6.32848L18.1658 6.37129L18.1922 6.41843C18.2976 6.59016 18.4226 6.7489 18.5641 6.89033C19.0239 7.35019 19.6613 7.63593 20.3636 7.63593C21.0664 7.63593 21.7033 7.35019 22.1631 6.89033L22.2213 6.83597C22.6471 6.38332 22.9087 5.76952 22.9087 5.09078ZM16.7462 8.67255L9.99059 12.6156C10.1152 13.0562 10.1816 13.5199 10.1816 14C10.1816 14.4806 10.1147 14.9457 9.99011 15.3863L16.7491 19.325L16.764 19.3096C17.6847 18.389 18.9585 17.8184 20.3636 17.8184C21.7692 17.8184 23.0425 18.389 23.9617 19.3111C24.8834 20.2361 25.4544 21.5089 25.4544 22.9092C25.4544 24.3076 24.8858 25.577 23.9661 26.5006L23.9603 26.5059C23.0343 27.43 21.7634 28 20.3636 28C19.0037 28 17.7641 27.4617 16.8477 26.5853L16.764 26.5088C15.8433 25.5881 15.2728 24.3148 15.2728 22.9092C15.2728 22.4263 15.3402 21.9592 15.4662 21.5166L8.71007 17.5794L8.69035 17.5996C7.76388 18.5198 6.49107 19.0908 5.09078 19.0908C3.69241 19.0908 2.42297 18.5222 1.49938 17.6025L1.49409 17.5967C0.570025 16.6707 0 15.3998 0 14C0 12.6016 0.568581 11.3322 1.48832 10.4086L1.49409 10.4033C2.42008 9.47925 3.69097 8.90922 5.09078 8.90922C6.45066 8.90922 7.69028 9.4475 8.60665 10.3239L8.69035 10.4004L8.70815 10.4182L15.4638 6.47519C15.3392 6.03505 15.2728 5.57037 15.2728 5.09078C15.2728 3.6852 15.8433 2.4119 16.764 1.4912C17.6905 0.570987 18.9633 0 20.3636 0C21.762 0 23.0314 0.568581 23.9564 1.48976L23.9632 1.4965C24.8843 2.42008 25.4544 3.69097 25.4544 5.09078C25.4544 6.45066 24.9161 7.69028 24.0397 8.60665L23.9632 8.69035C23.0425 9.61105 21.7692 10.1816 20.3636 10.1816C18.9585 10.1816 17.6847 9.61105 16.764 8.69035L16.7462 8.67255ZM7.31508 12.7623L7.28862 12.7195L7.26217 12.6723C7.15682 12.5006 7.03175 12.3419 6.89033 12.2005L6.83597 12.1423C6.38332 11.7165 5.76952 11.4549 5.09078 11.4549C4.38462 11.4549 3.74821 11.7382 3.29123 12.1952L3.28594 12.2005C2.82896 12.6574 2.54563 13.2938 2.54563 14C2.54563 14.7062 2.82896 15.3426 3.28594 15.7995L3.29123 15.8048C3.74821 16.2618 4.38462 16.5451 5.09078 16.5451C5.79694 16.5451 6.43334 16.2618 6.89033 15.8048V15.7995C7.35019 15.3397 7.63593 14.7028 7.63593 14C7.63593 13.5507 7.51952 13.1288 7.31508 12.7623ZM18.236 21.5123C18.2187 21.5503 18.1999 21.5873 18.1787 21.6239C18.1552 21.6643 18.1297 21.7033 18.1027 21.7403C17.9214 22.0905 17.8184 22.4878 17.8184 22.9092C17.8184 23.612 18.1042 24.2489 18.5641 24.7088L18.6184 24.767C19.0711 25.1927 19.6849 25.4544 20.3636 25.4544C21.0698 25.4544 21.7062 25.171 22.1631 24.7141L22.1684 24.7088C22.6254 24.2518 22.9087 23.6154 22.9087 22.9092C22.9087 22.2031 22.6254 21.5667 22.1684 21.1097H22.1631C21.7033 20.6498 21.0664 20.3641 20.3636 20.3641C19.6613 20.3641 19.0239 20.6498 18.5641 21.1097C18.4419 21.2319 18.3317 21.367 18.236 21.5123Z" fill="currentColor"></path>
  </symbol>
  <symbol xmlns="http://www.w3.org/2000/svg" viewBox="0 0 25 23" id="ic_star">
    <path d="M12.5 0L15.3064 8.63729H24.3882L17.0409 13.9754L19.8473 22.6127L12.5 17.2746L5.15268 22.6127L7.95911 13.9754L0.611794 8.63729H9.69357L12.5 0Z" fill="currentColor"></path>
  </symbol>
  <symbol fill="none" xmlns="http://www.w3.org/2000/svg" viewBox="0 0 24 24" id="ic_telegram">
    <path d="M22.0077 4.60471L18.8558 19.9502C18.618 21.0332 17.9978 21.3027 17.1166 20.7926L12.3141 17.1391L9.99682 19.44C9.74045 19.7047 9.52591 19.9262 9.03167 19.9262L9.37666 14.8767L18.2776 6.57342C18.6646 6.21726 18.1937 6.01987 17.6761 6.37607L6.67237 13.5289L1.93512 11.9983C0.904676 11.6661 0.886059 10.9344 2.14957 10.4242L20.6789 3.05479C21.5367 2.72268 22.2875 3.25209 22.0077 4.60471Z" fill="#20A0E1"></path>
  </symbol>
  <symbol fill="none" xmlns="http://www.w3.org/2000/svg" viewBox="0 0 31 32" id="ic_cart">
    <path fill-rule="evenodd" clip-rule="evenodd" d="M11.8832 27.9487C11.373 29.2848 9.19055 28.6947 9.76743 27.2009C10.3243 25.7591 12.3918 26.6168 11.8832 27.9487ZM25.7208 28.045C25.1691 29.2726 22.9347 28.6492 23.6962 27.0724C24.3437 25.7318 26.3147 26.7239 25.7208 28.045ZM21.2495 28.045C21.4486 29.787 23.0917 31.2315 25.143 31.0082C26.8484 30.8225 28.3697 29.1178 28.1077 27.0972C27.8942 25.451 26.1977 23.8854 24.2202 24.1464C22.5144 24.3716 21.0163 26.0048 21.2495 28.045ZM24.5729 21.7998C28.7439 21.8009 27.7216 22.8952 29.2834 13.8928C29.5994 12.0713 29.8701 10.2763 30.1947 8.43265C30.7441 5.31141 30.1569 5.61343 27.1728 5.61313C22.9682 5.61272 18.7632 5.60644 14.5587 5.61267C13.4994 5.61425 12.4391 5.6155 11.3799 5.6116C10.3169 5.60767 9.41579 5.84708 9.76669 7.1277C10.0347 8.1059 11.0338 7.92259 12.1514 7.92428L27.9305 7.93203L26.0074 19.4873L11.5729 19.4691C11.3059 18.4905 10.7633 17.2785 10.4078 16.3126C9.99938 15.2029 9.62542 14.2408 9.22036 13.154C8.45408 11.0981 7.6572 8.98387 6.88901 6.92938C6.48373 5.84546 6.11678 4.88015 5.70168 3.77244C5.35672 2.85194 5.03538 1.23427 4.12637 1.02672C3.70141 0.929688 2.45076 0.984251 1.94124 0.984551C1.14365 0.984988 0.760895 1.13224 0.522282 1.68126C-0.331069 3.64459 2.90336 3.29971 2.90751 3.30061C3.19449 3.36427 3.58716 4.72413 3.77776 5.22472C4.5019 7.12656 8.93125 18.7709 9.09322 19.4828C7.93332 19.5051 7.16783 19.6129 6.43618 20.2114C4.96886 21.4115 4.51309 23.3115 5.66226 24.9048C6.24905 25.7183 6.57481 25.7919 7.57957 26.3118C7.34715 27.7294 7.13617 28.4217 7.98594 29.611C8.45689 30.2702 9.45433 30.9645 10.7092 31.0251C12.1076 31.0926 13.0452 30.3462 13.5535 29.6396C14.3719 28.5017 14.2819 27.9055 14.1068 26.4452C15.8807 26.2971 19.6585 27.0748 18.7408 24.8263C18.3705 23.9189 17.3427 24.1112 16.2919 24.1129L9.93674 24.1133C8.87606 24.1123 7.8029 24.3049 7.44113 23.4234C7.05993 22.4947 7.87305 21.8055 8.77602 21.796L24.5729 21.7998Z" fill="currentColor"></path>
  </symbol>
  <symbol fill="none" xmlns="http://www.w3.org/2000/svg" viewBox="0 0 31 22" id="ic_compare">
    <path fill-rule="evenodd" clip-rule="evenodd" d="M8.7436 12.1969C7.13886 12.2208 5.51868 12.2023 3.91236 12.2014C0.0941701 12.1992 0.651656 11.6325 0.648227 18.538C0.647192 20.5951 0.325106 21.4287 2.56782 21.4196L26.668 21.4184C27.4687 21.4194 28.2716 21.4242 29.0719 21.4211C29.9093 21.418 30.4583 21.2496 30.5228 20.4568C30.6679 18.6731 28.5215 19.1161 27.0521 19.1142C25.4519 19.1122 23.8515 19.1132 22.2513 19.1137C15.871 19.1158 9.3172 19.2599 2.95822 19.1081L2.95258 14.5114C4.57273 14.4721 7.849 14.5056 7.849 14.5056C12.3496 14.5108 10.7391 15.1117 11.0615 3.0275L20.2655 2.9824C20.3039 4.21811 20.2729 5.49284 20.2726 6.72811C20.2719 10.988 19.9948 9.68902 28.2939 9.903C28.3176 11.0072 28.1156 15.6341 28.4658 16.2607C28.891 17.0215 30.2748 16.8414 30.5463 15.9889C30.672 15.5942 30.6012 10.3038 30.6061 9.41593C30.613 8.16131 30.4587 7.61384 29.1692 7.5894C28.0897 7.56895 26.9827 7.59269 25.8999 7.59266C25.0648 7.59263 23.3083 7.68621 22.5826 7.54898L22.5774 3.55959C22.5784 -0.24962 22.7918 0.675596 13.3219 0.678698C7.03396 0.680794 9.14407 -0.629406 8.7436 12.1969Z" fill="currentColor"></path>
  </symbol>
  <symbol fill="none" xmlns="http://www.w3.org/2000/svg" viewBox="0 0 12 13" id="ic_download">
    <path d="M5.5334 9.68333C5.76674 9.975 6.2334 9.975 6.46674 9.68333L9.96674 6.00833C10.2584 5.71667 9.96674 5.25 9.50007 5.25H7.16674C7.16674 5.25 7.2834 2.56667 7.16674 1.16667C7.1084 0.525 6.64174 0 6.00007 0C5.3584 0 4.89174 0.525 4.8334 1.16667C4.71674 2.50833 4.8334 5.25 4.8334 5.25H2.50007C2.0334 5.25 1.74174 5.71667 2.0334 6.06667L5.5334 9.68333Z" fill="currentColor"></path>
    <path d="M10.0833 11.0835H1.91667C1.275 11.0835 0.75 11.6085 0.75 12.2502C0.75 12.6002 0.983333 12.8335 1.33333 12.8335H10.6667C11.0167 12.8335 11.25 12.6002 11.25 12.2502C11.25 11.6085 10.725 11.0835 10.0833 11.0835Z" fill="currentColor"></path>
  </symbol>
  <symbol fill="none" xmlns="http://www.w3.org/2000/svg" viewBox="0 0 31 30" id="ic_favorite">
    <path fill-rule="evenodd" clip-rule="evenodd" d="M5.49307 13.1197C6.84571 13.0337 8.42088 13.1032 9.79733 13.104C11.2481 13.1049 12.8779 13.4404 13.3534 12.3017C13.8105 11.2071 15.1903 6.32446 15.4802 5.89869C15.6824 6.18142 16.3816 8.54912 16.5624 9.10109C18.0226 13.5569 17.2167 13.1003 21.2595 13.1039C22.6175 13.1051 24.1337 13.0398 25.4719 13.1178L20.8609 16.5294C20.3758 16.8786 19.7028 17.2176 19.5814 17.846C19.426 18.6501 20.1181 19.225 20.7811 19.2548C21.412 19.2832 22.0607 18.6482 22.483 18.3436C23.5297 17.5888 24.5075 16.8628 25.5536 16.1164C26.5989 15.3707 27.6391 14.5886 28.677 13.8457C28.9816 13.6277 30.0586 12.8943 30.2229 12.6954C30.7076 12.1086 30.5173 11.2805 29.9636 10.9199C29.2079 10.4277 21.5472 10.7697 19.6228 10.6608L16.9994 2.60586C16.7128 1.73961 16.5588 0.652574 15.4805 0.656014C14.3808 0.659509 14.219 1.80347 13.9381 2.68185L11.3422 10.6638C9.12582 10.7572 6.7351 10.6775 4.49969 10.6774C3.81841 10.6773 1.70864 10.5736 1.23086 10.7709C0.384315 11.1204 0.252166 12.2916 0.947367 12.8719L8.73156 18.5658C8.67114 19.133 7.25155 23.2404 6.9523 24.1944C6.71031 24.9659 5.62153 27.7404 5.79895 28.4343C5.90623 28.8539 6.3294 29.2579 6.74179 29.3322C7.48475 29.4662 8.59332 28.4275 9.09104 28.0702C9.82465 27.5434 10.4737 27.0614 11.2124 26.5307C11.9535 25.9982 14.9782 23.7271 15.4802 23.4733C15.9384 23.6918 16.3391 24.045 16.7376 24.3397L20.2472 26.8976C20.7974 27.3045 23.3245 29.3349 23.9596 29.3393C24.567 29.3435 24.984 28.9028 25.1248 28.5097C25.3848 27.7837 23.6999 23.2402 23.3796 22.2294C22.7949 20.3843 21.4157 21.0528 21.0424 21.7211C20.6239 22.4705 21.4915 24.0198 21.6523 24.8538C20.6884 24.4685 16.4271 20.7407 15.48 20.7356C14.8085 20.732 12.8769 22.3319 12.3234 22.7296C11.7929 23.1107 9.71099 24.7023 9.31119 24.8549C9.52699 23.7711 10.1592 22.1478 10.5245 21.0283C11.8878 16.8511 11.89 17.8887 8.26194 15.1886C7.56237 14.6679 6.00646 13.6826 5.49307 13.1197Z" fill="currentColor"></path>
  </symbol>
  <symbol fill="none" xmlns="http://www.w3.org/2000/svg" viewBox="0 0 30 28" id="ic_feedback">
    <path fill-rule="evenodd" clip-rule="evenodd" d="M3.34916 2.40213C4.47506 2.18667 8.20845 2.31448 9.60724 2.31448L25.477 2.37105C26.5569 2.3773 27.4582 2.31882 27.6599 3.33032C27.9129 4.59878 27.7226 19.5905 27.7085 22.1581C27.7027 23.216 27.6988 24.2742 27.6948 25.3321C27.6909 26.3885 27.5751 27.4484 28.502 27.6804C29.5649 27.9464 30.0018 27.0356 30 26.1042C29.998 25.0453 29.9969 23.9865 29.9976 22.9276L29.9991 3.88314C29.9966 1.94809 28.9514 0.588534 27.3545 0.182852C26.1778 -0.116093 10.368 0.0425813 8.45309 0.0480067C4.02232 0.0606025 0.00501182 -0.800081 0.0062932 4.26835C0.00732922 8.50134 -0.00801998 12.732 0.00580265 16.9655C0.0122914 18.952 1.01425 20.2613 2.59096 20.7027C4.71272 21.2968 17.6166 20.1519 21.0358 21.3032C21.8638 21.582 22.4957 22.0005 23.0562 22.4631C23.3345 22.6927 23.587 23.0304 24.054 23.105C25.4662 23.3308 26.621 21.1316 22.3542 19.4172C19.2978 18.1891 14.1763 18.5263 10.569 18.5298C8.45314 18.5319 6.33678 18.519 4.22102 18.5239C3.06205 18.5266 2.37228 18.4225 2.31298 17.2542C2.14706 13.9848 2.28951 8.12775 2.30933 4.55721C2.31543 3.45595 2.228 2.61667 3.34916 2.40213Z" fill="currentColor"></path>
    <path fill-rule="evenodd" clip-rule="evenodd" d="M23.0132 8.50062C23.2719 7.81055 22.8465 7.18306 22.3142 7.05036C21.7416 6.90769 12.173 6.9885 10.8577 6.99079C9.67339 6.99284 7.44217 6.61033 7.0683 7.68822C6.81129 8.4293 7.16754 9.08166 7.71603 9.23772C8.20977 9.37821 17.9658 9.29822 19.2253 9.2971C20.9702 9.29554 22.5952 9.61578 23.0132 8.50062Z" fill="currentColor"></path>
    <path fill-rule="evenodd" clip-rule="evenodd" d="M7.12594 13.1173C7.48211 14.1711 8.58843 13.9097 9.79956 13.9107L16.5322 13.9106C17.5993 13.9147 18.7329 13.8213 18.286 12.4175C17.9475 11.3544 16.8604 11.6062 15.6665 11.6043L8.93362 11.6046C7.86246 11.6023 6.63759 11.6725 7.12594 13.1173Z" fill="currentColor"></path>
  </symbol>
  <symbol fill="none" xmlns="http://www.w3.org/2000/svg" viewBox="0 0 24 24" id="ic_instagram">
    <path d="M16.2639 1.03125H8.32362C4.66998 1.03125 1.72522 4.0717 1.72522 7.82616V15.9861C1.72522 19.7408 4.66998 22.8281 8.32362 22.8281H16.2639C19.9176 22.8281 22.9298 19.7408 22.9298 15.9861V7.82616C22.9298 4.0717 19.9176 1.03125 16.2639 1.03125ZM20.932 15.9861C20.932 18.6105 18.8178 20.7656 16.2639 20.7656H8.32362C5.76958 20.7656 3.67768 18.6105 3.67768 15.9861V7.82616C3.67768 5.20186 5.76958 3.04688 8.32362 3.04688H16.2639C18.8178 3.04688 20.932 5.20186 20.932 7.82616V15.9861Z" fill="url(#paint0_linear_304:1064)"></path>
    <path d="M12.2937 6.46631C9.37039 6.46631 7.00024 8.90198 7.00024 11.9064C7.00024 14.9104 9.37039 17.346 12.2937 17.346C15.2171 17.346 17.5871 14.9104 17.5871 11.9064C17.5871 8.90198 15.2171 6.46631 12.2937 6.46631ZM12.2937 15.3062C10.47 15.3062 8.98544 13.7804 8.98544 11.9064C8.98544 10.0306 10.47 8.50636 12.2937 8.50636C14.1173 8.50636 15.602 10.0307 15.602 11.9064C15.602 13.7804 14.1173 15.3062 12.2937 15.3062Z" fill="url(#paint1_linear_304:1064)"></path>
    <path d="M17.9842 5.3335C17.5946 5.3335 17.2787 5.65806 17.2787 6.05833C17.2787 6.45864 17.5946 6.78335 17.9842 6.78335C18.3735 6.78335 18.6895 6.45864 18.6895 6.05833C18.6895 5.65806 18.3735 5.3335 17.9842 5.3335Z" fill="url(#paint2_linear_304:1064)"></path>
    <defs>
      <linearGradient id="paint0_linear_304:1064" x1="3.67331" y1="20.8348" x2="21.498" y2="3.56873" gradientUnits="userSpaceOnUse">
        <stop stop-color="#FFC107"></stop>
        <stop offset="0.2211" stop-color="#F98D1C"></stop>
        <stop offset="0.5137" stop-color="#F1423B"></stop>
        <stop offset="0.8329" stop-color="#B93088"></stop>
        <stop offset="0.9944" stop-color="#9C27B0"></stop>
      </linearGradient>
      <linearGradient id="paint1_linear_304:1064" x1="8.55929" y1="15.7615" x2="16.266" y2="8.2964" gradientUnits="userSpaceOnUse">
        <stop stop-color="#FFC107"></stop>
        <stop offset="0.2211" stop-color="#F98D1C"></stop>
        <stop offset="0.5137" stop-color="#F1423B"></stop>
        <stop offset="0.8329" stop-color="#B93088"></stop>
        <stop offset="0.9944" stop-color="#9C27B0"></stop>
      </linearGradient>
      <linearGradient id="paint2_linear_304:1064" x1="17.4865" y1="6.57213" x2="18.5134" y2="5.57739" gradientUnits="userSpaceOnUse">
        <stop stop-color="#FFC107"></stop>
        <stop offset="0.2211" stop-color="#F98D1C"></stop>
        <stop offset="0.5137" stop-color="#F1423B"></stop>
        <stop offset="0.8329" stop-color="#B93088"></stop>
        <stop offset="0.9944" stop-color="#9C27B0"></stop>
      </linearGradient>
    </defs>
  </symbol>
  <symbol fill="none" xmlns="http://www.w3.org/2000/svg" viewBox="0 0 24 25" id="ic_search">
    <path d="M17.2297 16.0215L23.7159 22.52C23.9115 22.7516 24.0126 23.0485 23.9988 23.3514C23.985 23.6542 23.8574 23.9407 23.6415 24.1535C23.4256 24.3664 23.1373 24.4899 22.8343 24.4994C22.5313 24.5089 22.2359 24.4037 22.0071 24.2048L15.5329 17.7304C13.5988 19.2329 11.1646 19.9418 8.72617 19.7126C6.28772 19.4834 4.0283 18.3334 2.40796 16.4967C0.787622 14.66 -0.0717947 12.2748 0.00470125 9.82672C0.0811972 7.37862 1.08785 5.05172 2.8197 3.31981C4.55154 1.5879 6.87836 0.5812 9.32636 0.504701C11.7744 0.428203 14.1595 1.28765 15.9961 2.90805C17.8327 4.52845 18.9827 6.78796 19.2118 9.22651C19.441 11.6651 18.7322 14.0993 17.2297 16.0335V16.0215ZM9.62434 17.3453C11.5393 17.3453 13.3758 16.5845 14.7298 15.2304C16.0839 13.8763 16.8446 12.0397 16.8446 10.1247C16.8446 8.2097 16.0839 6.37312 14.7298 5.019C13.3758 3.66489 11.5393 2.90415 9.62434 2.90415C7.7094 2.90415 5.87289 3.66489 4.51883 5.019C3.16476 6.37312 2.40406 8.2097 2.40406 10.1247C2.40406 12.0397 3.16476 13.8763 4.51883 15.2304C5.87289 16.5845 7.7094 17.3453 9.62434 17.3453Z" fill="currentColor"></path>
  </symbol>
  <symbol fill="none" xmlns="http://www.w3.org/2000/svg" viewBox="0 0 24 24" id="ic_twitter">
    <path d="M23.2103 5.04516C22.4045 5.41121 21.5457 5.65379 20.6507 5.77135C21.5717 5.20229 22.2744 4.30773 22.6048 3.22979C21.7461 3.75976 20.7984 4.13415 19.7881 4.34293C18.9726 3.44415 17.8108 2.8877 16.5433 2.8877C14.0839 2.8877 12.1041 4.95418 12.1041 7.48735C12.1041 7.85185 12.1339 8.2021 12.2071 8.53604C8.51392 8.34938 5.24614 6.51737 3.0509 3.72615C2.66753 4.41427 2.44277 5.20229 2.44277 6.05035C2.44277 7.64284 3.23497 9.05457 4.41603 9.87165C3.70234 9.85787 3.00208 9.64346 2.40895 9.30573V9.35607C2.40895 11.5905 3.94884 13.4465 5.96782 13.8739C5.60621 13.9765 5.21227 14.0254 4.8032 14.0254C4.51905 14.0254 4.23172 14.0085 3.96224 13.947C4.53799 15.7681 6.1711 17.1068 8.11307 17.1501C6.60169 18.3739 4.6827 19.1113 2.60537 19.1113C2.24117 19.1113 1.89173 19.0947 1.54224 19.0484C3.50995 20.3619 5.84205 21.1118 8.35699 21.1118C16.531 21.1118 21.0002 14.1026 21.0002 8.02712C21.0002 7.82377 20.9931 7.62741 20.9838 7.4327C21.8655 6.78498 22.6063 5.9762 23.2103 5.04516Z" fill="#03ACF8"></path>
  </symbol>
  <symbol fill="none" xmlns="http://www.w3.org/2000/svg" viewBox="0 0 22 22" id="ic_vkontakte">
    <path d="M0 10.56C0 5.58195 0 3.09295 1.54648 1.54648C3.09295 0 5.58195 0 10.56 0H11.44C16.4181 0 18.907 0 20.4535 1.54648C22 3.09295 22 5.58195 22 10.56V11.44C22 16.4181 22 18.907 20.4535 20.4535C18.907 22 16.4181 22 11.44 22H10.56C5.58195 22 3.09295 22 1.54648 20.4535C0 18.907 0 16.4181 0 11.44V10.56Z" fill="#0077FF"></path>
    <path d="M11.7058 15.8494C6.69165 15.8494 3.83169 12.4119 3.71252 6.69189H6.22419C6.30669 10.8902 8.15831 12.6686 9.62498 13.0352V6.69189H11.9901V10.3127C13.4384 10.1569 14.9599 8.50689 15.4732 6.69189H17.8383C17.4441 8.92856 15.7941 10.5786 14.6208 11.2569C15.7941 11.8069 17.6734 13.2461 18.3884 15.8494H15.7849C15.2258 14.1077 13.8326 12.7602 11.9901 12.5769V15.8494H11.7058Z" fill="white"></path>
  </symbol>
  <symbol fill="none" xmlns="http://www.w3.org/2000/svg" viewBox="0 0 24 24" id="ic_youtube">
    <g clip-path="url(#clip0_304:1076)">
      <path d="M22.1125 5.77549C21.5248 4.69319 20.8867 4.49435 19.5882 4.41855C18.2907 4.32738 15.0282 4.28955 12.2022 4.28955C9.37034 4.28955 6.10656 4.32738 4.8104 4.417C3.5146 4.49435 2.87524 4.69188 2.28228 5.77549C1.67675 6.85643 1.36536 8.71811 1.36536 11.9956V12.0069C1.36536 15.2701 1.67675 17.1458 2.28228 18.2154C2.87524 19.2978 3.51311 19.494 4.80931 19.585C6.10656 19.6636 9.37034 19.71 12.2022 19.71C15.0282 19.71 18.2907 19.6636 19.5894 19.5865C20.8882 19.4956 21.5258 19.299 22.1137 18.2169C22.7244 17.1472 23.0334 15.2717 23.0334 12.0081V11.9969C23.0334 8.71811 22.7244 6.85643 22.1125 5.77549Z" fill="#F84437"></path>
      <path d="M9.49097 16.2051V7.79395L16.2621 11.9995L9.49097 16.2051Z" fill="#FCFCFC"></path>
    </g>
    <defs>
      <clipPath id="clip0_304:1076">
        <rect width="23.2479" height="24" fill="white" transform="translate(0.575439)"></rect>
      </clipPath>
    </defs>
  </symbol>
</svg>